%TF.GenerationSoftware,KiCad,Pcbnew,5.1.6-1.fc32*%
%TF.CreationDate,2020-08-07T18:49:01+03:00*%
%TF.ProjectId,ProjectFIH,50726f6a-6563-4744-9649-482e6b696361,rev?*%
%TF.SameCoordinates,Original*%
%TF.FileFunction,Copper,L1,Top*%
%TF.FilePolarity,Positive*%
%FSLAX46Y46*%
G04 Gerber Fmt 4.6, Leading zero omitted, Abs format (unit mm)*
G04 Created by KiCad (PCBNEW 5.1.6-1.fc32) date 2020-08-07 18:49:01*
%MOMM*%
%LPD*%
G01*
G04 APERTURE LIST*
%TA.AperFunction,ComponentPad*%
%ADD10C,2.400000*%
%TD*%
%TA.AperFunction,ComponentPad*%
%ADD11R,2.400000X2.400000*%
%TD*%
%TA.AperFunction,ComponentPad*%
%ADD12O,1.905000X2.000000*%
%TD*%
%TA.AperFunction,ComponentPad*%
%ADD13R,1.905000X2.000000*%
%TD*%
%TA.AperFunction,ComponentPad*%
%ADD14C,1.440000*%
%TD*%
%TA.AperFunction,ComponentPad*%
%ADD15R,2.000000X2.000000*%
%TD*%
%TA.AperFunction,ComponentPad*%
%ADD16C,2.000000*%
%TD*%
%TA.AperFunction,SMDPad,CuDef*%
%ADD17R,2.500000X2.300000*%
%TD*%
%TA.AperFunction,SMDPad,CuDef*%
%ADD18R,3.300000X2.500000*%
%TD*%
%TA.AperFunction,ComponentPad*%
%ADD19C,1.300000*%
%TD*%
%TA.AperFunction,ComponentPad*%
%ADD20R,1.300000X1.300000*%
%TD*%
%TA.AperFunction,ComponentPad*%
%ADD21O,1.700000X1.700000*%
%TD*%
%TA.AperFunction,ComponentPad*%
%ADD22R,1.700000X1.700000*%
%TD*%
%TA.AperFunction,ComponentPad*%
%ADD23R,1.980000X3.960000*%
%TD*%
%TA.AperFunction,ComponentPad*%
%ADD24O,1.980000X3.960000*%
%TD*%
%TA.AperFunction,ComponentPad*%
%ADD25C,1.700000*%
%TD*%
%TA.AperFunction,ComponentPad*%
%ADD26C,2.600000*%
%TD*%
%TA.AperFunction,ComponentPad*%
%ADD27C,2.800000*%
%TD*%
%TA.AperFunction,SMDPad,CuDef*%
%ADD28R,0.900000X0.800000*%
%TD*%
%TA.AperFunction,SMDPad,CuDef*%
%ADD29R,1.700000X0.650000*%
%TD*%
%TA.AperFunction,SMDPad,CuDef*%
%ADD30R,1.100000X4.600000*%
%TD*%
%TA.AperFunction,SMDPad,CuDef*%
%ADD31R,10.800000X9.400000*%
%TD*%
%TA.AperFunction,SMDPad,CuDef*%
%ADD32R,1.600000X0.550000*%
%TD*%
%TA.AperFunction,SMDPad,CuDef*%
%ADD33R,0.550000X1.600000*%
%TD*%
%TA.AperFunction,ComponentPad*%
%ADD34C,1.500000*%
%TD*%
%TA.AperFunction,ViaPad*%
%ADD35C,0.800000*%
%TD*%
%TA.AperFunction,ViaPad*%
%ADD36C,2.540000*%
%TD*%
%TA.AperFunction,Conductor*%
%ADD37C,0.500000*%
%TD*%
%TA.AperFunction,Conductor*%
%ADD38C,1.000000*%
%TD*%
%TA.AperFunction,Conductor*%
%ADD39C,0.300000*%
%TD*%
%TA.AperFunction,Conductor*%
%ADD40C,2.000000*%
%TD*%
%TA.AperFunction,Conductor*%
%ADD41C,0.254000*%
%TD*%
G04 APERTURE END LIST*
%TO.P,C8,2*%
%TO.N,GND*%
%TA.AperFunction,SMDPad,CuDef*%
G36*
G01*
X47195000Y-36772001D02*
X47195000Y-35871999D01*
G75*
G02*
X47444999Y-35622000I249999J0D01*
G01*
X48095001Y-35622000D01*
G75*
G02*
X48345000Y-35871999I0J-249999D01*
G01*
X48345000Y-36772001D01*
G75*
G02*
X48095001Y-37022000I-249999J0D01*
G01*
X47444999Y-37022000D01*
G75*
G02*
X47195000Y-36772001I0J249999D01*
G01*
G37*
%TD.AperFunction*%
%TO.P,C8,1*%
%TO.N,+24V*%
%TA.AperFunction,SMDPad,CuDef*%
G36*
G01*
X45145000Y-36772001D02*
X45145000Y-35871999D01*
G75*
G02*
X45394999Y-35622000I249999J0D01*
G01*
X46045001Y-35622000D01*
G75*
G02*
X46295000Y-35871999I0J-249999D01*
G01*
X46295000Y-36772001D01*
G75*
G02*
X46045001Y-37022000I-249999J0D01*
G01*
X45394999Y-37022000D01*
G75*
G02*
X45145000Y-36772001I0J249999D01*
G01*
G37*
%TD.AperFunction*%
%TD*%
D10*
%TO.P,C14,2*%
%TO.N,GND*%
X67437000Y-25480000D03*
D11*
%TO.P,C14,1*%
%TO.N,+24V*%
X67437000Y-30480000D03*
%TD*%
D10*
%TO.P,C13,2*%
%TO.N,GND*%
X95758000Y-68881000D03*
D11*
%TO.P,C13,1*%
%TO.N,+24V*%
X95758000Y-63881000D03*
%TD*%
D10*
%TO.P,C9,2*%
%TO.N,GND*%
X49450000Y-36322000D03*
D11*
%TO.P,C9,1*%
%TO.N,+24V*%
X44450000Y-36322000D03*
%TD*%
%TO.P,R6,1*%
%TO.N,Temperature*%
%TA.AperFunction,SMDPad,CuDef*%
G36*
G01*
X19615999Y-78401000D02*
X20516001Y-78401000D01*
G75*
G02*
X20766000Y-78650999I0J-249999D01*
G01*
X20766000Y-79301001D01*
G75*
G02*
X20516001Y-79551000I-249999J0D01*
G01*
X19615999Y-79551000D01*
G75*
G02*
X19366000Y-79301001I0J249999D01*
G01*
X19366000Y-78650999D01*
G75*
G02*
X19615999Y-78401000I249999J0D01*
G01*
G37*
%TD.AperFunction*%
%TO.P,R6,2*%
%TO.N,Net-(R4-Pad2)*%
%TA.AperFunction,SMDPad,CuDef*%
G36*
G01*
X19615999Y-80451000D02*
X20516001Y-80451000D01*
G75*
G02*
X20766000Y-80700999I0J-249999D01*
G01*
X20766000Y-81351001D01*
G75*
G02*
X20516001Y-81601000I-249999J0D01*
G01*
X19615999Y-81601000D01*
G75*
G02*
X19366000Y-81351001I0J249999D01*
G01*
X19366000Y-80700999D01*
G75*
G02*
X19615999Y-80451000I249999J0D01*
G01*
G37*
%TD.AperFunction*%
%TD*%
D12*
%TO.P,Q3,3*%
%TO.N,GND*%
X35052000Y-51562000D03*
%TO.P,Q3,2*%
%TO.N,Net-(J5-Pad2)*%
X32512000Y-51562000D03*
D13*
%TO.P,Q3,1*%
%TO.N,Net-(Q3-Pad1)*%
X29972000Y-51562000D03*
%TD*%
%TO.P,U6,8*%
%TO.N,Net-(C20-Pad1)*%
%TA.AperFunction,SMDPad,CuDef*%
G36*
G01*
X90273000Y-64031000D02*
X90273000Y-63731000D01*
G75*
G02*
X90423000Y-63581000I150000J0D01*
G01*
X92073000Y-63581000D01*
G75*
G02*
X92223000Y-63731000I0J-150000D01*
G01*
X92223000Y-64031000D01*
G75*
G02*
X92073000Y-64181000I-150000J0D01*
G01*
X90423000Y-64181000D01*
G75*
G02*
X90273000Y-64031000I0J150000D01*
G01*
G37*
%TD.AperFunction*%
%TO.P,U6,7*%
%TO.N,+24V*%
%TA.AperFunction,SMDPad,CuDef*%
G36*
G01*
X90273000Y-65301000D02*
X90273000Y-65001000D01*
G75*
G02*
X90423000Y-64851000I150000J0D01*
G01*
X92073000Y-64851000D01*
G75*
G02*
X92223000Y-65001000I0J-150000D01*
G01*
X92223000Y-65301000D01*
G75*
G02*
X92073000Y-65451000I-150000J0D01*
G01*
X90423000Y-65451000D01*
G75*
G02*
X90273000Y-65301000I0J150000D01*
G01*
G37*
%TD.AperFunction*%
%TO.P,U6,6*%
%TO.N,GND*%
%TA.AperFunction,SMDPad,CuDef*%
G36*
G01*
X90273000Y-66571000D02*
X90273000Y-66271000D01*
G75*
G02*
X90423000Y-66121000I150000J0D01*
G01*
X92073000Y-66121000D01*
G75*
G02*
X92223000Y-66271000I0J-150000D01*
G01*
X92223000Y-66571000D01*
G75*
G02*
X92073000Y-66721000I-150000J0D01*
G01*
X90423000Y-66721000D01*
G75*
G02*
X90273000Y-66571000I0J150000D01*
G01*
G37*
%TD.AperFunction*%
%TO.P,U6,5*%
%TO.N,Net-(U6-Pad5)*%
%TA.AperFunction,SMDPad,CuDef*%
G36*
G01*
X90273000Y-67841000D02*
X90273000Y-67541000D01*
G75*
G02*
X90423000Y-67391000I150000J0D01*
G01*
X92073000Y-67391000D01*
G75*
G02*
X92223000Y-67541000I0J-150000D01*
G01*
X92223000Y-67841000D01*
G75*
G02*
X92073000Y-67991000I-150000J0D01*
G01*
X90423000Y-67991000D01*
G75*
G02*
X90273000Y-67841000I0J150000D01*
G01*
G37*
%TD.AperFunction*%
%TO.P,U6,4*%
%TO.N,+5V*%
%TA.AperFunction,SMDPad,CuDef*%
G36*
G01*
X85323000Y-67841000D02*
X85323000Y-67541000D01*
G75*
G02*
X85473000Y-67391000I150000J0D01*
G01*
X87123000Y-67391000D01*
G75*
G02*
X87273000Y-67541000I0J-150000D01*
G01*
X87273000Y-67841000D01*
G75*
G02*
X87123000Y-67991000I-150000J0D01*
G01*
X85473000Y-67991000D01*
G75*
G02*
X85323000Y-67841000I0J150000D01*
G01*
G37*
%TD.AperFunction*%
%TO.P,U6,3*%
%TO.N,N/C*%
%TA.AperFunction,SMDPad,CuDef*%
G36*
G01*
X85323000Y-66571000D02*
X85323000Y-66271000D01*
G75*
G02*
X85473000Y-66121000I150000J0D01*
G01*
X87123000Y-66121000D01*
G75*
G02*
X87273000Y-66271000I0J-150000D01*
G01*
X87273000Y-66571000D01*
G75*
G02*
X87123000Y-66721000I-150000J0D01*
G01*
X85473000Y-66721000D01*
G75*
G02*
X85323000Y-66571000I0J150000D01*
G01*
G37*
%TD.AperFunction*%
%TO.P,U6,2*%
%TA.AperFunction,SMDPad,CuDef*%
G36*
G01*
X85323000Y-65301000D02*
X85323000Y-65001000D01*
G75*
G02*
X85473000Y-64851000I150000J0D01*
G01*
X87123000Y-64851000D01*
G75*
G02*
X87273000Y-65001000I0J-150000D01*
G01*
X87273000Y-65301000D01*
G75*
G02*
X87123000Y-65451000I-150000J0D01*
G01*
X85473000Y-65451000D01*
G75*
G02*
X85323000Y-65301000I0J150000D01*
G01*
G37*
%TD.AperFunction*%
%TO.P,U6,1*%
%TO.N,Net-(C20-Pad2)*%
%TA.AperFunction,SMDPad,CuDef*%
G36*
G01*
X85323000Y-64031000D02*
X85323000Y-63731000D01*
G75*
G02*
X85473000Y-63581000I150000J0D01*
G01*
X87123000Y-63581000D01*
G75*
G02*
X87273000Y-63731000I0J-150000D01*
G01*
X87273000Y-64031000D01*
G75*
G02*
X87123000Y-64181000I-150000J0D01*
G01*
X85473000Y-64181000D01*
G75*
G02*
X85323000Y-64031000I0J150000D01*
G01*
G37*
%TD.AperFunction*%
%TD*%
D14*
%TO.P,RV2,3*%
%TO.N,Net-(R23-Pad2)*%
X94742000Y-47561500D03*
%TO.P,RV2,2*%
%TO.N,Net-(C23-Pad1)*%
X94742000Y-45021500D03*
%TO.P,RV2,1*%
X94742000Y-42481500D03*
%TD*%
%TO.P,C1,1*%
%TO.N,Net-(C1-Pad1)*%
%TA.AperFunction,SMDPad,CuDef*%
G36*
G01*
X22917999Y-101025000D02*
X23818001Y-101025000D01*
G75*
G02*
X24068000Y-101274999I0J-249999D01*
G01*
X24068000Y-101925001D01*
G75*
G02*
X23818001Y-102175000I-249999J0D01*
G01*
X22917999Y-102175000D01*
G75*
G02*
X22668000Y-101925001I0J249999D01*
G01*
X22668000Y-101274999D01*
G75*
G02*
X22917999Y-101025000I249999J0D01*
G01*
G37*
%TD.AperFunction*%
%TO.P,C1,2*%
%TO.N,Net-(C1-Pad2)*%
%TA.AperFunction,SMDPad,CuDef*%
G36*
G01*
X22917999Y-103075000D02*
X23818001Y-103075000D01*
G75*
G02*
X24068000Y-103324999I0J-249999D01*
G01*
X24068000Y-103975001D01*
G75*
G02*
X23818001Y-104225000I-249999J0D01*
G01*
X22917999Y-104225000D01*
G75*
G02*
X22668000Y-103975001I0J249999D01*
G01*
X22668000Y-103324999D01*
G75*
G02*
X22917999Y-103075000I249999J0D01*
G01*
G37*
%TD.AperFunction*%
%TD*%
%TO.P,C2,1*%
%TO.N,Net-(C2-Pad1)*%
%TA.AperFunction,SMDPad,CuDef*%
G36*
G01*
X22419000Y-86417999D02*
X22419000Y-87318001D01*
G75*
G02*
X22169001Y-87568000I-249999J0D01*
G01*
X21518999Y-87568000D01*
G75*
G02*
X21269000Y-87318001I0J249999D01*
G01*
X21269000Y-86417999D01*
G75*
G02*
X21518999Y-86168000I249999J0D01*
G01*
X22169001Y-86168000D01*
G75*
G02*
X22419000Y-86417999I0J-249999D01*
G01*
G37*
%TD.AperFunction*%
%TO.P,C2,2*%
%TO.N,GND*%
%TA.AperFunction,SMDPad,CuDef*%
G36*
G01*
X20369000Y-86417999D02*
X20369000Y-87318001D01*
G75*
G02*
X20119001Y-87568000I-249999J0D01*
G01*
X19468999Y-87568000D01*
G75*
G02*
X19219000Y-87318001I0J249999D01*
G01*
X19219000Y-86417999D01*
G75*
G02*
X19468999Y-86168000I249999J0D01*
G01*
X20119001Y-86168000D01*
G75*
G02*
X20369000Y-86417999I0J-249999D01*
G01*
G37*
%TD.AperFunction*%
%TD*%
%TO.P,C3,1*%
%TO.N,Net-(C1-Pad1)*%
%TA.AperFunction,SMDPad,CuDef*%
G36*
G01*
X26120000Y-101062000D02*
X27220000Y-101062000D01*
G75*
G02*
X27470000Y-101312000I0J-250000D01*
G01*
X27470000Y-103412000D01*
G75*
G02*
X27220000Y-103662000I-250000J0D01*
G01*
X26120000Y-103662000D01*
G75*
G02*
X25870000Y-103412000I0J250000D01*
G01*
X25870000Y-101312000D01*
G75*
G02*
X26120000Y-101062000I250000J0D01*
G01*
G37*
%TD.AperFunction*%
%TO.P,C3,2*%
%TO.N,Net-(C3-Pad2)*%
%TA.AperFunction,SMDPad,CuDef*%
G36*
G01*
X26120000Y-104662000D02*
X27220000Y-104662000D01*
G75*
G02*
X27470000Y-104912000I0J-250000D01*
G01*
X27470000Y-107012000D01*
G75*
G02*
X27220000Y-107262000I-250000J0D01*
G01*
X26120000Y-107262000D01*
G75*
G02*
X25870000Y-107012000I0J250000D01*
G01*
X25870000Y-104912000D01*
G75*
G02*
X26120000Y-104662000I250000J0D01*
G01*
G37*
%TD.AperFunction*%
%TD*%
%TO.P,C5,1*%
%TO.N,Net-(C5-Pad1)*%
%TA.AperFunction,SMDPad,CuDef*%
G36*
G01*
X44517000Y-93275999D02*
X44517000Y-94176001D01*
G75*
G02*
X44267001Y-94426000I-249999J0D01*
G01*
X43616999Y-94426000D01*
G75*
G02*
X43367000Y-94176001I0J249999D01*
G01*
X43367000Y-93275999D01*
G75*
G02*
X43616999Y-93026000I249999J0D01*
G01*
X44267001Y-93026000D01*
G75*
G02*
X44517000Y-93275999I0J-249999D01*
G01*
G37*
%TD.AperFunction*%
%TO.P,C5,2*%
%TO.N,IRQResp*%
%TA.AperFunction,SMDPad,CuDef*%
G36*
G01*
X42467000Y-93275999D02*
X42467000Y-94176001D01*
G75*
G02*
X42217001Y-94426000I-249999J0D01*
G01*
X41566999Y-94426000D01*
G75*
G02*
X41317000Y-94176001I0J249999D01*
G01*
X41317000Y-93275999D01*
G75*
G02*
X41566999Y-93026000I249999J0D01*
G01*
X42217001Y-93026000D01*
G75*
G02*
X42467000Y-93275999I0J-249999D01*
G01*
G37*
%TD.AperFunction*%
%TD*%
%TO.P,C12,2*%
%TO.N,GND*%
%TA.AperFunction,SMDPad,CuDef*%
G36*
G01*
X88579000Y-82492001D02*
X88579000Y-81591999D01*
G75*
G02*
X88828999Y-81342000I249999J0D01*
G01*
X89479001Y-81342000D01*
G75*
G02*
X89729000Y-81591999I0J-249999D01*
G01*
X89729000Y-82492001D01*
G75*
G02*
X89479001Y-82742000I-249999J0D01*
G01*
X88828999Y-82742000D01*
G75*
G02*
X88579000Y-82492001I0J249999D01*
G01*
G37*
%TD.AperFunction*%
%TO.P,C12,1*%
%TO.N,MCUReset*%
%TA.AperFunction,SMDPad,CuDef*%
G36*
G01*
X86529000Y-82492001D02*
X86529000Y-81591999D01*
G75*
G02*
X86778999Y-81342000I249999J0D01*
G01*
X87429001Y-81342000D01*
G75*
G02*
X87679000Y-81591999I0J-249999D01*
G01*
X87679000Y-82492001D01*
G75*
G02*
X87429001Y-82742000I-249999J0D01*
G01*
X86778999Y-82742000D01*
G75*
G02*
X86529000Y-82492001I0J249999D01*
G01*
G37*
%TD.AperFunction*%
%TD*%
%TO.P,C15,1*%
%TO.N,Net-(C15-Pad1)*%
%TA.AperFunction,SMDPad,CuDef*%
G36*
G01*
X74126000Y-96831999D02*
X74126000Y-97732001D01*
G75*
G02*
X73876001Y-97982000I-249999J0D01*
G01*
X73225999Y-97982000D01*
G75*
G02*
X72976000Y-97732001I0J249999D01*
G01*
X72976000Y-96831999D01*
G75*
G02*
X73225999Y-96582000I249999J0D01*
G01*
X73876001Y-96582000D01*
G75*
G02*
X74126000Y-96831999I0J-249999D01*
G01*
G37*
%TD.AperFunction*%
%TO.P,C15,2*%
%TO.N,GND*%
%TA.AperFunction,SMDPad,CuDef*%
G36*
G01*
X72076000Y-96831999D02*
X72076000Y-97732001D01*
G75*
G02*
X71826001Y-97982000I-249999J0D01*
G01*
X71175999Y-97982000D01*
G75*
G02*
X70926000Y-97732001I0J249999D01*
G01*
X70926000Y-96831999D01*
G75*
G02*
X71175999Y-96582000I249999J0D01*
G01*
X71826001Y-96582000D01*
G75*
G02*
X72076000Y-96831999I0J-249999D01*
G01*
G37*
%TD.AperFunction*%
%TD*%
%TO.P,C16,2*%
%TO.N,GND*%
%TA.AperFunction,SMDPad,CuDef*%
G36*
G01*
X95307999Y-66753000D02*
X96208001Y-66753000D01*
G75*
G02*
X96458000Y-67002999I0J-249999D01*
G01*
X96458000Y-67653001D01*
G75*
G02*
X96208001Y-67903000I-249999J0D01*
G01*
X95307999Y-67903000D01*
G75*
G02*
X95058000Y-67653001I0J249999D01*
G01*
X95058000Y-67002999D01*
G75*
G02*
X95307999Y-66753000I249999J0D01*
G01*
G37*
%TD.AperFunction*%
%TO.P,C16,1*%
%TO.N,+24V*%
%TA.AperFunction,SMDPad,CuDef*%
G36*
G01*
X95307999Y-64703000D02*
X96208001Y-64703000D01*
G75*
G02*
X96458000Y-64952999I0J-249999D01*
G01*
X96458000Y-65603001D01*
G75*
G02*
X96208001Y-65853000I-249999J0D01*
G01*
X95307999Y-65853000D01*
G75*
G02*
X95058000Y-65603001I0J249999D01*
G01*
X95058000Y-64952999D01*
G75*
G02*
X95307999Y-64703000I249999J0D01*
G01*
G37*
%TD.AperFunction*%
%TD*%
%TO.P,C17,1*%
%TO.N,+24V*%
%TA.AperFunction,SMDPad,CuDef*%
G36*
G01*
X70427001Y-36770000D02*
X69526999Y-36770000D01*
G75*
G02*
X69277000Y-36520001I0J249999D01*
G01*
X69277000Y-35869999D01*
G75*
G02*
X69526999Y-35620000I249999J0D01*
G01*
X70427001Y-35620000D01*
G75*
G02*
X70677000Y-35869999I0J-249999D01*
G01*
X70677000Y-36520001D01*
G75*
G02*
X70427001Y-36770000I-249999J0D01*
G01*
G37*
%TD.AperFunction*%
%TO.P,C17,2*%
%TO.N,GND*%
%TA.AperFunction,SMDPad,CuDef*%
G36*
G01*
X70427001Y-34720000D02*
X69526999Y-34720000D01*
G75*
G02*
X69277000Y-34470001I0J249999D01*
G01*
X69277000Y-33819999D01*
G75*
G02*
X69526999Y-33570000I249999J0D01*
G01*
X70427001Y-33570000D01*
G75*
G02*
X70677000Y-33819999I0J-249999D01*
G01*
X70677000Y-34470001D01*
G75*
G02*
X70427001Y-34720000I-249999J0D01*
G01*
G37*
%TD.AperFunction*%
%TD*%
%TO.P,C18,2*%
%TO.N,GND*%
%TA.AperFunction,SMDPad,CuDef*%
G36*
G01*
X72321000Y-101276999D02*
X72321000Y-102177001D01*
G75*
G02*
X72071001Y-102427000I-249999J0D01*
G01*
X71420999Y-102427000D01*
G75*
G02*
X71171000Y-102177001I0J249999D01*
G01*
X71171000Y-101276999D01*
G75*
G02*
X71420999Y-101027000I249999J0D01*
G01*
X72071001Y-101027000D01*
G75*
G02*
X72321000Y-101276999I0J-249999D01*
G01*
G37*
%TD.AperFunction*%
%TO.P,C18,1*%
%TO.N,Net-(C18-Pad1)*%
%TA.AperFunction,SMDPad,CuDef*%
G36*
G01*
X74371000Y-101276999D02*
X74371000Y-102177001D01*
G75*
G02*
X74121001Y-102427000I-249999J0D01*
G01*
X73470999Y-102427000D01*
G75*
G02*
X73221000Y-102177001I0J249999D01*
G01*
X73221000Y-101276999D01*
G75*
G02*
X73470999Y-101027000I249999J0D01*
G01*
X74121001Y-101027000D01*
G75*
G02*
X74371000Y-101276999I0J-249999D01*
G01*
G37*
%TD.AperFunction*%
%TD*%
%TO.P,C19,1*%
%TO.N,Net-(C19-Pad1)*%
%TA.AperFunction,SMDPad,CuDef*%
G36*
G01*
X94811001Y-92287000D02*
X93910999Y-92287000D01*
G75*
G02*
X93661000Y-92037001I0J249999D01*
G01*
X93661000Y-91386999D01*
G75*
G02*
X93910999Y-91137000I249999J0D01*
G01*
X94811001Y-91137000D01*
G75*
G02*
X95061000Y-91386999I0J-249999D01*
G01*
X95061000Y-92037001D01*
G75*
G02*
X94811001Y-92287000I-249999J0D01*
G01*
G37*
%TD.AperFunction*%
%TO.P,C19,2*%
%TO.N,GND*%
%TA.AperFunction,SMDPad,CuDef*%
G36*
G01*
X94811001Y-90237000D02*
X93910999Y-90237000D01*
G75*
G02*
X93661000Y-89987001I0J249999D01*
G01*
X93661000Y-89336999D01*
G75*
G02*
X93910999Y-89087000I249999J0D01*
G01*
X94811001Y-89087000D01*
G75*
G02*
X95061000Y-89336999I0J-249999D01*
G01*
X95061000Y-89987001D01*
G75*
G02*
X94811001Y-90237000I-249999J0D01*
G01*
G37*
%TD.AperFunction*%
%TD*%
%TO.P,C20,1*%
%TO.N,Net-(C20-Pad1)*%
%TA.AperFunction,SMDPad,CuDef*%
G36*
G01*
X90618000Y-61525999D02*
X90618000Y-62426001D01*
G75*
G02*
X90368001Y-62676000I-249999J0D01*
G01*
X89717999Y-62676000D01*
G75*
G02*
X89468000Y-62426001I0J249999D01*
G01*
X89468000Y-61525999D01*
G75*
G02*
X89717999Y-61276000I249999J0D01*
G01*
X90368001Y-61276000D01*
G75*
G02*
X90618000Y-61525999I0J-249999D01*
G01*
G37*
%TD.AperFunction*%
%TO.P,C20,2*%
%TO.N,Net-(C20-Pad2)*%
%TA.AperFunction,SMDPad,CuDef*%
G36*
G01*
X88568000Y-61525999D02*
X88568000Y-62426001D01*
G75*
G02*
X88318001Y-62676000I-249999J0D01*
G01*
X87667999Y-62676000D01*
G75*
G02*
X87418000Y-62426001I0J249999D01*
G01*
X87418000Y-61525999D01*
G75*
G02*
X87667999Y-61276000I249999J0D01*
G01*
X88318001Y-61276000D01*
G75*
G02*
X88568000Y-61525999I0J-249999D01*
G01*
G37*
%TD.AperFunction*%
%TD*%
%TO.P,C21,1*%
%TO.N,+5V*%
%TA.AperFunction,SMDPad,CuDef*%
G36*
G01*
X80206001Y-91897000D02*
X79305999Y-91897000D01*
G75*
G02*
X79056000Y-91647001I0J249999D01*
G01*
X79056000Y-90996999D01*
G75*
G02*
X79305999Y-90747000I249999J0D01*
G01*
X80206001Y-90747000D01*
G75*
G02*
X80456000Y-90996999I0J-249999D01*
G01*
X80456000Y-91647001D01*
G75*
G02*
X80206001Y-91897000I-249999J0D01*
G01*
G37*
%TD.AperFunction*%
%TO.P,C21,2*%
%TO.N,GND*%
%TA.AperFunction,SMDPad,CuDef*%
G36*
G01*
X80206001Y-89847000D02*
X79305999Y-89847000D01*
G75*
G02*
X79056000Y-89597001I0J249999D01*
G01*
X79056000Y-88946999D01*
G75*
G02*
X79305999Y-88697000I249999J0D01*
G01*
X80206001Y-88697000D01*
G75*
G02*
X80456000Y-88946999I0J-249999D01*
G01*
X80456000Y-89597001D01*
G75*
G02*
X80206001Y-89847000I-249999J0D01*
G01*
G37*
%TD.AperFunction*%
%TD*%
%TO.P,C22,2*%
%TO.N,GND*%
%TA.AperFunction,SMDPad,CuDef*%
G36*
G01*
X83877999Y-69411000D02*
X84778001Y-69411000D01*
G75*
G02*
X85028000Y-69660999I0J-249999D01*
G01*
X85028000Y-70311001D01*
G75*
G02*
X84778001Y-70561000I-249999J0D01*
G01*
X83877999Y-70561000D01*
G75*
G02*
X83628000Y-70311001I0J249999D01*
G01*
X83628000Y-69660999D01*
G75*
G02*
X83877999Y-69411000I249999J0D01*
G01*
G37*
%TD.AperFunction*%
%TO.P,C22,1*%
%TO.N,+5V*%
%TA.AperFunction,SMDPad,CuDef*%
G36*
G01*
X83877999Y-67361000D02*
X84778001Y-67361000D01*
G75*
G02*
X85028000Y-67610999I0J-249999D01*
G01*
X85028000Y-68261001D01*
G75*
G02*
X84778001Y-68511000I-249999J0D01*
G01*
X83877999Y-68511000D01*
G75*
G02*
X83628000Y-68261001I0J249999D01*
G01*
X83628000Y-67610999D01*
G75*
G02*
X83877999Y-67361000I249999J0D01*
G01*
G37*
%TD.AperFunction*%
%TD*%
%TO.P,C23,2*%
%TO.N,GND*%
%TA.AperFunction,SMDPad,CuDef*%
G36*
G01*
X93287001Y-30910000D02*
X92386999Y-30910000D01*
G75*
G02*
X92137000Y-30660001I0J249999D01*
G01*
X92137000Y-30009999D01*
G75*
G02*
X92386999Y-29760000I249999J0D01*
G01*
X93287001Y-29760000D01*
G75*
G02*
X93537000Y-30009999I0J-249999D01*
G01*
X93537000Y-30660001D01*
G75*
G02*
X93287001Y-30910000I-249999J0D01*
G01*
G37*
%TD.AperFunction*%
%TO.P,C23,1*%
%TO.N,Net-(C23-Pad1)*%
%TA.AperFunction,SMDPad,CuDef*%
G36*
G01*
X93287001Y-32960000D02*
X92386999Y-32960000D01*
G75*
G02*
X92137000Y-32710001I0J249999D01*
G01*
X92137000Y-32059999D01*
G75*
G02*
X92386999Y-31810000I249999J0D01*
G01*
X93287001Y-31810000D01*
G75*
G02*
X93537000Y-32059999I0J-249999D01*
G01*
X93537000Y-32710001D01*
G75*
G02*
X93287001Y-32960000I-249999J0D01*
G01*
G37*
%TD.AperFunction*%
%TD*%
D15*
%TO.P,C24,1*%
%TO.N,+5V*%
X83058000Y-66421000D03*
D16*
%TO.P,C24,2*%
%TO.N,GND*%
X83058000Y-71421000D03*
%TD*%
%TO.P,C25,2*%
%TO.N,GND*%
X97282000Y-31830000D03*
D15*
%TO.P,C25,1*%
%TO.N,Net-(C23-Pad1)*%
X97282000Y-36830000D03*
%TD*%
%TO.P,D1,1*%
%TO.N,Net-(C5-Pad1)*%
%TA.AperFunction,SMDPad,CuDef*%
G36*
G01*
X45089000Y-94039000D02*
X45089000Y-91889000D01*
G75*
G02*
X45339000Y-91639000I250000J0D01*
G01*
X46089000Y-91639000D01*
G75*
G02*
X46339000Y-91889000I0J-250000D01*
G01*
X46339000Y-94039000D01*
G75*
G02*
X46089000Y-94289000I-250000J0D01*
G01*
X45339000Y-94289000D01*
G75*
G02*
X45089000Y-94039000I0J250000D01*
G01*
G37*
%TD.AperFunction*%
%TO.P,D1,2*%
%TO.N,GND*%
%TA.AperFunction,SMDPad,CuDef*%
G36*
G01*
X47889000Y-94039000D02*
X47889000Y-91889000D01*
G75*
G02*
X48139000Y-91639000I250000J0D01*
G01*
X48889000Y-91639000D01*
G75*
G02*
X49139000Y-91889000I0J-250000D01*
G01*
X49139000Y-94039000D01*
G75*
G02*
X48889000Y-94289000I-250000J0D01*
G01*
X48139000Y-94289000D01*
G75*
G02*
X47889000Y-94039000I0J250000D01*
G01*
G37*
%TD.AperFunction*%
%TD*%
%TO.P,D2,2*%
%TO.N,MCUReset*%
%TA.AperFunction,SMDPad,CuDef*%
G36*
G01*
X39761000Y-108009000D02*
X39761000Y-105859000D01*
G75*
G02*
X40011000Y-105609000I250000J0D01*
G01*
X40761000Y-105609000D01*
G75*
G02*
X41011000Y-105859000I0J-250000D01*
G01*
X41011000Y-108009000D01*
G75*
G02*
X40761000Y-108259000I-250000J0D01*
G01*
X40011000Y-108259000D01*
G75*
G02*
X39761000Y-108009000I0J250000D01*
G01*
G37*
%TD.AperFunction*%
%TO.P,D2,1*%
%TO.N,Net-(D2-Pad1)*%
%TA.AperFunction,SMDPad,CuDef*%
G36*
G01*
X36961000Y-108009000D02*
X36961000Y-105859000D01*
G75*
G02*
X37211000Y-105609000I250000J0D01*
G01*
X37961000Y-105609000D01*
G75*
G02*
X38211000Y-105859000I0J-250000D01*
G01*
X38211000Y-108009000D01*
G75*
G02*
X37961000Y-108259000I-250000J0D01*
G01*
X37211000Y-108259000D01*
G75*
G02*
X36961000Y-108009000I0J250000D01*
G01*
G37*
%TD.AperFunction*%
%TD*%
D17*
%TO.P,D3,1*%
%TO.N,Net-(C20-Pad1)*%
X92973000Y-60071000D03*
%TO.P,D3,2*%
%TO.N,GND*%
X97273000Y-60071000D03*
%TD*%
D18*
%TO.P,D4,1*%
%TO.N,Net-(D4-Pad1)*%
X87757000Y-37055000D03*
%TO.P,D4,2*%
%TO.N,GND*%
X87757000Y-30255000D03*
%TD*%
%TO.P,D5,1*%
%TO.N,Net-(D5-Pad1)*%
%TA.AperFunction,SMDPad,CuDef*%
G36*
G01*
X81397000Y-81729000D02*
X81397000Y-83879000D01*
G75*
G02*
X81147000Y-84129000I-250000J0D01*
G01*
X80397000Y-84129000D01*
G75*
G02*
X80147000Y-83879000I0J250000D01*
G01*
X80147000Y-81729000D01*
G75*
G02*
X80397000Y-81479000I250000J0D01*
G01*
X81147000Y-81479000D01*
G75*
G02*
X81397000Y-81729000I0J-250000D01*
G01*
G37*
%TD.AperFunction*%
%TO.P,D5,2*%
%TO.N,IRQ*%
%TA.AperFunction,SMDPad,CuDef*%
G36*
G01*
X78597000Y-81729000D02*
X78597000Y-83879000D01*
G75*
G02*
X78347000Y-84129000I-250000J0D01*
G01*
X77597000Y-84129000D01*
G75*
G02*
X77347000Y-83879000I0J250000D01*
G01*
X77347000Y-81729000D01*
G75*
G02*
X77597000Y-81479000I250000J0D01*
G01*
X78347000Y-81479000D01*
G75*
G02*
X78597000Y-81729000I0J-250000D01*
G01*
G37*
%TD.AperFunction*%
%TD*%
%TO.P,D6,2*%
%TO.N,GND*%
%TA.AperFunction,SMDPad,CuDef*%
G36*
G01*
X99382000Y-24140000D02*
X101532000Y-24140000D01*
G75*
G02*
X101782000Y-24390000I0J-250000D01*
G01*
X101782000Y-25140000D01*
G75*
G02*
X101532000Y-25390000I-250000J0D01*
G01*
X99382000Y-25390000D01*
G75*
G02*
X99132000Y-25140000I0J250000D01*
G01*
X99132000Y-24390000D01*
G75*
G02*
X99382000Y-24140000I250000J0D01*
G01*
G37*
%TD.AperFunction*%
%TO.P,D6,1*%
%TO.N,Net-(D6-Pad1)*%
%TA.AperFunction,SMDPad,CuDef*%
G36*
G01*
X99382000Y-21340000D02*
X101532000Y-21340000D01*
G75*
G02*
X101782000Y-21590000I0J-250000D01*
G01*
X101782000Y-22340000D01*
G75*
G02*
X101532000Y-22590000I-250000J0D01*
G01*
X99382000Y-22590000D01*
G75*
G02*
X99132000Y-22340000I0J250000D01*
G01*
X99132000Y-21590000D01*
G75*
G02*
X99382000Y-21340000I250000J0D01*
G01*
G37*
%TD.AperFunction*%
%TD*%
D19*
%TO.P,DA1,2*%
%TO.N,Net-(C2-Pad1)*%
X21336000Y-88900000D03*
%TO.P,DA1,3*%
%TO.N,GND*%
X20066000Y-90170000D03*
D20*
%TO.P,DA1,1*%
%TO.N,Net-(DA1-Pad1)*%
X22606000Y-90170000D03*
%TD*%
D21*
%TO.P,J1,2*%
%TO.N,IRQ*%
X61976000Y-77978000D03*
D22*
%TO.P,J1,1*%
%TO.N,Net-(C5-Pad1)*%
X59436000Y-77978000D03*
%TD*%
D23*
%TO.P,J2,1*%
%TO.N,GND*%
X50292000Y-22860000D03*
D24*
%TO.P,J2,2*%
%TO.N,+24V*%
X45292000Y-22860000D03*
%TD*%
D22*
%TO.P,J3,1*%
%TO.N,Net-(J3-Pad1)*%
X56896000Y-33782000D03*
D21*
%TO.P,J3,2*%
%TO.N,GND*%
X56896000Y-36322000D03*
%TD*%
%TO.P,J4,2*%
%TO.N,GND*%
X58420000Y-87884000D03*
D22*
%TO.P,J4,1*%
%TO.N,Net-(J4-Pad1)*%
X58420000Y-90424000D03*
%TD*%
%TO.P,J5,1*%
%TO.N,Net-(J5-Pad1)*%
X27178000Y-24892000D03*
D21*
%TO.P,J5,2*%
%TO.N,Net-(J5-Pad2)*%
X27178000Y-22352000D03*
%TD*%
D23*
%TO.P,J6,1*%
%TO.N,+24V*%
X37338000Y-22860000D03*
D24*
%TO.P,J6,2*%
%TO.N,Net-(J5-Pad2)*%
X32338000Y-22860000D03*
%TD*%
D22*
%TO.P,J7,1*%
%TO.N,Net-(J7-Pad1)*%
X83566000Y-77724000D03*
D21*
%TO.P,J7,2*%
%TO.N,Net-(J7-Pad2)*%
X86106000Y-77724000D03*
%TO.P,J7,3*%
%TO.N,GND*%
X88646000Y-77724000D03*
%TD*%
%TO.P,J8,1*%
%TO.N,Net-(J8-Pad1)*%
%TA.AperFunction,ComponentPad*%
G36*
G01*
X86268000Y-103036000D02*
X87468000Y-103036000D01*
G75*
G02*
X87718000Y-103286000I0J-250000D01*
G01*
X87718000Y-104486000D01*
G75*
G02*
X87468000Y-104736000I-250000J0D01*
G01*
X86268000Y-104736000D01*
G75*
G02*
X86018000Y-104486000I0J250000D01*
G01*
X86018000Y-103286000D01*
G75*
G02*
X86268000Y-103036000I250000J0D01*
G01*
G37*
%TD.AperFunction*%
D25*
%TO.P,J8,3*%
%TO.N,Net-(J8-Pad3)*%
X89408000Y-103886000D03*
%TO.P,J8,5*%
%TO.N,MCUReset*%
X91948000Y-103886000D03*
%TO.P,J8,7*%
%TO.N,Net-(J8-Pad7)*%
X94488000Y-103886000D03*
%TO.P,J8,9*%
%TO.N,Net-(J8-Pad9)*%
X97028000Y-103886000D03*
%TO.P,J8,2*%
%TO.N,Net-(J8-Pad2)*%
X86868000Y-106426000D03*
%TO.P,J8,4*%
%TO.N,GND*%
X89408000Y-106426000D03*
%TO.P,J8,6*%
X91948000Y-106426000D03*
%TO.P,J8,8*%
X94488000Y-106426000D03*
%TO.P,J8,10*%
X97028000Y-106426000D03*
%TD*%
D24*
%TO.P,J9,2*%
%TO.N,Net-(C23-Pad1)*%
X87202000Y-22098000D03*
D23*
%TO.P,J9,1*%
%TO.N,GND*%
X92202000Y-22098000D03*
%TD*%
D22*
%TO.P,J10,1*%
%TO.N,Net-(J10-Pad1)*%
X96647000Y-22225000D03*
D21*
%TO.P,J10,2*%
%TO.N,GND*%
X96647000Y-24765000D03*
%TD*%
D26*
%TO.P,L1,1*%
%TO.N,Net-(C20-Pad1)*%
X89582000Y-58674000D03*
%TO.P,L1,2*%
%TO.N,+5V*%
X84582000Y-58674000D03*
%TD*%
D27*
%TO.P,L2,1*%
%TO.N,Net-(D4-Pad1)*%
X75057000Y-43180000D03*
%TO.P,L2,2*%
%TO.N,Net-(C23-Pad1)*%
X86487000Y-43180000D03*
%TD*%
D28*
%TO.P,Q1,1*%
%TO.N,Net-(Q1-Pad1)*%
X51324000Y-59629000D03*
%TO.P,Q1,2*%
%TO.N,GND*%
X51324000Y-61529000D03*
%TO.P,Q1,3*%
%TO.N,Net-(Q1-Pad3)*%
X53324000Y-60579000D03*
%TD*%
%TO.P,Q2,3*%
%TO.N,Net-(Q1-Pad3)*%
X53308000Y-55687000D03*
%TO.P,Q2,2*%
%TO.N,GND*%
X51308000Y-56637000D03*
%TO.P,Q2,1*%
%TO.N,Net-(Q2-Pad1)*%
X51308000Y-54737000D03*
%TD*%
%TO.P,R1,1*%
%TO.N,Net-(C3-Pad2)*%
%TA.AperFunction,SMDPad,CuDef*%
G36*
G01*
X30676001Y-108543000D02*
X29775999Y-108543000D01*
G75*
G02*
X29526000Y-108293001I0J249999D01*
G01*
X29526000Y-107642999D01*
G75*
G02*
X29775999Y-107393000I249999J0D01*
G01*
X30676001Y-107393000D01*
G75*
G02*
X30926000Y-107642999I0J-249999D01*
G01*
X30926000Y-108293001D01*
G75*
G02*
X30676001Y-108543000I-249999J0D01*
G01*
G37*
%TD.AperFunction*%
%TO.P,R1,2*%
%TO.N,Net-(C1-Pad2)*%
%TA.AperFunction,SMDPad,CuDef*%
G36*
G01*
X30676001Y-106493000D02*
X29775999Y-106493000D01*
G75*
G02*
X29526000Y-106243001I0J249999D01*
G01*
X29526000Y-105592999D01*
G75*
G02*
X29775999Y-105343000I249999J0D01*
G01*
X30676001Y-105343000D01*
G75*
G02*
X30926000Y-105592999I0J-249999D01*
G01*
X30926000Y-106243001D01*
G75*
G02*
X30676001Y-106493000I-249999J0D01*
G01*
G37*
%TD.AperFunction*%
%TD*%
%TO.P,R2,1*%
%TO.N,+5V*%
%TA.AperFunction,SMDPad,CuDef*%
G36*
G01*
X16942000Y-92652001D02*
X16942000Y-91751999D01*
G75*
G02*
X17191999Y-91502000I249999J0D01*
G01*
X17842001Y-91502000D01*
G75*
G02*
X18092000Y-91751999I0J-249999D01*
G01*
X18092000Y-92652001D01*
G75*
G02*
X17842001Y-92902000I-249999J0D01*
G01*
X17191999Y-92902000D01*
G75*
G02*
X16942000Y-92652001I0J249999D01*
G01*
G37*
%TD.AperFunction*%
%TO.P,R2,2*%
%TO.N,Net-(C2-Pad1)*%
%TA.AperFunction,SMDPad,CuDef*%
G36*
G01*
X18992000Y-92652001D02*
X18992000Y-91751999D01*
G75*
G02*
X19241999Y-91502000I249999J0D01*
G01*
X19892001Y-91502000D01*
G75*
G02*
X20142000Y-91751999I0J-249999D01*
G01*
X20142000Y-92652001D01*
G75*
G02*
X19892001Y-92902000I-249999J0D01*
G01*
X19241999Y-92902000D01*
G75*
G02*
X18992000Y-92652001I0J249999D01*
G01*
G37*
%TD.AperFunction*%
%TD*%
%TO.P,R3,2*%
%TO.N,Net-(C3-Pad2)*%
%TA.AperFunction,SMDPad,CuDef*%
G36*
G01*
X31807999Y-107393000D02*
X32708001Y-107393000D01*
G75*
G02*
X32958000Y-107642999I0J-249999D01*
G01*
X32958000Y-108293001D01*
G75*
G02*
X32708001Y-108543000I-249999J0D01*
G01*
X31807999Y-108543000D01*
G75*
G02*
X31558000Y-108293001I0J249999D01*
G01*
X31558000Y-107642999D01*
G75*
G02*
X31807999Y-107393000I249999J0D01*
G01*
G37*
%TD.AperFunction*%
%TO.P,R3,1*%
%TO.N,Net-(R3-Pad1)*%
%TA.AperFunction,SMDPad,CuDef*%
G36*
G01*
X31807999Y-105343000D02*
X32708001Y-105343000D01*
G75*
G02*
X32958000Y-105592999I0J-249999D01*
G01*
X32958000Y-106243001D01*
G75*
G02*
X32708001Y-106493000I-249999J0D01*
G01*
X31807999Y-106493000D01*
G75*
G02*
X31558000Y-106243001I0J249999D01*
G01*
X31558000Y-105592999D01*
G75*
G02*
X31807999Y-105343000I249999J0D01*
G01*
G37*
%TD.AperFunction*%
%TD*%
%TO.P,R4,2*%
%TO.N,Net-(R4-Pad2)*%
%TA.AperFunction,SMDPad,CuDef*%
G36*
G01*
X27227000Y-78289999D02*
X27227000Y-79190001D01*
G75*
G02*
X26977001Y-79440000I-249999J0D01*
G01*
X26326999Y-79440000D01*
G75*
G02*
X26077000Y-79190001I0J249999D01*
G01*
X26077000Y-78289999D01*
G75*
G02*
X26326999Y-78040000I249999J0D01*
G01*
X26977001Y-78040000D01*
G75*
G02*
X27227000Y-78289999I0J-249999D01*
G01*
G37*
%TD.AperFunction*%
%TO.P,R4,1*%
%TO.N,+5V*%
%TA.AperFunction,SMDPad,CuDef*%
G36*
G01*
X29277000Y-78289999D02*
X29277000Y-79190001D01*
G75*
G02*
X29027001Y-79440000I-249999J0D01*
G01*
X28376999Y-79440000D01*
G75*
G02*
X28127000Y-79190001I0J249999D01*
G01*
X28127000Y-78289999D01*
G75*
G02*
X28376999Y-78040000I249999J0D01*
G01*
X29027001Y-78040000D01*
G75*
G02*
X29277000Y-78289999I0J-249999D01*
G01*
G37*
%TD.AperFunction*%
%TD*%
%TO.P,R5,2*%
%TO.N,GND*%
%TA.AperFunction,SMDPad,CuDef*%
G36*
G01*
X47685000Y-96208001D02*
X47685000Y-95307999D01*
G75*
G02*
X47934999Y-95058000I249999J0D01*
G01*
X48585001Y-95058000D01*
G75*
G02*
X48835000Y-95307999I0J-249999D01*
G01*
X48835000Y-96208001D01*
G75*
G02*
X48585001Y-96458000I-249999J0D01*
G01*
X47934999Y-96458000D01*
G75*
G02*
X47685000Y-96208001I0J249999D01*
G01*
G37*
%TD.AperFunction*%
%TO.P,R5,1*%
%TO.N,Net-(C5-Pad1)*%
%TA.AperFunction,SMDPad,CuDef*%
G36*
G01*
X45635000Y-96208001D02*
X45635000Y-95307999D01*
G75*
G02*
X45884999Y-95058000I249999J0D01*
G01*
X46535001Y-95058000D01*
G75*
G02*
X46785000Y-95307999I0J-249999D01*
G01*
X46785000Y-96208001D01*
G75*
G02*
X46535001Y-96458000I-249999J0D01*
G01*
X45884999Y-96458000D01*
G75*
G02*
X45635000Y-96208001I0J249999D01*
G01*
G37*
%TD.AperFunction*%
%TD*%
%TO.P,R7,2*%
%TO.N,GND*%
%TA.AperFunction,SMDPad,CuDef*%
G36*
G01*
X19615999Y-84270000D02*
X20516001Y-84270000D01*
G75*
G02*
X20766000Y-84519999I0J-249999D01*
G01*
X20766000Y-85170001D01*
G75*
G02*
X20516001Y-85420000I-249999J0D01*
G01*
X19615999Y-85420000D01*
G75*
G02*
X19366000Y-85170001I0J249999D01*
G01*
X19366000Y-84519999D01*
G75*
G02*
X19615999Y-84270000I249999J0D01*
G01*
G37*
%TD.AperFunction*%
%TO.P,R7,1*%
%TO.N,Net-(R4-Pad2)*%
%TA.AperFunction,SMDPad,CuDef*%
G36*
G01*
X19615999Y-82220000D02*
X20516001Y-82220000D01*
G75*
G02*
X20766000Y-82469999I0J-249999D01*
G01*
X20766000Y-83120001D01*
G75*
G02*
X20516001Y-83370000I-249999J0D01*
G01*
X19615999Y-83370000D01*
G75*
G02*
X19366000Y-83120001I0J249999D01*
G01*
X19366000Y-82469999D01*
G75*
G02*
X19615999Y-82220000I249999J0D01*
G01*
G37*
%TD.AperFunction*%
%TD*%
%TO.P,R8,2*%
%TO.N,Temperature*%
%TA.AperFunction,SMDPad,CuDef*%
G36*
G01*
X23417000Y-78289999D02*
X23417000Y-79190001D01*
G75*
G02*
X23167001Y-79440000I-249999J0D01*
G01*
X22516999Y-79440000D01*
G75*
G02*
X22267000Y-79190001I0J249999D01*
G01*
X22267000Y-78289999D01*
G75*
G02*
X22516999Y-78040000I249999J0D01*
G01*
X23167001Y-78040000D01*
G75*
G02*
X23417000Y-78289999I0J-249999D01*
G01*
G37*
%TD.AperFunction*%
%TO.P,R8,1*%
%TO.N,Net-(R11-Pad2)*%
%TA.AperFunction,SMDPad,CuDef*%
G36*
G01*
X25467000Y-78289999D02*
X25467000Y-79190001D01*
G75*
G02*
X25217001Y-79440000I-249999J0D01*
G01*
X24566999Y-79440000D01*
G75*
G02*
X24317000Y-79190001I0J249999D01*
G01*
X24317000Y-78289999D01*
G75*
G02*
X24566999Y-78040000I249999J0D01*
G01*
X25217001Y-78040000D01*
G75*
G02*
X25467000Y-78289999I0J-249999D01*
G01*
G37*
%TD.AperFunction*%
%TD*%
%TO.P,R9,1*%
%TO.N,Net-(R9-Pad1)*%
%TA.AperFunction,SMDPad,CuDef*%
G36*
G01*
X31157000Y-89096001D02*
X31157000Y-88195999D01*
G75*
G02*
X31406999Y-87946000I249999J0D01*
G01*
X32057001Y-87946000D01*
G75*
G02*
X32307000Y-88195999I0J-249999D01*
G01*
X32307000Y-89096001D01*
G75*
G02*
X32057001Y-89346000I-249999J0D01*
G01*
X31406999Y-89346000D01*
G75*
G02*
X31157000Y-89096001I0J249999D01*
G01*
G37*
%TD.AperFunction*%
%TO.P,R9,2*%
%TO.N,Net-(R10-Pad1)*%
%TA.AperFunction,SMDPad,CuDef*%
G36*
G01*
X33207000Y-89096001D02*
X33207000Y-88195999D01*
G75*
G02*
X33456999Y-87946000I249999J0D01*
G01*
X34107001Y-87946000D01*
G75*
G02*
X34357000Y-88195999I0J-249999D01*
G01*
X34357000Y-89096001D01*
G75*
G02*
X34107001Y-89346000I-249999J0D01*
G01*
X33456999Y-89346000D01*
G75*
G02*
X33207000Y-89096001I0J249999D01*
G01*
G37*
%TD.AperFunction*%
%TD*%
%TO.P,R10,2*%
%TO.N,GND*%
%TA.AperFunction,SMDPad,CuDef*%
G36*
G01*
X19117000Y-93783999D02*
X19117000Y-94684001D01*
G75*
G02*
X18867001Y-94934000I-249999J0D01*
G01*
X18216999Y-94934000D01*
G75*
G02*
X17967000Y-94684001I0J249999D01*
G01*
X17967000Y-93783999D01*
G75*
G02*
X18216999Y-93534000I249999J0D01*
G01*
X18867001Y-93534000D01*
G75*
G02*
X19117000Y-93783999I0J-249999D01*
G01*
G37*
%TD.AperFunction*%
%TO.P,R10,1*%
%TO.N,Net-(R10-Pad1)*%
%TA.AperFunction,SMDPad,CuDef*%
G36*
G01*
X21167000Y-93783999D02*
X21167000Y-94684001D01*
G75*
G02*
X20917001Y-94934000I-249999J0D01*
G01*
X20266999Y-94934000D01*
G75*
G02*
X20017000Y-94684001I0J249999D01*
G01*
X20017000Y-93783999D01*
G75*
G02*
X20266999Y-93534000I249999J0D01*
G01*
X20917001Y-93534000D01*
G75*
G02*
X21167000Y-93783999I0J-249999D01*
G01*
G37*
%TD.AperFunction*%
%TD*%
%TO.P,R11,1*%
%TO.N,Net-(R11-Pad1)*%
%TA.AperFunction,SMDPad,CuDef*%
G36*
G01*
X31807999Y-81848000D02*
X32708001Y-81848000D01*
G75*
G02*
X32958000Y-82097999I0J-249999D01*
G01*
X32958000Y-82748001D01*
G75*
G02*
X32708001Y-82998000I-249999J0D01*
G01*
X31807999Y-82998000D01*
G75*
G02*
X31558000Y-82748001I0J249999D01*
G01*
X31558000Y-82097999D01*
G75*
G02*
X31807999Y-81848000I249999J0D01*
G01*
G37*
%TD.AperFunction*%
%TO.P,R11,2*%
%TO.N,Net-(R11-Pad2)*%
%TA.AperFunction,SMDPad,CuDef*%
G36*
G01*
X31807999Y-83898000D02*
X32708001Y-83898000D01*
G75*
G02*
X32958000Y-84147999I0J-249999D01*
G01*
X32958000Y-84798001D01*
G75*
G02*
X32708001Y-85048000I-249999J0D01*
G01*
X31807999Y-85048000D01*
G75*
G02*
X31558000Y-84798001I0J249999D01*
G01*
X31558000Y-84147999D01*
G75*
G02*
X31807999Y-83898000I249999J0D01*
G01*
G37*
%TD.AperFunction*%
%TD*%
%TO.P,R12,1*%
%TO.N,Net-(D2-Pad1)*%
%TA.AperFunction,SMDPad,CuDef*%
G36*
G01*
X36010001Y-108534000D02*
X35109999Y-108534000D01*
G75*
G02*
X34860000Y-108284001I0J249999D01*
G01*
X34860000Y-107633999D01*
G75*
G02*
X35109999Y-107384000I249999J0D01*
G01*
X36010001Y-107384000D01*
G75*
G02*
X36260000Y-107633999I0J-249999D01*
G01*
X36260000Y-108284001D01*
G75*
G02*
X36010001Y-108534000I-249999J0D01*
G01*
G37*
%TD.AperFunction*%
%TO.P,R12,2*%
%TO.N,Net-(R12-Pad2)*%
%TA.AperFunction,SMDPad,CuDef*%
G36*
G01*
X36010001Y-106484000D02*
X35109999Y-106484000D01*
G75*
G02*
X34860000Y-106234001I0J249999D01*
G01*
X34860000Y-105583999D01*
G75*
G02*
X35109999Y-105334000I249999J0D01*
G01*
X36010001Y-105334000D01*
G75*
G02*
X36260000Y-105583999I0J-249999D01*
G01*
X36260000Y-106234001D01*
G75*
G02*
X36010001Y-106484000I-249999J0D01*
G01*
G37*
%TD.AperFunction*%
%TD*%
%TO.P,R13,1*%
%TO.N,Net-(J4-Pad1)*%
%TA.AperFunction,SMDPad,CuDef*%
G36*
G01*
X56963000Y-89973999D02*
X56963000Y-90874001D01*
G75*
G02*
X56713001Y-91124000I-249999J0D01*
G01*
X56062999Y-91124000D01*
G75*
G02*
X55813000Y-90874001I0J249999D01*
G01*
X55813000Y-89973999D01*
G75*
G02*
X56062999Y-89724000I249999J0D01*
G01*
X56713001Y-89724000D01*
G75*
G02*
X56963000Y-89973999I0J-249999D01*
G01*
G37*
%TD.AperFunction*%
%TO.P,R13,2*%
%TO.N,Net-(R13-Pad2)*%
%TA.AperFunction,SMDPad,CuDef*%
G36*
G01*
X54913000Y-89973999D02*
X54913000Y-90874001D01*
G75*
G02*
X54663001Y-91124000I-249999J0D01*
G01*
X54012999Y-91124000D01*
G75*
G02*
X53763000Y-90874001I0J249999D01*
G01*
X53763000Y-89973999D01*
G75*
G02*
X54012999Y-89724000I249999J0D01*
G01*
X54663001Y-89724000D01*
G75*
G02*
X54913000Y-89973999I0J-249999D01*
G01*
G37*
%TD.AperFunction*%
%TD*%
%TO.P,R14,1*%
%TO.N,Net-(Q1-Pad1)*%
%TA.AperFunction,SMDPad,CuDef*%
G36*
G01*
X48073000Y-59366999D02*
X48073000Y-60267001D01*
G75*
G02*
X47823001Y-60517000I-249999J0D01*
G01*
X47172999Y-60517000D01*
G75*
G02*
X46923000Y-60267001I0J249999D01*
G01*
X46923000Y-59366999D01*
G75*
G02*
X47172999Y-59117000I249999J0D01*
G01*
X47823001Y-59117000D01*
G75*
G02*
X48073000Y-59366999I0J-249999D01*
G01*
G37*
%TD.AperFunction*%
%TO.P,R14,2*%
%TO.N,Net-(R11-Pad1)*%
%TA.AperFunction,SMDPad,CuDef*%
G36*
G01*
X46023000Y-59366999D02*
X46023000Y-60267001D01*
G75*
G02*
X45773001Y-60517000I-249999J0D01*
G01*
X45122999Y-60517000D01*
G75*
G02*
X44873000Y-60267001I0J249999D01*
G01*
X44873000Y-59366999D01*
G75*
G02*
X45122999Y-59117000I249999J0D01*
G01*
X45773001Y-59117000D01*
G75*
G02*
X46023000Y-59366999I0J-249999D01*
G01*
G37*
%TD.AperFunction*%
%TD*%
%TO.P,R15,2*%
%TO.N,Net-(J3-Pad1)*%
%TA.AperFunction,SMDPad,CuDef*%
G36*
G01*
X56445999Y-29914000D02*
X57346001Y-29914000D01*
G75*
G02*
X57596000Y-30163999I0J-249999D01*
G01*
X57596000Y-30814001D01*
G75*
G02*
X57346001Y-31064000I-249999J0D01*
G01*
X56445999Y-31064000D01*
G75*
G02*
X56196000Y-30814001I0J249999D01*
G01*
X56196000Y-30163999D01*
G75*
G02*
X56445999Y-29914000I249999J0D01*
G01*
G37*
%TD.AperFunction*%
%TO.P,R15,1*%
%TO.N,+24V*%
%TA.AperFunction,SMDPad,CuDef*%
G36*
G01*
X56445999Y-27864000D02*
X57346001Y-27864000D01*
G75*
G02*
X57596000Y-28113999I0J-249999D01*
G01*
X57596000Y-28764001D01*
G75*
G02*
X57346001Y-29014000I-249999J0D01*
G01*
X56445999Y-29014000D01*
G75*
G02*
X56196000Y-28764001I0J249999D01*
G01*
X56196000Y-28113999D01*
G75*
G02*
X56445999Y-27864000I249999J0D01*
G01*
G37*
%TD.AperFunction*%
%TD*%
%TO.P,R16,2*%
%TO.N,GND*%
%TA.AperFunction,SMDPad,CuDef*%
G36*
G01*
X49079999Y-61274000D02*
X49980001Y-61274000D01*
G75*
G02*
X50230000Y-61523999I0J-249999D01*
G01*
X50230000Y-62174001D01*
G75*
G02*
X49980001Y-62424000I-249999J0D01*
G01*
X49079999Y-62424000D01*
G75*
G02*
X48830000Y-62174001I0J249999D01*
G01*
X48830000Y-61523999D01*
G75*
G02*
X49079999Y-61274000I249999J0D01*
G01*
G37*
%TD.AperFunction*%
%TO.P,R16,1*%
%TO.N,Net-(Q1-Pad1)*%
%TA.AperFunction,SMDPad,CuDef*%
G36*
G01*
X49079999Y-59224000D02*
X49980001Y-59224000D01*
G75*
G02*
X50230000Y-59473999I0J-249999D01*
G01*
X50230000Y-60124001D01*
G75*
G02*
X49980001Y-60374000I-249999J0D01*
G01*
X49079999Y-60374000D01*
G75*
G02*
X48830000Y-60124001I0J249999D01*
G01*
X48830000Y-59473999D01*
G75*
G02*
X49079999Y-59224000I249999J0D01*
G01*
G37*
%TD.AperFunction*%
%TD*%
%TO.P,R17,1*%
%TO.N,Net-(Q2-Pad1)*%
%TA.AperFunction,SMDPad,CuDef*%
G36*
G01*
X48073000Y-54286999D02*
X48073000Y-55187001D01*
G75*
G02*
X47823001Y-55437000I-249999J0D01*
G01*
X47172999Y-55437000D01*
G75*
G02*
X46923000Y-55187001I0J249999D01*
G01*
X46923000Y-54286999D01*
G75*
G02*
X47172999Y-54037000I249999J0D01*
G01*
X47823001Y-54037000D01*
G75*
G02*
X48073000Y-54286999I0J-249999D01*
G01*
G37*
%TD.AperFunction*%
%TO.P,R17,2*%
%TO.N,HeatOFF*%
%TA.AperFunction,SMDPad,CuDef*%
G36*
G01*
X46023000Y-54286999D02*
X46023000Y-55187001D01*
G75*
G02*
X45773001Y-55437000I-249999J0D01*
G01*
X45122999Y-55437000D01*
G75*
G02*
X44873000Y-55187001I0J249999D01*
G01*
X44873000Y-54286999D01*
G75*
G02*
X45122999Y-54037000I249999J0D01*
G01*
X45773001Y-54037000D01*
G75*
G02*
X46023000Y-54286999I0J-249999D01*
G01*
G37*
%TD.AperFunction*%
%TD*%
%TO.P,R18,2*%
%TO.N,Net-(Q1-Pad3)*%
%TA.AperFunction,SMDPad,CuDef*%
G36*
G01*
X56183000Y-55302999D02*
X56183000Y-56203001D01*
G75*
G02*
X55933001Y-56453000I-249999J0D01*
G01*
X55282999Y-56453000D01*
G75*
G02*
X55033000Y-56203001I0J249999D01*
G01*
X55033000Y-55302999D01*
G75*
G02*
X55282999Y-55053000I249999J0D01*
G01*
X55933001Y-55053000D01*
G75*
G02*
X56183000Y-55302999I0J-249999D01*
G01*
G37*
%TD.AperFunction*%
%TO.P,R18,1*%
%TO.N,+5V*%
%TA.AperFunction,SMDPad,CuDef*%
G36*
G01*
X58233000Y-55302999D02*
X58233000Y-56203001D01*
G75*
G02*
X57983001Y-56453000I-249999J0D01*
G01*
X57332999Y-56453000D01*
G75*
G02*
X57083000Y-56203001I0J249999D01*
G01*
X57083000Y-55302999D01*
G75*
G02*
X57332999Y-55053000I249999J0D01*
G01*
X57983001Y-55053000D01*
G75*
G02*
X58233000Y-55302999I0J-249999D01*
G01*
G37*
%TD.AperFunction*%
%TD*%
%TO.P,R19,1*%
%TO.N,Net-(Q2-Pad1)*%
%TA.AperFunction,SMDPad,CuDef*%
G36*
G01*
X49079999Y-54144000D02*
X49980001Y-54144000D01*
G75*
G02*
X50230000Y-54393999I0J-249999D01*
G01*
X50230000Y-55044001D01*
G75*
G02*
X49980001Y-55294000I-249999J0D01*
G01*
X49079999Y-55294000D01*
G75*
G02*
X48830000Y-55044001I0J249999D01*
G01*
X48830000Y-54393999D01*
G75*
G02*
X49079999Y-54144000I249999J0D01*
G01*
G37*
%TD.AperFunction*%
%TO.P,R19,2*%
%TO.N,GND*%
%TA.AperFunction,SMDPad,CuDef*%
G36*
G01*
X49079999Y-56194000D02*
X49980001Y-56194000D01*
G75*
G02*
X50230000Y-56443999I0J-249999D01*
G01*
X50230000Y-57094001D01*
G75*
G02*
X49980001Y-57344000I-249999J0D01*
G01*
X49079999Y-57344000D01*
G75*
G02*
X48830000Y-57094001I0J249999D01*
G01*
X48830000Y-56443999D01*
G75*
G02*
X49079999Y-56194000I249999J0D01*
G01*
G37*
%TD.AperFunction*%
%TD*%
%TO.P,R20,2*%
%TO.N,Net-(Q1-Pad3)*%
%TA.AperFunction,SMDPad,CuDef*%
G36*
G01*
X29394999Y-55559000D02*
X30295001Y-55559000D01*
G75*
G02*
X30545000Y-55808999I0J-249999D01*
G01*
X30545000Y-56459001D01*
G75*
G02*
X30295001Y-56709000I-249999J0D01*
G01*
X29394999Y-56709000D01*
G75*
G02*
X29145000Y-56459001I0J249999D01*
G01*
X29145000Y-55808999D01*
G75*
G02*
X29394999Y-55559000I249999J0D01*
G01*
G37*
%TD.AperFunction*%
%TO.P,R20,1*%
%TO.N,Net-(Q3-Pad1)*%
%TA.AperFunction,SMDPad,CuDef*%
G36*
G01*
X29394999Y-53509000D02*
X30295001Y-53509000D01*
G75*
G02*
X30545000Y-53758999I0J-249999D01*
G01*
X30545000Y-54409001D01*
G75*
G02*
X30295001Y-54659000I-249999J0D01*
G01*
X29394999Y-54659000D01*
G75*
G02*
X29145000Y-54409001I0J249999D01*
G01*
X29145000Y-53758999D01*
G75*
G02*
X29394999Y-53509000I249999J0D01*
G01*
G37*
%TD.AperFunction*%
%TD*%
%TO.P,R21,1*%
%TO.N,+24V*%
%TA.AperFunction,SMDPad,CuDef*%
G36*
G01*
X23489499Y-22276000D02*
X24389501Y-22276000D01*
G75*
G02*
X24639500Y-22525999I0J-249999D01*
G01*
X24639500Y-23176001D01*
G75*
G02*
X24389501Y-23426000I-249999J0D01*
G01*
X23489499Y-23426000D01*
G75*
G02*
X23239500Y-23176001I0J249999D01*
G01*
X23239500Y-22525999D01*
G75*
G02*
X23489499Y-22276000I249999J0D01*
G01*
G37*
%TD.AperFunction*%
%TO.P,R21,2*%
%TO.N,Net-(J5-Pad1)*%
%TA.AperFunction,SMDPad,CuDef*%
G36*
G01*
X23489499Y-24326000D02*
X24389501Y-24326000D01*
G75*
G02*
X24639500Y-24575999I0J-249999D01*
G01*
X24639500Y-25226001D01*
G75*
G02*
X24389501Y-25476000I-249999J0D01*
G01*
X23489499Y-25476000D01*
G75*
G02*
X23239500Y-25226001I0J249999D01*
G01*
X23239500Y-24575999D01*
G75*
G02*
X23489499Y-24326000I249999J0D01*
G01*
G37*
%TD.AperFunction*%
%TD*%
%TO.P,R22,2*%
%TO.N,MCUReset*%
%TA.AperFunction,SMDPad,CuDef*%
G36*
G01*
X95945000Y-94938001D02*
X95945000Y-94037999D01*
G75*
G02*
X96194999Y-93788000I249999J0D01*
G01*
X96845001Y-93788000D01*
G75*
G02*
X97095000Y-94037999I0J-249999D01*
G01*
X97095000Y-94938001D01*
G75*
G02*
X96845001Y-95188000I-249999J0D01*
G01*
X96194999Y-95188000D01*
G75*
G02*
X95945000Y-94938001I0J249999D01*
G01*
G37*
%TD.AperFunction*%
%TO.P,R22,1*%
%TO.N,+5V*%
%TA.AperFunction,SMDPad,CuDef*%
G36*
G01*
X93895000Y-94938001D02*
X93895000Y-94037999D01*
G75*
G02*
X94144999Y-93788000I249999J0D01*
G01*
X94795001Y-93788000D01*
G75*
G02*
X95045000Y-94037999I0J-249999D01*
G01*
X95045000Y-94938001D01*
G75*
G02*
X94795001Y-95188000I-249999J0D01*
G01*
X94144999Y-95188000D01*
G75*
G02*
X93895000Y-94938001I0J249999D01*
G01*
G37*
%TD.AperFunction*%
%TD*%
%TO.P,R23,2*%
%TO.N,Net-(R23-Pad2)*%
%TA.AperFunction,SMDPad,CuDef*%
G36*
G01*
X97466999Y-46986500D02*
X98367001Y-46986500D01*
G75*
G02*
X98617000Y-47236499I0J-249999D01*
G01*
X98617000Y-47886501D01*
G75*
G02*
X98367001Y-48136500I-249999J0D01*
G01*
X97466999Y-48136500D01*
G75*
G02*
X97217000Y-47886501I0J249999D01*
G01*
X97217000Y-47236499D01*
G75*
G02*
X97466999Y-46986500I249999J0D01*
G01*
G37*
%TD.AperFunction*%
%TO.P,R23,1*%
%TO.N,Net-(R23-Pad1)*%
%TA.AperFunction,SMDPad,CuDef*%
G36*
G01*
X97466999Y-44936500D02*
X98367001Y-44936500D01*
G75*
G02*
X98617000Y-45186499I0J-249999D01*
G01*
X98617000Y-45836501D01*
G75*
G02*
X98367001Y-46086500I-249999J0D01*
G01*
X97466999Y-46086500D01*
G75*
G02*
X97217000Y-45836501I0J249999D01*
G01*
X97217000Y-45186499D01*
G75*
G02*
X97466999Y-44936500I249999J0D01*
G01*
G37*
%TD.AperFunction*%
%TD*%
%TO.P,R24,1*%
%TO.N,Net-(R23-Pad1)*%
%TA.AperFunction,SMDPad,CuDef*%
G36*
G01*
X100272001Y-34620000D02*
X99371999Y-34620000D01*
G75*
G02*
X99122000Y-34370001I0J249999D01*
G01*
X99122000Y-33719999D01*
G75*
G02*
X99371999Y-33470000I249999J0D01*
G01*
X100272001Y-33470000D01*
G75*
G02*
X100522000Y-33719999I0J-249999D01*
G01*
X100522000Y-34370001D01*
G75*
G02*
X100272001Y-34620000I-249999J0D01*
G01*
G37*
%TD.AperFunction*%
%TO.P,R24,2*%
%TO.N,GND*%
%TA.AperFunction,SMDPad,CuDef*%
G36*
G01*
X100272001Y-32570000D02*
X99371999Y-32570000D01*
G75*
G02*
X99122000Y-32320001I0J249999D01*
G01*
X99122000Y-31669999D01*
G75*
G02*
X99371999Y-31420000I249999J0D01*
G01*
X100272001Y-31420000D01*
G75*
G02*
X100522000Y-31669999I0J-249999D01*
G01*
X100522000Y-32320001D01*
G75*
G02*
X100272001Y-32570000I-249999J0D01*
G01*
G37*
%TD.AperFunction*%
%TD*%
%TO.P,R25,2*%
%TO.N,Net-(C23-Pad1)*%
%TA.AperFunction,SMDPad,CuDef*%
G36*
G01*
X100907001Y-18600000D02*
X100006999Y-18600000D01*
G75*
G02*
X99757000Y-18350001I0J249999D01*
G01*
X99757000Y-17699999D01*
G75*
G02*
X100006999Y-17450000I249999J0D01*
G01*
X100907001Y-17450000D01*
G75*
G02*
X101157000Y-17699999I0J-249999D01*
G01*
X101157000Y-18350001D01*
G75*
G02*
X100907001Y-18600000I-249999J0D01*
G01*
G37*
%TD.AperFunction*%
%TO.P,R25,1*%
%TO.N,Net-(D6-Pad1)*%
%TA.AperFunction,SMDPad,CuDef*%
G36*
G01*
X100907001Y-20650000D02*
X100006999Y-20650000D01*
G75*
G02*
X99757000Y-20400001I0J249999D01*
G01*
X99757000Y-19749999D01*
G75*
G02*
X100006999Y-19500000I249999J0D01*
G01*
X100907001Y-19500000D01*
G75*
G02*
X101157000Y-19749999I0J-249999D01*
G01*
X101157000Y-20400001D01*
G75*
G02*
X100907001Y-20650000I-249999J0D01*
G01*
G37*
%TD.AperFunction*%
%TD*%
%TO.P,R26,1*%
%TO.N,Net-(J10-Pad1)*%
%TA.AperFunction,SMDPad,CuDef*%
G36*
G01*
X97097001Y-20015000D02*
X96196999Y-20015000D01*
G75*
G02*
X95947000Y-19765001I0J249999D01*
G01*
X95947000Y-19114999D01*
G75*
G02*
X96196999Y-18865000I249999J0D01*
G01*
X97097001Y-18865000D01*
G75*
G02*
X97347000Y-19114999I0J-249999D01*
G01*
X97347000Y-19765001D01*
G75*
G02*
X97097001Y-20015000I-249999J0D01*
G01*
G37*
%TD.AperFunction*%
%TO.P,R26,2*%
%TO.N,Net-(D6-Pad1)*%
%TA.AperFunction,SMDPad,CuDef*%
G36*
G01*
X97097001Y-17965000D02*
X96196999Y-17965000D01*
G75*
G02*
X95947000Y-17715001I0J249999D01*
G01*
X95947000Y-17064999D01*
G75*
G02*
X96196999Y-16815000I249999J0D01*
G01*
X97097001Y-16815000D01*
G75*
G02*
X97347000Y-17064999I0J-249999D01*
G01*
X97347000Y-17715001D01*
G75*
G02*
X97097001Y-17965000I-249999J0D01*
G01*
G37*
%TD.AperFunction*%
%TD*%
D14*
%TO.P,RV1,1*%
%TO.N,+5V*%
X26924000Y-90678000D03*
%TO.P,RV1,2*%
X29464000Y-90678000D03*
%TO.P,RV1,3*%
%TO.N,Net-(R9-Pad1)*%
X32004000Y-90678000D03*
%TD*%
%TO.P,U1,14*%
%TO.N,+5V*%
%TA.AperFunction,SMDPad,CuDef*%
G36*
G01*
X30884000Y-99781000D02*
X30584000Y-99781000D01*
G75*
G02*
X30434000Y-99631000I0J150000D01*
G01*
X30434000Y-97981000D01*
G75*
G02*
X30584000Y-97831000I150000J0D01*
G01*
X30884000Y-97831000D01*
G75*
G02*
X31034000Y-97981000I0J-150000D01*
G01*
X31034000Y-99631000D01*
G75*
G02*
X30884000Y-99781000I-150000J0D01*
G01*
G37*
%TD.AperFunction*%
%TO.P,U1,13*%
%TA.AperFunction,SMDPad,CuDef*%
G36*
G01*
X32154000Y-99781000D02*
X31854000Y-99781000D01*
G75*
G02*
X31704000Y-99631000I0J150000D01*
G01*
X31704000Y-97981000D01*
G75*
G02*
X31854000Y-97831000I150000J0D01*
G01*
X32154000Y-97831000D01*
G75*
G02*
X32304000Y-97981000I0J-150000D01*
G01*
X32304000Y-99631000D01*
G75*
G02*
X32154000Y-99781000I-150000J0D01*
G01*
G37*
%TD.AperFunction*%
%TO.P,U1,12*%
%TO.N,Net-(U1-Pad12)*%
%TA.AperFunction,SMDPad,CuDef*%
G36*
G01*
X33424000Y-99781000D02*
X33124000Y-99781000D01*
G75*
G02*
X32974000Y-99631000I0J150000D01*
G01*
X32974000Y-97981000D01*
G75*
G02*
X33124000Y-97831000I150000J0D01*
G01*
X33424000Y-97831000D01*
G75*
G02*
X33574000Y-97981000I0J-150000D01*
G01*
X33574000Y-99631000D01*
G75*
G02*
X33424000Y-99781000I-150000J0D01*
G01*
G37*
%TD.AperFunction*%
%TO.P,U1,11*%
%TO.N,+5V*%
%TA.AperFunction,SMDPad,CuDef*%
G36*
G01*
X34694000Y-99781000D02*
X34394000Y-99781000D01*
G75*
G02*
X34244000Y-99631000I0J150000D01*
G01*
X34244000Y-97981000D01*
G75*
G02*
X34394000Y-97831000I150000J0D01*
G01*
X34694000Y-97831000D01*
G75*
G02*
X34844000Y-97981000I0J-150000D01*
G01*
X34844000Y-99631000D01*
G75*
G02*
X34694000Y-99781000I-150000J0D01*
G01*
G37*
%TD.AperFunction*%
%TO.P,U1,10*%
%TO.N,Net-(U1-Pad10)*%
%TA.AperFunction,SMDPad,CuDef*%
G36*
G01*
X35964000Y-99781000D02*
X35664000Y-99781000D01*
G75*
G02*
X35514000Y-99631000I0J150000D01*
G01*
X35514000Y-97981000D01*
G75*
G02*
X35664000Y-97831000I150000J0D01*
G01*
X35964000Y-97831000D01*
G75*
G02*
X36114000Y-97981000I0J-150000D01*
G01*
X36114000Y-99631000D01*
G75*
G02*
X35964000Y-99781000I-150000J0D01*
G01*
G37*
%TD.AperFunction*%
%TO.P,U1,9*%
%TO.N,Net-(U1-Pad9)*%
%TA.AperFunction,SMDPad,CuDef*%
G36*
G01*
X37234000Y-99781000D02*
X36934000Y-99781000D01*
G75*
G02*
X36784000Y-99631000I0J150000D01*
G01*
X36784000Y-97981000D01*
G75*
G02*
X36934000Y-97831000I150000J0D01*
G01*
X37234000Y-97831000D01*
G75*
G02*
X37384000Y-97981000I0J-150000D01*
G01*
X37384000Y-99631000D01*
G75*
G02*
X37234000Y-99781000I-150000J0D01*
G01*
G37*
%TD.AperFunction*%
%TO.P,U1,8*%
%TO.N,PL_ON*%
%TA.AperFunction,SMDPad,CuDef*%
G36*
G01*
X38504000Y-99781000D02*
X38204000Y-99781000D01*
G75*
G02*
X38054000Y-99631000I0J150000D01*
G01*
X38054000Y-97981000D01*
G75*
G02*
X38204000Y-97831000I150000J0D01*
G01*
X38504000Y-97831000D01*
G75*
G02*
X38654000Y-97981000I0J-150000D01*
G01*
X38654000Y-99631000D01*
G75*
G02*
X38504000Y-99781000I-150000J0D01*
G01*
G37*
%TD.AperFunction*%
%TO.P,U1,7*%
%TO.N,GND*%
%TA.AperFunction,SMDPad,CuDef*%
G36*
G01*
X38504000Y-104731000D02*
X38204000Y-104731000D01*
G75*
G02*
X38054000Y-104581000I0J150000D01*
G01*
X38054000Y-102931000D01*
G75*
G02*
X38204000Y-102781000I150000J0D01*
G01*
X38504000Y-102781000D01*
G75*
G02*
X38654000Y-102931000I0J-150000D01*
G01*
X38654000Y-104581000D01*
G75*
G02*
X38504000Y-104731000I-150000J0D01*
G01*
G37*
%TD.AperFunction*%
%TO.P,U1,6*%
%TO.N,Net-(R12-Pad2)*%
%TA.AperFunction,SMDPad,CuDef*%
G36*
G01*
X37234000Y-104731000D02*
X36934000Y-104731000D01*
G75*
G02*
X36784000Y-104581000I0J150000D01*
G01*
X36784000Y-102931000D01*
G75*
G02*
X36934000Y-102781000I150000J0D01*
G01*
X37234000Y-102781000D01*
G75*
G02*
X37384000Y-102931000I0J-150000D01*
G01*
X37384000Y-104581000D01*
G75*
G02*
X37234000Y-104731000I-150000J0D01*
G01*
G37*
%TD.AperFunction*%
%TO.P,U1,5*%
%TO.N,Net-(U1-Pad5)*%
%TA.AperFunction,SMDPad,CuDef*%
G36*
G01*
X35964000Y-104731000D02*
X35664000Y-104731000D01*
G75*
G02*
X35514000Y-104581000I0J150000D01*
G01*
X35514000Y-102931000D01*
G75*
G02*
X35664000Y-102781000I150000J0D01*
G01*
X35964000Y-102781000D01*
G75*
G02*
X36114000Y-102931000I0J-150000D01*
G01*
X36114000Y-104581000D01*
G75*
G02*
X35964000Y-104731000I-150000J0D01*
G01*
G37*
%TD.AperFunction*%
%TO.P,U1,4*%
%TO.N,Net-(C1-Pad1)*%
%TA.AperFunction,SMDPad,CuDef*%
G36*
G01*
X34694000Y-104731000D02*
X34394000Y-104731000D01*
G75*
G02*
X34244000Y-104581000I0J150000D01*
G01*
X34244000Y-102931000D01*
G75*
G02*
X34394000Y-102781000I150000J0D01*
G01*
X34694000Y-102781000D01*
G75*
G02*
X34844000Y-102931000I0J-150000D01*
G01*
X34844000Y-104581000D01*
G75*
G02*
X34694000Y-104731000I-150000J0D01*
G01*
G37*
%TD.AperFunction*%
%TO.P,U1,3*%
%TO.N,Net-(R3-Pad1)*%
%TA.AperFunction,SMDPad,CuDef*%
G36*
G01*
X33424000Y-104731000D02*
X33124000Y-104731000D01*
G75*
G02*
X32974000Y-104581000I0J150000D01*
G01*
X32974000Y-102931000D01*
G75*
G02*
X33124000Y-102781000I150000J0D01*
G01*
X33424000Y-102781000D01*
G75*
G02*
X33574000Y-102931000I0J-150000D01*
G01*
X33574000Y-104581000D01*
G75*
G02*
X33424000Y-104731000I-150000J0D01*
G01*
G37*
%TD.AperFunction*%
%TO.P,U1,2*%
%TA.AperFunction,SMDPad,CuDef*%
G36*
G01*
X32154000Y-104731000D02*
X31854000Y-104731000D01*
G75*
G02*
X31704000Y-104581000I0J150000D01*
G01*
X31704000Y-102931000D01*
G75*
G02*
X31854000Y-102781000I150000J0D01*
G01*
X32154000Y-102781000D01*
G75*
G02*
X32304000Y-102931000I0J-150000D01*
G01*
X32304000Y-104581000D01*
G75*
G02*
X32154000Y-104731000I-150000J0D01*
G01*
G37*
%TD.AperFunction*%
%TO.P,U1,1*%
%TO.N,Net-(C1-Pad2)*%
%TA.AperFunction,SMDPad,CuDef*%
G36*
G01*
X30884000Y-104731000D02*
X30584000Y-104731000D01*
G75*
G02*
X30434000Y-104581000I0J150000D01*
G01*
X30434000Y-102931000D01*
G75*
G02*
X30584000Y-102781000I150000J0D01*
G01*
X30884000Y-102781000D01*
G75*
G02*
X31034000Y-102931000I0J-150000D01*
G01*
X31034000Y-104581000D01*
G75*
G02*
X30884000Y-104731000I-150000J0D01*
G01*
G37*
%TD.AperFunction*%
%TD*%
%TO.P,U2,1*%
%TO.N,MCUHeatOff*%
%TA.AperFunction,SMDPad,CuDef*%
G36*
G01*
X60304000Y-94130000D02*
X60304000Y-93830000D01*
G75*
G02*
X60454000Y-93680000I150000J0D01*
G01*
X62104000Y-93680000D01*
G75*
G02*
X62254000Y-93830000I0J-150000D01*
G01*
X62254000Y-94130000D01*
G75*
G02*
X62104000Y-94280000I-150000J0D01*
G01*
X60454000Y-94280000D01*
G75*
G02*
X60304000Y-94130000I0J150000D01*
G01*
G37*
%TD.AperFunction*%
%TO.P,U2,2*%
%TO.N,Net-(U2-Pad2)*%
%TA.AperFunction,SMDPad,CuDef*%
G36*
G01*
X60304000Y-95400000D02*
X60304000Y-95100000D01*
G75*
G02*
X60454000Y-94950000I150000J0D01*
G01*
X62104000Y-94950000D01*
G75*
G02*
X62254000Y-95100000I0J-150000D01*
G01*
X62254000Y-95400000D01*
G75*
G02*
X62104000Y-95550000I-150000J0D01*
G01*
X60454000Y-95550000D01*
G75*
G02*
X60304000Y-95400000I0J150000D01*
G01*
G37*
%TD.AperFunction*%
%TO.P,U2,3*%
%TO.N,HeatOFF*%
%TA.AperFunction,SMDPad,CuDef*%
G36*
G01*
X60304000Y-96670000D02*
X60304000Y-96370000D01*
G75*
G02*
X60454000Y-96220000I150000J0D01*
G01*
X62104000Y-96220000D01*
G75*
G02*
X62254000Y-96370000I0J-150000D01*
G01*
X62254000Y-96670000D01*
G75*
G02*
X62104000Y-96820000I-150000J0D01*
G01*
X60454000Y-96820000D01*
G75*
G02*
X60304000Y-96670000I0J150000D01*
G01*
G37*
%TD.AperFunction*%
%TO.P,U2,4*%
%TO.N,MCU_PL_ON*%
%TA.AperFunction,SMDPad,CuDef*%
G36*
G01*
X60304000Y-97940000D02*
X60304000Y-97640000D01*
G75*
G02*
X60454000Y-97490000I150000J0D01*
G01*
X62104000Y-97490000D01*
G75*
G02*
X62254000Y-97640000I0J-150000D01*
G01*
X62254000Y-97940000D01*
G75*
G02*
X62104000Y-98090000I-150000J0D01*
G01*
X60454000Y-98090000D01*
G75*
G02*
X60304000Y-97940000I0J150000D01*
G01*
G37*
%TD.AperFunction*%
%TO.P,U2,5*%
%TO.N,Net-(U2-Pad2)*%
%TA.AperFunction,SMDPad,CuDef*%
G36*
G01*
X60304000Y-99210000D02*
X60304000Y-98910000D01*
G75*
G02*
X60454000Y-98760000I150000J0D01*
G01*
X62104000Y-98760000D01*
G75*
G02*
X62254000Y-98910000I0J-150000D01*
G01*
X62254000Y-99210000D01*
G75*
G02*
X62104000Y-99360000I-150000J0D01*
G01*
X60454000Y-99360000D01*
G75*
G02*
X60304000Y-99210000I0J150000D01*
G01*
G37*
%TD.AperFunction*%
%TO.P,U2,6*%
%TO.N,Net-(U1-Pad9)*%
%TA.AperFunction,SMDPad,CuDef*%
G36*
G01*
X60304000Y-100480000D02*
X60304000Y-100180000D01*
G75*
G02*
X60454000Y-100030000I150000J0D01*
G01*
X62104000Y-100030000D01*
G75*
G02*
X62254000Y-100180000I0J-150000D01*
G01*
X62254000Y-100480000D01*
G75*
G02*
X62104000Y-100630000I-150000J0D01*
G01*
X60454000Y-100630000D01*
G75*
G02*
X60304000Y-100480000I0J150000D01*
G01*
G37*
%TD.AperFunction*%
%TO.P,U2,7*%
%TO.N,GND*%
%TA.AperFunction,SMDPad,CuDef*%
G36*
G01*
X60304000Y-101750000D02*
X60304000Y-101450000D01*
G75*
G02*
X60454000Y-101300000I150000J0D01*
G01*
X62104000Y-101300000D01*
G75*
G02*
X62254000Y-101450000I0J-150000D01*
G01*
X62254000Y-101750000D01*
G75*
G02*
X62104000Y-101900000I-150000J0D01*
G01*
X60454000Y-101900000D01*
G75*
G02*
X60304000Y-101750000I0J150000D01*
G01*
G37*
%TD.AperFunction*%
%TO.P,U2,8*%
%TO.N,Net-(U2-Pad8)*%
%TA.AperFunction,SMDPad,CuDef*%
G36*
G01*
X65254000Y-101750000D02*
X65254000Y-101450000D01*
G75*
G02*
X65404000Y-101300000I150000J0D01*
G01*
X67054000Y-101300000D01*
G75*
G02*
X67204000Y-101450000I0J-150000D01*
G01*
X67204000Y-101750000D01*
G75*
G02*
X67054000Y-101900000I-150000J0D01*
G01*
X65404000Y-101900000D01*
G75*
G02*
X65254000Y-101750000I0J150000D01*
G01*
G37*
%TD.AperFunction*%
%TO.P,U2,9*%
%TO.N,+5V*%
%TA.AperFunction,SMDPad,CuDef*%
G36*
G01*
X65254000Y-100480000D02*
X65254000Y-100180000D01*
G75*
G02*
X65404000Y-100030000I150000J0D01*
G01*
X67054000Y-100030000D01*
G75*
G02*
X67204000Y-100180000I0J-150000D01*
G01*
X67204000Y-100480000D01*
G75*
G02*
X67054000Y-100630000I-150000J0D01*
G01*
X65404000Y-100630000D01*
G75*
G02*
X65254000Y-100480000I0J150000D01*
G01*
G37*
%TD.AperFunction*%
%TO.P,U2,10*%
%TA.AperFunction,SMDPad,CuDef*%
G36*
G01*
X65254000Y-99210000D02*
X65254000Y-98910000D01*
G75*
G02*
X65404000Y-98760000I150000J0D01*
G01*
X67054000Y-98760000D01*
G75*
G02*
X67204000Y-98910000I0J-150000D01*
G01*
X67204000Y-99210000D01*
G75*
G02*
X67054000Y-99360000I-150000J0D01*
G01*
X65404000Y-99360000D01*
G75*
G02*
X65254000Y-99210000I0J150000D01*
G01*
G37*
%TD.AperFunction*%
%TO.P,U2,11*%
%TO.N,Net-(U2-Pad11)*%
%TA.AperFunction,SMDPad,CuDef*%
G36*
G01*
X65254000Y-97940000D02*
X65254000Y-97640000D01*
G75*
G02*
X65404000Y-97490000I150000J0D01*
G01*
X67054000Y-97490000D01*
G75*
G02*
X67204000Y-97640000I0J-150000D01*
G01*
X67204000Y-97940000D01*
G75*
G02*
X67054000Y-98090000I-150000J0D01*
G01*
X65404000Y-98090000D01*
G75*
G02*
X65254000Y-97940000I0J150000D01*
G01*
G37*
%TD.AperFunction*%
%TO.P,U2,12*%
%TO.N,+5V*%
%TA.AperFunction,SMDPad,CuDef*%
G36*
G01*
X65254000Y-96670000D02*
X65254000Y-96370000D01*
G75*
G02*
X65404000Y-96220000I150000J0D01*
G01*
X67054000Y-96220000D01*
G75*
G02*
X67204000Y-96370000I0J-150000D01*
G01*
X67204000Y-96670000D01*
G75*
G02*
X67054000Y-96820000I-150000J0D01*
G01*
X65404000Y-96820000D01*
G75*
G02*
X65254000Y-96670000I0J150000D01*
G01*
G37*
%TD.AperFunction*%
%TO.P,U2,13*%
%TA.AperFunction,SMDPad,CuDef*%
G36*
G01*
X65254000Y-95400000D02*
X65254000Y-95100000D01*
G75*
G02*
X65404000Y-94950000I150000J0D01*
G01*
X67054000Y-94950000D01*
G75*
G02*
X67204000Y-95100000I0J-150000D01*
G01*
X67204000Y-95400000D01*
G75*
G02*
X67054000Y-95550000I-150000J0D01*
G01*
X65404000Y-95550000D01*
G75*
G02*
X65254000Y-95400000I0J150000D01*
G01*
G37*
%TD.AperFunction*%
%TO.P,U2,14*%
%TA.AperFunction,SMDPad,CuDef*%
G36*
G01*
X65254000Y-94130000D02*
X65254000Y-93830000D01*
G75*
G02*
X65404000Y-93680000I150000J0D01*
G01*
X67054000Y-93680000D01*
G75*
G02*
X67204000Y-93830000I0J-150000D01*
G01*
X67204000Y-94130000D01*
G75*
G02*
X67054000Y-94280000I-150000J0D01*
G01*
X65404000Y-94280000D01*
G75*
G02*
X65254000Y-94130000I0J150000D01*
G01*
G37*
%TD.AperFunction*%
%TD*%
%TO.P,U3,1*%
%TO.N,Net-(R13-Pad2)*%
%TA.AperFunction,SMDPad,CuDef*%
G36*
G01*
X44600000Y-88540000D02*
X44300000Y-88540000D01*
G75*
G02*
X44150000Y-88390000I0J150000D01*
G01*
X44150000Y-86740000D01*
G75*
G02*
X44300000Y-86590000I150000J0D01*
G01*
X44600000Y-86590000D01*
G75*
G02*
X44750000Y-86740000I0J-150000D01*
G01*
X44750000Y-88390000D01*
G75*
G02*
X44600000Y-88540000I-150000J0D01*
G01*
G37*
%TD.AperFunction*%
%TO.P,U3,2*%
%TO.N,Net-(U1-Pad5)*%
%TA.AperFunction,SMDPad,CuDef*%
G36*
G01*
X45870000Y-88540000D02*
X45570000Y-88540000D01*
G75*
G02*
X45420000Y-88390000I0J150000D01*
G01*
X45420000Y-86740000D01*
G75*
G02*
X45570000Y-86590000I150000J0D01*
G01*
X45870000Y-86590000D01*
G75*
G02*
X46020000Y-86740000I0J-150000D01*
G01*
X46020000Y-88390000D01*
G75*
G02*
X45870000Y-88540000I-150000J0D01*
G01*
G37*
%TD.AperFunction*%
%TO.P,U3,3*%
%TO.N,Net-(U2-Pad2)*%
%TA.AperFunction,SMDPad,CuDef*%
G36*
G01*
X47140000Y-88540000D02*
X46840000Y-88540000D01*
G75*
G02*
X46690000Y-88390000I0J150000D01*
G01*
X46690000Y-86740000D01*
G75*
G02*
X46840000Y-86590000I150000J0D01*
G01*
X47140000Y-86590000D01*
G75*
G02*
X47290000Y-86740000I0J-150000D01*
G01*
X47290000Y-88390000D01*
G75*
G02*
X47140000Y-88540000I-150000J0D01*
G01*
G37*
%TD.AperFunction*%
%TO.P,U3,4*%
%TA.AperFunction,SMDPad,CuDef*%
G36*
G01*
X48410000Y-88540000D02*
X48110000Y-88540000D01*
G75*
G02*
X47960000Y-88390000I0J150000D01*
G01*
X47960000Y-86740000D01*
G75*
G02*
X48110000Y-86590000I150000J0D01*
G01*
X48410000Y-86590000D01*
G75*
G02*
X48560000Y-86740000I0J-150000D01*
G01*
X48560000Y-88390000D01*
G75*
G02*
X48410000Y-88540000I-150000J0D01*
G01*
G37*
%TD.AperFunction*%
%TO.P,U3,5*%
%TO.N,Net-(R13-Pad2)*%
%TA.AperFunction,SMDPad,CuDef*%
G36*
G01*
X49680000Y-88540000D02*
X49380000Y-88540000D01*
G75*
G02*
X49230000Y-88390000I0J150000D01*
G01*
X49230000Y-86740000D01*
G75*
G02*
X49380000Y-86590000I150000J0D01*
G01*
X49680000Y-86590000D01*
G75*
G02*
X49830000Y-86740000I0J-150000D01*
G01*
X49830000Y-88390000D01*
G75*
G02*
X49680000Y-88540000I-150000J0D01*
G01*
G37*
%TD.AperFunction*%
%TO.P,U3,6*%
%TO.N,Net-(C5-Pad1)*%
%TA.AperFunction,SMDPad,CuDef*%
G36*
G01*
X50950000Y-88540000D02*
X50650000Y-88540000D01*
G75*
G02*
X50500000Y-88390000I0J150000D01*
G01*
X50500000Y-86740000D01*
G75*
G02*
X50650000Y-86590000I150000J0D01*
G01*
X50950000Y-86590000D01*
G75*
G02*
X51100000Y-86740000I0J-150000D01*
G01*
X51100000Y-88390000D01*
G75*
G02*
X50950000Y-88540000I-150000J0D01*
G01*
G37*
%TD.AperFunction*%
%TO.P,U3,7*%
%TO.N,GND*%
%TA.AperFunction,SMDPad,CuDef*%
G36*
G01*
X52220000Y-88540000D02*
X51920000Y-88540000D01*
G75*
G02*
X51770000Y-88390000I0J150000D01*
G01*
X51770000Y-86740000D01*
G75*
G02*
X51920000Y-86590000I150000J0D01*
G01*
X52220000Y-86590000D01*
G75*
G02*
X52370000Y-86740000I0J-150000D01*
G01*
X52370000Y-88390000D01*
G75*
G02*
X52220000Y-88540000I-150000J0D01*
G01*
G37*
%TD.AperFunction*%
%TO.P,U3,8*%
%TO.N,+5V*%
%TA.AperFunction,SMDPad,CuDef*%
G36*
G01*
X52220000Y-83590000D02*
X51920000Y-83590000D01*
G75*
G02*
X51770000Y-83440000I0J150000D01*
G01*
X51770000Y-81790000D01*
G75*
G02*
X51920000Y-81640000I150000J0D01*
G01*
X52220000Y-81640000D01*
G75*
G02*
X52370000Y-81790000I0J-150000D01*
G01*
X52370000Y-83440000D01*
G75*
G02*
X52220000Y-83590000I-150000J0D01*
G01*
G37*
%TD.AperFunction*%
%TO.P,U3,9*%
%TA.AperFunction,SMDPad,CuDef*%
G36*
G01*
X50950000Y-83590000D02*
X50650000Y-83590000D01*
G75*
G02*
X50500000Y-83440000I0J150000D01*
G01*
X50500000Y-81790000D01*
G75*
G02*
X50650000Y-81640000I150000J0D01*
G01*
X50950000Y-81640000D01*
G75*
G02*
X51100000Y-81790000I0J-150000D01*
G01*
X51100000Y-83440000D01*
G75*
G02*
X50950000Y-83590000I-150000J0D01*
G01*
G37*
%TD.AperFunction*%
%TO.P,U3,10*%
%TO.N,Net-(U3-Pad10)*%
%TA.AperFunction,SMDPad,CuDef*%
G36*
G01*
X49680000Y-83590000D02*
X49380000Y-83590000D01*
G75*
G02*
X49230000Y-83440000I0J150000D01*
G01*
X49230000Y-81790000D01*
G75*
G02*
X49380000Y-81640000I150000J0D01*
G01*
X49680000Y-81640000D01*
G75*
G02*
X49830000Y-81790000I0J-150000D01*
G01*
X49830000Y-83440000D01*
G75*
G02*
X49680000Y-83590000I-150000J0D01*
G01*
G37*
%TD.AperFunction*%
%TO.P,U3,11*%
%TO.N,+5V*%
%TA.AperFunction,SMDPad,CuDef*%
G36*
G01*
X48410000Y-83590000D02*
X48110000Y-83590000D01*
G75*
G02*
X47960000Y-83440000I0J150000D01*
G01*
X47960000Y-81790000D01*
G75*
G02*
X48110000Y-81640000I150000J0D01*
G01*
X48410000Y-81640000D01*
G75*
G02*
X48560000Y-81790000I0J-150000D01*
G01*
X48560000Y-83440000D01*
G75*
G02*
X48410000Y-83590000I-150000J0D01*
G01*
G37*
%TD.AperFunction*%
%TO.P,U3,12*%
%TA.AperFunction,SMDPad,CuDef*%
G36*
G01*
X47140000Y-83590000D02*
X46840000Y-83590000D01*
G75*
G02*
X46690000Y-83440000I0J150000D01*
G01*
X46690000Y-81790000D01*
G75*
G02*
X46840000Y-81640000I150000J0D01*
G01*
X47140000Y-81640000D01*
G75*
G02*
X47290000Y-81790000I0J-150000D01*
G01*
X47290000Y-83440000D01*
G75*
G02*
X47140000Y-83590000I-150000J0D01*
G01*
G37*
%TD.AperFunction*%
%TO.P,U3,13*%
%TO.N,Net-(U3-Pad13)*%
%TA.AperFunction,SMDPad,CuDef*%
G36*
G01*
X45870000Y-83590000D02*
X45570000Y-83590000D01*
G75*
G02*
X45420000Y-83440000I0J150000D01*
G01*
X45420000Y-81790000D01*
G75*
G02*
X45570000Y-81640000I150000J0D01*
G01*
X45870000Y-81640000D01*
G75*
G02*
X46020000Y-81790000I0J-150000D01*
G01*
X46020000Y-83440000D01*
G75*
G02*
X45870000Y-83590000I-150000J0D01*
G01*
G37*
%TD.AperFunction*%
%TO.P,U3,14*%
%TO.N,+5V*%
%TA.AperFunction,SMDPad,CuDef*%
G36*
G01*
X44600000Y-83590000D02*
X44300000Y-83590000D01*
G75*
G02*
X44150000Y-83440000I0J150000D01*
G01*
X44150000Y-81790000D01*
G75*
G02*
X44300000Y-81640000I150000J0D01*
G01*
X44600000Y-81640000D01*
G75*
G02*
X44750000Y-81790000I0J-150000D01*
G01*
X44750000Y-83440000D01*
G75*
G02*
X44600000Y-83590000I-150000J0D01*
G01*
G37*
%TD.AperFunction*%
%TD*%
D29*
%TO.P,U4,1*%
%TO.N,Temperature*%
X23020000Y-80899000D03*
%TO.P,U4,2*%
%TO.N,Net-(R4-Pad2)*%
X23020000Y-82169000D03*
%TO.P,U4,3*%
%TO.N,Net-(C2-Pad1)*%
X23020000Y-83439000D03*
%TO.P,U4,4*%
%TO.N,GND*%
X23020000Y-84709000D03*
%TO.P,U4,5*%
%TO.N,Net-(R11-Pad2)*%
X30320000Y-84709000D03*
%TO.P,U4,6*%
%TO.N,Net-(R10-Pad1)*%
X30320000Y-83439000D03*
%TO.P,U4,7*%
%TO.N,Net-(R11-Pad1)*%
X30320000Y-82169000D03*
%TO.P,U4,8*%
%TO.N,+5V*%
X30320000Y-80899000D03*
%TD*%
%TO.P,U5,1*%
%TO.N,Net-(U5-Pad1)*%
%TA.AperFunction,SMDPad,CuDef*%
G36*
G01*
X44916500Y-105269000D02*
X44641500Y-105269000D01*
G75*
G02*
X44504000Y-105131500I0J137500D01*
G01*
X44504000Y-103806500D01*
G75*
G02*
X44641500Y-103669000I137500J0D01*
G01*
X44916500Y-103669000D01*
G75*
G02*
X45054000Y-103806500I0J-137500D01*
G01*
X45054000Y-105131500D01*
G75*
G02*
X44916500Y-105269000I-137500J0D01*
G01*
G37*
%TD.AperFunction*%
%TO.P,U5,2*%
%TO.N,Net-(U5-Pad2)*%
%TA.AperFunction,SMDPad,CuDef*%
G36*
G01*
X46186500Y-105269000D02*
X45911500Y-105269000D01*
G75*
G02*
X45774000Y-105131500I0J137500D01*
G01*
X45774000Y-103806500D01*
G75*
G02*
X45911500Y-103669000I137500J0D01*
G01*
X46186500Y-103669000D01*
G75*
G02*
X46324000Y-103806500I0J-137500D01*
G01*
X46324000Y-105131500D01*
G75*
G02*
X46186500Y-105269000I-137500J0D01*
G01*
G37*
%TD.AperFunction*%
%TO.P,U5,3*%
%TO.N,Net-(U5-Pad3)*%
%TA.AperFunction,SMDPad,CuDef*%
G36*
G01*
X47456500Y-105269000D02*
X47181500Y-105269000D01*
G75*
G02*
X47044000Y-105131500I0J137500D01*
G01*
X47044000Y-103806500D01*
G75*
G02*
X47181500Y-103669000I137500J0D01*
G01*
X47456500Y-103669000D01*
G75*
G02*
X47594000Y-103806500I0J-137500D01*
G01*
X47594000Y-105131500D01*
G75*
G02*
X47456500Y-105269000I-137500J0D01*
G01*
G37*
%TD.AperFunction*%
%TO.P,U5,4*%
%TO.N,Net-(U5-Pad4)*%
%TA.AperFunction,SMDPad,CuDef*%
G36*
G01*
X48726500Y-105269000D02*
X48451500Y-105269000D01*
G75*
G02*
X48314000Y-105131500I0J137500D01*
G01*
X48314000Y-103806500D01*
G75*
G02*
X48451500Y-103669000I137500J0D01*
G01*
X48726500Y-103669000D01*
G75*
G02*
X48864000Y-103806500I0J-137500D01*
G01*
X48864000Y-105131500D01*
G75*
G02*
X48726500Y-105269000I-137500J0D01*
G01*
G37*
%TD.AperFunction*%
%TO.P,U5,5*%
%TO.N,Net-(U5-Pad5)*%
%TA.AperFunction,SMDPad,CuDef*%
G36*
G01*
X49996500Y-105269000D02*
X49721500Y-105269000D01*
G75*
G02*
X49584000Y-105131500I0J137500D01*
G01*
X49584000Y-103806500D01*
G75*
G02*
X49721500Y-103669000I137500J0D01*
G01*
X49996500Y-103669000D01*
G75*
G02*
X50134000Y-103806500I0J-137500D01*
G01*
X50134000Y-105131500D01*
G75*
G02*
X49996500Y-105269000I-137500J0D01*
G01*
G37*
%TD.AperFunction*%
%TO.P,U5,6*%
%TO.N,Net-(U5-Pad6)*%
%TA.AperFunction,SMDPad,CuDef*%
G36*
G01*
X51266500Y-105269000D02*
X50991500Y-105269000D01*
G75*
G02*
X50854000Y-105131500I0J137500D01*
G01*
X50854000Y-103806500D01*
G75*
G02*
X50991500Y-103669000I137500J0D01*
G01*
X51266500Y-103669000D01*
G75*
G02*
X51404000Y-103806500I0J-137500D01*
G01*
X51404000Y-105131500D01*
G75*
G02*
X51266500Y-105269000I-137500J0D01*
G01*
G37*
%TD.AperFunction*%
%TO.P,U5,7*%
%TO.N,Net-(U5-Pad7)*%
%TA.AperFunction,SMDPad,CuDef*%
G36*
G01*
X52536500Y-105269000D02*
X52261500Y-105269000D01*
G75*
G02*
X52124000Y-105131500I0J137500D01*
G01*
X52124000Y-103806500D01*
G75*
G02*
X52261500Y-103669000I137500J0D01*
G01*
X52536500Y-103669000D01*
G75*
G02*
X52674000Y-103806500I0J-137500D01*
G01*
X52674000Y-105131500D01*
G75*
G02*
X52536500Y-105269000I-137500J0D01*
G01*
G37*
%TD.AperFunction*%
%TO.P,U5,8*%
%TO.N,GND*%
%TA.AperFunction,SMDPad,CuDef*%
G36*
G01*
X53806500Y-105269000D02*
X53531500Y-105269000D01*
G75*
G02*
X53394000Y-105131500I0J137500D01*
G01*
X53394000Y-103806500D01*
G75*
G02*
X53531500Y-103669000I137500J0D01*
G01*
X53806500Y-103669000D01*
G75*
G02*
X53944000Y-103806500I0J-137500D01*
G01*
X53944000Y-105131500D01*
G75*
G02*
X53806500Y-105269000I-137500J0D01*
G01*
G37*
%TD.AperFunction*%
%TO.P,U5,9*%
%TO.N,Net-(U5-Pad9)*%
%TA.AperFunction,SMDPad,CuDef*%
G36*
G01*
X53806500Y-98769000D02*
X53531500Y-98769000D01*
G75*
G02*
X53394000Y-98631500I0J137500D01*
G01*
X53394000Y-97306500D01*
G75*
G02*
X53531500Y-97169000I137500J0D01*
G01*
X53806500Y-97169000D01*
G75*
G02*
X53944000Y-97306500I0J-137500D01*
G01*
X53944000Y-98631500D01*
G75*
G02*
X53806500Y-98769000I-137500J0D01*
G01*
G37*
%TD.AperFunction*%
%TO.P,U5,10*%
%TO.N,IRQ*%
%TA.AperFunction,SMDPad,CuDef*%
G36*
G01*
X52536500Y-98769000D02*
X52261500Y-98769000D01*
G75*
G02*
X52124000Y-98631500I0J137500D01*
G01*
X52124000Y-97306500D01*
G75*
G02*
X52261500Y-97169000I137500J0D01*
G01*
X52536500Y-97169000D01*
G75*
G02*
X52674000Y-97306500I0J-137500D01*
G01*
X52674000Y-98631500D01*
G75*
G02*
X52536500Y-98769000I-137500J0D01*
G01*
G37*
%TD.AperFunction*%
%TO.P,U5,11*%
%TO.N,Net-(U1-Pad5)*%
%TA.AperFunction,SMDPad,CuDef*%
G36*
G01*
X51266500Y-98769000D02*
X50991500Y-98769000D01*
G75*
G02*
X50854000Y-98631500I0J137500D01*
G01*
X50854000Y-97306500D01*
G75*
G02*
X50991500Y-97169000I137500J0D01*
G01*
X51266500Y-97169000D01*
G75*
G02*
X51404000Y-97306500I0J-137500D01*
G01*
X51404000Y-98631500D01*
G75*
G02*
X51266500Y-98769000I-137500J0D01*
G01*
G37*
%TD.AperFunction*%
%TO.P,U5,12*%
%TO.N,Net-(U5-Pad12)*%
%TA.AperFunction,SMDPad,CuDef*%
G36*
G01*
X49996500Y-98769000D02*
X49721500Y-98769000D01*
G75*
G02*
X49584000Y-98631500I0J137500D01*
G01*
X49584000Y-97306500D01*
G75*
G02*
X49721500Y-97169000I137500J0D01*
G01*
X49996500Y-97169000D01*
G75*
G02*
X50134000Y-97306500I0J-137500D01*
G01*
X50134000Y-98631500D01*
G75*
G02*
X49996500Y-98769000I-137500J0D01*
G01*
G37*
%TD.AperFunction*%
%TO.P,U5,13*%
%TO.N,GND*%
%TA.AperFunction,SMDPad,CuDef*%
G36*
G01*
X48726500Y-98769000D02*
X48451500Y-98769000D01*
G75*
G02*
X48314000Y-98631500I0J137500D01*
G01*
X48314000Y-97306500D01*
G75*
G02*
X48451500Y-97169000I137500J0D01*
G01*
X48726500Y-97169000D01*
G75*
G02*
X48864000Y-97306500I0J-137500D01*
G01*
X48864000Y-98631500D01*
G75*
G02*
X48726500Y-98769000I-137500J0D01*
G01*
G37*
%TD.AperFunction*%
%TO.P,U5,14*%
%TO.N,Net-(C1-Pad1)*%
%TA.AperFunction,SMDPad,CuDef*%
G36*
G01*
X47456500Y-98769000D02*
X47181500Y-98769000D01*
G75*
G02*
X47044000Y-98631500I0J137500D01*
G01*
X47044000Y-97306500D01*
G75*
G02*
X47181500Y-97169000I137500J0D01*
G01*
X47456500Y-97169000D01*
G75*
G02*
X47594000Y-97306500I0J-137500D01*
G01*
X47594000Y-98631500D01*
G75*
G02*
X47456500Y-98769000I-137500J0D01*
G01*
G37*
%TD.AperFunction*%
%TO.P,U5,15*%
%TO.N,Net-(C5-Pad1)*%
%TA.AperFunction,SMDPad,CuDef*%
G36*
G01*
X46186500Y-98769000D02*
X45911500Y-98769000D01*
G75*
G02*
X45774000Y-98631500I0J137500D01*
G01*
X45774000Y-97306500D01*
G75*
G02*
X45911500Y-97169000I137500J0D01*
G01*
X46186500Y-97169000D01*
G75*
G02*
X46324000Y-97306500I0J-137500D01*
G01*
X46324000Y-98631500D01*
G75*
G02*
X46186500Y-98769000I-137500J0D01*
G01*
G37*
%TD.AperFunction*%
%TO.P,U5,16*%
%TO.N,+5V*%
%TA.AperFunction,SMDPad,CuDef*%
G36*
G01*
X44916500Y-98769000D02*
X44641500Y-98769000D01*
G75*
G02*
X44504000Y-98631500I0J137500D01*
G01*
X44504000Y-97306500D01*
G75*
G02*
X44641500Y-97169000I137500J0D01*
G01*
X44916500Y-97169000D01*
G75*
G02*
X45054000Y-97306500I0J-137500D01*
G01*
X45054000Y-98631500D01*
G75*
G02*
X44916500Y-98769000I-137500J0D01*
G01*
G37*
%TD.AperFunction*%
%TD*%
D30*
%TO.P,U7,1*%
%TO.N,+24V*%
X73997000Y-36255000D03*
%TO.P,U7,2*%
%TO.N,Net-(D4-Pad1)*%
X75697000Y-36255000D03*
%TO.P,U7,3*%
%TO.N,GND*%
X77397000Y-36255000D03*
%TO.P,U7,4*%
%TO.N,Net-(R23-Pad1)*%
X79097000Y-36255000D03*
%TO.P,U7,5*%
%TO.N,PL_ON*%
X80797000Y-36255000D03*
D31*
%TO.P,U7,3*%
%TO.N,GND*%
X77397000Y-27105000D03*
%TD*%
D32*
%TO.P,U8,1*%
%TO.N,IRQResp*%
X82686000Y-87097000D03*
%TO.P,U8,2*%
%TO.N,MCUHeatOff*%
X82686000Y-87897000D03*
%TO.P,U8,3*%
%TO.N,GND*%
X82686000Y-88697000D03*
%TO.P,U8,4*%
%TO.N,+5V*%
X82686000Y-89497000D03*
%TO.P,U8,5*%
%TO.N,GND*%
X82686000Y-90297000D03*
%TO.P,U8,6*%
%TO.N,+5V*%
X82686000Y-91097000D03*
%TO.P,U8,7*%
%TO.N,Net-(C15-Pad1)*%
X82686000Y-91897000D03*
%TO.P,U8,8*%
%TO.N,Net-(C18-Pad1)*%
X82686000Y-92697000D03*
D33*
%TO.P,U8,9*%
%TO.N,MCU_PL_ON*%
X84136000Y-94147000D03*
%TO.P,U8,10*%
%TO.N,Net-(U8-Pad10)*%
X84936000Y-94147000D03*
%TO.P,U8,11*%
%TO.N,Net-(U8-Pad11)*%
X85736000Y-94147000D03*
%TO.P,U8,12*%
%TO.N,Net-(U8-Pad12)*%
X86536000Y-94147000D03*
%TO.P,U8,13*%
%TO.N,Net-(U8-Pad13)*%
X87336000Y-94147000D03*
%TO.P,U8,14*%
%TO.N,Net-(U8-Pad14)*%
X88136000Y-94147000D03*
%TO.P,U8,15*%
%TO.N,Net-(J8-Pad1)*%
X88936000Y-94147000D03*
%TO.P,U8,16*%
%TO.N,Net-(J8-Pad9)*%
X89736000Y-94147000D03*
D32*
%TO.P,U8,17*%
%TO.N,Net-(J8-Pad7)*%
X91186000Y-92697000D03*
%TO.P,U8,18*%
%TO.N,+5V*%
X91186000Y-91897000D03*
%TO.P,U8,19*%
%TO.N,Net-(U8-Pad19)*%
X91186000Y-91097000D03*
%TO.P,U8,20*%
%TO.N,Net-(C19-Pad1)*%
X91186000Y-90297000D03*
%TO.P,U8,21*%
%TO.N,GND*%
X91186000Y-89497000D03*
%TO.P,U8,22*%
%TO.N,Net-(U8-Pad22)*%
X91186000Y-88697000D03*
%TO.P,U8,23*%
%TO.N,Temperature*%
X91186000Y-87897000D03*
%TO.P,U8,24*%
%TO.N,Net-(U8-Pad24)*%
X91186000Y-87097000D03*
D33*
%TO.P,U8,25*%
%TO.N,Net-(U8-Pad25)*%
X89736000Y-85647000D03*
%TO.P,U8,26*%
%TO.N,Net-(U8-Pad26)*%
X88936000Y-85647000D03*
%TO.P,U8,27*%
%TO.N,Net-(U8-Pad27)*%
X88136000Y-85647000D03*
%TO.P,U8,28*%
%TO.N,Net-(U8-Pad28)*%
X87336000Y-85647000D03*
%TO.P,U8,29*%
%TO.N,MCUReset*%
X86536000Y-85647000D03*
%TO.P,U8,30*%
%TO.N,Net-(J7-Pad2)*%
X85736000Y-85647000D03*
%TO.P,U8,31*%
%TO.N,Net-(J7-Pad1)*%
X84936000Y-85647000D03*
%TO.P,U8,32*%
%TO.N,Net-(D5-Pad1)*%
X84136000Y-85647000D03*
%TD*%
D34*
%TO.P,Y1,1*%
%TO.N,Net-(C18-Pad1)*%
X77851000Y-101727000D03*
%TO.P,Y1,2*%
%TO.N,Net-(C15-Pad1)*%
X77851000Y-96847000D03*
%TD*%
D35*
%TO.N,GND*%
X51950000Y-45586000D03*
D36*
X51950000Y-45586000D03*
X40386000Y-103886000D03*
X56313000Y-104469000D03*
X54545000Y-87565000D03*
X61279000Y-103821000D03*
X71501000Y-106172000D03*
X57404000Y-97028000D03*
X91694000Y-82042000D03*
X17526000Y-88646000D03*
D35*
%TO.N,+5V*%
X59436000Y-55753000D03*
D36*
X59436000Y-55753000D03*
D35*
X77270500Y-91322000D03*
D36*
X77270500Y-91322000D03*
X28702000Y-98806000D03*
X42851000Y-97969000D03*
X41467000Y-82615000D03*
X69088000Y-93980000D03*
X31750000Y-77470000D03*
%TO.N,MCUReset*%
X41656000Y-106934000D03*
X44704000Y-109220000D03*
X88900000Y-98298000D03*
X99060000Y-98298000D03*
%TO.N,IRQ*%
X53086000Y-94996000D03*
X61976000Y-82296000D03*
%TO.N,Net-(J8-Pad9)*%
X96012000Y-98298000D03*
X92202000Y-98298000D03*
%TO.N,Temperature*%
X21082000Y-77216000D03*
X94361000Y-86487000D03*
X54356000Y-75692000D03*
X44196000Y-75692000D03*
%TO.N,HeatOFF*%
X69596000Y-87122000D03*
X69596000Y-73660000D03*
%TO.N,PL_ON*%
X78486000Y-58420000D03*
X74676000Y-68072000D03*
%TO.N,MCU_PL_ON*%
X84201000Y-98552000D03*
X67564000Y-90170000D03*
%TD*%
D37*
%TO.N,Net-(C1-Pad1)*%
X26670000Y-102362000D02*
X29464000Y-102362000D01*
X29464000Y-102362000D02*
X29718000Y-102108000D01*
X34544000Y-102781000D02*
X34544000Y-103756000D01*
X33871000Y-102108000D02*
X34544000Y-102781000D01*
X26670000Y-102362000D02*
X25654000Y-101346000D01*
X23622000Y-101346000D02*
X23368000Y-101600000D01*
X25654000Y-101346000D02*
X23622000Y-101346000D01*
X35306000Y-100584000D02*
X33782000Y-102108000D01*
X47319000Y-98985000D02*
X45720000Y-100584000D01*
X47319000Y-97969000D02*
X47319000Y-98985000D01*
X33782000Y-102108000D02*
X33871000Y-102108000D01*
X29718000Y-102108000D02*
X33782000Y-102108000D01*
X45720000Y-100584000D02*
X35306000Y-100584000D01*
%TO.N,Net-(C1-Pad2)*%
X30734000Y-105410000D02*
X30226000Y-105918000D01*
X30734000Y-103756000D02*
X30734000Y-105410000D01*
X28194000Y-104140000D02*
X23858000Y-104140000D01*
X23858000Y-104140000D02*
X23368000Y-103650000D01*
X28578000Y-103756000D02*
X28194000Y-104140000D01*
X30734000Y-103756000D02*
X28578000Y-103756000D01*
%TO.N,Net-(C2-Pad1)*%
X21844000Y-86868000D02*
X23368000Y-86868000D01*
X23368000Y-86868000D02*
X24892000Y-85344000D01*
X24370000Y-83439000D02*
X23020000Y-83439000D01*
X24892000Y-83961000D02*
X24370000Y-83439000D01*
X24892000Y-85344000D02*
X24892000Y-83961000D01*
X21336000Y-87376000D02*
X21844000Y-86868000D01*
X21336000Y-91440000D02*
X21336000Y-87376000D01*
X20574000Y-92202000D02*
X21336000Y-91440000D01*
X19567000Y-92202000D02*
X20574000Y-92202000D01*
D38*
%TO.N,GND*%
X77397000Y-36255000D02*
X77397000Y-27105000D01*
X70357000Y-34145000D02*
X77397000Y-27105000D01*
X69977000Y-34145000D02*
X70357000Y-34145000D01*
X80547000Y-30255000D02*
X77397000Y-27105000D01*
X87757000Y-30255000D02*
X80547000Y-30255000D01*
X87837000Y-30335000D02*
X87757000Y-30255000D01*
X92837000Y-30335000D02*
X87837000Y-30335000D01*
X97282000Y-31830000D02*
X96012000Y-30560000D01*
X96012000Y-30560000D02*
X96012000Y-30480000D01*
X95867000Y-30335000D02*
X92837000Y-30335000D01*
X96012000Y-30480000D02*
X95867000Y-30335000D01*
X97447000Y-31995000D02*
X97282000Y-31830000D01*
X99822000Y-31995000D02*
X97447000Y-31995000D01*
X91487000Y-26525000D02*
X87757000Y-30255000D01*
X91487000Y-22225000D02*
X91487000Y-26525000D01*
X93247000Y-24765000D02*
X91487000Y-26525000D01*
X96647000Y-24765000D02*
X93247000Y-24765000D01*
X100457000Y-24765000D02*
X96647000Y-24765000D01*
X84328000Y-70151000D02*
X83058000Y-71421000D01*
X84328000Y-69986000D02*
X84328000Y-70151000D01*
X95718000Y-71421000D02*
X95758000Y-71381000D01*
X95758000Y-68326000D02*
X95758000Y-71381000D01*
X83098000Y-71381000D02*
X83058000Y-71421000D01*
X95758000Y-71381000D02*
X88893000Y-71381000D01*
X88893000Y-71381000D02*
X83098000Y-71381000D01*
D37*
X91248000Y-66421000D02*
X88773000Y-66421000D01*
X88773000Y-68721000D02*
X88893000Y-68841000D01*
X88773000Y-66421000D02*
X88773000Y-68721000D01*
D38*
X88893000Y-68841000D02*
X88893000Y-67986001D01*
X88893000Y-71381000D02*
X88893000Y-68841000D01*
X95758000Y-71381000D02*
X98037000Y-71381000D01*
X98037000Y-71381000D02*
X98552000Y-70866000D01*
X98552000Y-61350000D02*
X97273000Y-60071000D01*
X98552000Y-70866000D02*
X98552000Y-61350000D01*
X49276000Y-36322000D02*
X51950000Y-36322000D01*
X51950000Y-24598000D02*
X50212000Y-22860000D01*
X51950000Y-36322000D02*
X51950000Y-24598000D01*
X56896000Y-36322000D02*
X51950000Y-36322000D01*
D37*
X49850000Y-61529000D02*
X49530000Y-61849000D01*
X51324000Y-61529000D02*
X49850000Y-61529000D01*
X49662000Y-56637000D02*
X49530000Y-56769000D01*
X51308000Y-56637000D02*
X49662000Y-56637000D01*
D39*
X51308000Y-56637000D02*
X51938000Y-56637000D01*
X51938000Y-56637000D02*
X52324000Y-57023000D01*
X52324000Y-60529000D02*
X51324000Y-61529000D01*
X52324000Y-57023000D02*
X52324000Y-60529000D01*
D38*
X35052000Y-51562000D02*
X39497000Y-51562000D01*
X45473000Y-45586000D02*
X51950000Y-45586000D01*
X39497000Y-51562000D02*
X45473000Y-45586000D01*
X79375000Y-67738000D02*
X83058000Y-71421000D01*
D37*
X87846000Y-89497000D02*
X91186000Y-89497000D01*
X87046000Y-88697000D02*
X87846000Y-89497000D01*
X84506000Y-89777000D02*
X84506000Y-88697000D01*
X83986000Y-90297000D02*
X84506000Y-89777000D01*
X82686000Y-90297000D02*
X83986000Y-90297000D01*
X84506000Y-88697000D02*
X87046000Y-88697000D01*
X82686000Y-88697000D02*
X84506000Y-88697000D01*
X80331000Y-88697000D02*
X79756000Y-89272000D01*
X82686000Y-88697000D02*
X80331000Y-88697000D01*
X94196000Y-89497000D02*
X94361000Y-89662000D01*
X91186000Y-89497000D02*
X94196000Y-89497000D01*
D38*
X71746000Y-101727000D02*
X71746000Y-100067000D01*
X71501000Y-99822000D02*
X71501000Y-97282000D01*
X71746000Y-100067000D02*
X71501000Y-99822000D01*
X74041000Y-89027000D02*
X71501000Y-91567000D01*
X78740000Y-89027000D02*
X74041000Y-89027000D01*
X71501000Y-91567000D02*
X71501000Y-97282000D01*
X78985000Y-89272000D02*
X78740000Y-89027000D01*
X79756000Y-89272000D02*
X78985000Y-89272000D01*
X71501000Y-101972000D02*
X71746000Y-101727000D01*
X71501000Y-106172000D02*
X71501000Y-106172000D01*
X96266000Y-89662000D02*
X94361000Y-89662000D01*
X96901000Y-89027000D02*
X96266000Y-89662000D01*
X96901000Y-82042000D02*
X96901000Y-89027000D01*
D37*
X38354000Y-103756000D02*
X40256000Y-103756000D01*
X40256000Y-103756000D02*
X40386000Y-103886000D01*
X40386000Y-103886000D02*
X40386000Y-103886000D01*
X53669000Y-104469000D02*
X56313000Y-104469000D01*
X56313000Y-104469000D02*
X56313000Y-104469000D01*
X53669000Y-103849000D02*
X53669000Y-104469000D01*
X48589000Y-98769000D02*
X53669000Y-103849000D01*
X48589000Y-97969000D02*
X48589000Y-98769000D01*
X48589000Y-96087000D02*
X48260000Y-95758000D01*
X48589000Y-97969000D02*
X48589000Y-96087000D01*
X48260000Y-93218000D02*
X48514000Y-92964000D01*
X48260000Y-95758000D02*
X48260000Y-93218000D01*
X52070000Y-87565000D02*
X54545000Y-87565000D01*
X54545000Y-87565000D02*
X54545000Y-87565000D01*
X61279000Y-101600000D02*
X61279000Y-103821000D01*
X61279000Y-103821000D02*
X61279000Y-103821000D01*
D38*
X71501000Y-106172000D02*
X71501000Y-101972000D01*
D37*
X58420000Y-87884000D02*
X60452000Y-87884000D01*
X60452000Y-87884000D02*
X60452000Y-92202000D01*
X60452000Y-92202000D02*
X59182000Y-92202000D01*
X59182000Y-92202000D02*
X57404000Y-93980000D01*
X57404000Y-93980000D02*
X57404000Y-97028000D01*
X57404000Y-97028000D02*
X57404000Y-97028000D01*
D38*
X89154000Y-82042000D02*
X91694000Y-82042000D01*
X91694000Y-82042000D02*
X96901000Y-82042000D01*
D37*
X20202000Y-84709000D02*
X20066000Y-84845000D01*
X23020000Y-84709000D02*
X20202000Y-84709000D01*
X20066000Y-86596000D02*
X19794000Y-86868000D01*
X20066000Y-84845000D02*
X20066000Y-86596000D01*
X19794000Y-86868000D02*
X19304000Y-86868000D01*
X19304000Y-86868000D02*
X17526000Y-88646000D01*
X17526000Y-88646000D02*
X17526000Y-88646000D01*
D39*
X19146762Y-90170000D02*
X20066000Y-90170000D01*
X18542000Y-90774762D02*
X19146762Y-90170000D01*
X18542000Y-94234000D02*
X18542000Y-90774762D01*
D38*
X89415000Y-77724000D02*
X95758000Y-71381000D01*
X88646000Y-77724000D02*
X89415000Y-77724000D01*
X79375000Y-67738000D02*
X79375000Y-67691000D01*
X57270000Y-45586000D02*
X51950000Y-45586000D01*
X51324000Y-61529000D02*
X51324000Y-62246000D01*
D37*
X51324000Y-62246000D02*
X51340000Y-62230000D01*
D38*
X61595000Y-49911000D02*
X57270000Y-45586000D01*
X75772000Y-25480000D02*
X77397000Y-27105000D01*
X67437000Y-25480000D02*
X75772000Y-25480000D01*
X95758000Y-67328000D02*
X95758000Y-68881000D01*
X47770000Y-36322000D02*
X49450000Y-36322000D01*
X71501000Y-106172000D02*
X84328000Y-106172000D01*
D39*
X84328000Y-106172000D02*
X84328000Y-106426000D01*
X84328000Y-106426000D02*
X85598000Y-107696000D01*
X88138000Y-107696000D02*
X89408000Y-106426000D01*
X85598000Y-107696000D02*
X88138000Y-107696000D01*
D38*
X70850000Y-62246000D02*
X72390000Y-60706000D01*
X51324000Y-62246000D02*
X70850000Y-62246000D01*
X72390000Y-60706000D02*
X61595000Y-49911000D01*
X79375000Y-67691000D02*
X72390000Y-60706000D01*
D37*
%TO.N,Net-(C3-Pad2)*%
X32258000Y-107968000D02*
X30226000Y-107968000D01*
X26670000Y-105962000D02*
X28658000Y-107950000D01*
X30208000Y-107950000D02*
X30226000Y-107968000D01*
X28658000Y-107950000D02*
X30208000Y-107950000D01*
D38*
%TO.N,+5V*%
X83058000Y-66666000D02*
X84328000Y-67936000D01*
X83058000Y-66421000D02*
X83058000Y-66666000D01*
D37*
X84573000Y-67691000D02*
X84328000Y-67936000D01*
X86298000Y-67691000D02*
X84573000Y-67691000D01*
D38*
X83058000Y-60198000D02*
X84582000Y-58674000D01*
X83058000Y-66421000D02*
X83058000Y-60198000D01*
X57658000Y-55753000D02*
X59436000Y-55753000D01*
X59436000Y-55753000D02*
X59436000Y-55753000D01*
X59436000Y-55753000D02*
X59436000Y-55753000D01*
D37*
X82686000Y-91097000D02*
X83731000Y-91097000D01*
X84531000Y-91897000D02*
X91186000Y-91897000D01*
X83731000Y-91097000D02*
X84531000Y-91897000D01*
X82686000Y-89497000D02*
X81191000Y-89497000D01*
X82686000Y-91097000D02*
X81191000Y-91097000D01*
X81191000Y-91097000D02*
X81191000Y-89497000D01*
X79981000Y-91097000D02*
X79756000Y-91322000D01*
X81191000Y-91097000D02*
X79981000Y-91097000D01*
D38*
X79756000Y-91322000D02*
X77270500Y-91322000D01*
X77270500Y-91322000D02*
X77270500Y-91322000D01*
X77270500Y-91322000D02*
X77270500Y-91322000D01*
D37*
X30734000Y-98806000D02*
X28702000Y-98806000D01*
X28702000Y-98806000D02*
X28702000Y-98806000D01*
X30734000Y-98806000D02*
X32004000Y-98806000D01*
X32004000Y-98806000D02*
X32004000Y-97028000D01*
X32004000Y-97028000D02*
X34544000Y-97028000D01*
X34544000Y-97028000D02*
X34544000Y-98806000D01*
X44779000Y-97969000D02*
X43105000Y-97969000D01*
X43105000Y-97969000D02*
X42851000Y-97969000D01*
X42851000Y-97969000D02*
X42851000Y-97969000D01*
X44450000Y-82615000D02*
X41467000Y-82615000D01*
X41467000Y-82615000D02*
X41467000Y-82615000D01*
X52070000Y-82615000D02*
X50800000Y-82615000D01*
X48260000Y-82615000D02*
X46990000Y-82615000D01*
X44450000Y-82615000D02*
X44450000Y-81026000D01*
X44450000Y-81026000D02*
X46990000Y-81026000D01*
X46990000Y-81026000D02*
X46990000Y-82615000D01*
X46990000Y-81026000D02*
X50800000Y-81026000D01*
X50800000Y-81026000D02*
X50800000Y-82615000D01*
X66229000Y-100330000D02*
X66229000Y-99060000D01*
X66229000Y-93980000D02*
X66229000Y-96520000D01*
X67818000Y-99060000D02*
X66229000Y-99060000D01*
X67818000Y-96520000D02*
X67818000Y-99060000D01*
X66229000Y-96520000D02*
X67818000Y-96520000D01*
X66229000Y-93980000D02*
X69088000Y-93980000D01*
X69088000Y-93980000D02*
X69088000Y-93980000D01*
X30320000Y-80899000D02*
X30320000Y-78834000D01*
X30226000Y-78740000D02*
X28702000Y-78740000D01*
X30320000Y-78834000D02*
X30226000Y-78740000D01*
X30320000Y-78834000D02*
X30386000Y-78834000D01*
X30386000Y-78834000D02*
X31750000Y-77470000D01*
X31750000Y-77470000D02*
X31750000Y-77470000D01*
X17272000Y-92202000D02*
X17517000Y-92202000D01*
X15240000Y-87884000D02*
X15240000Y-90170000D01*
X17780000Y-85344000D02*
X15240000Y-87884000D01*
X20066000Y-75184000D02*
X17780000Y-77470000D01*
X23114000Y-75184000D02*
X20066000Y-75184000D01*
X27686000Y-76200000D02*
X24130000Y-76200000D01*
X15240000Y-90170000D02*
X17272000Y-92202000D01*
X17780000Y-77470000D02*
X17780000Y-85344000D01*
X24130000Y-76200000D02*
X23114000Y-75184000D01*
X28702000Y-77216000D02*
X27686000Y-76200000D01*
X28702000Y-78740000D02*
X28702000Y-77216000D01*
X17517000Y-92202000D02*
X17517000Y-92211000D01*
X17517000Y-92211000D02*
X17272000Y-92456000D01*
X17272000Y-92456000D02*
X17272000Y-95758000D01*
X17272000Y-95758000D02*
X22098000Y-95758000D01*
X26924000Y-90932000D02*
X26924000Y-90678000D01*
X22098000Y-95758000D02*
X26924000Y-90932000D01*
X91186000Y-91897000D02*
X92151000Y-91897000D01*
X92151000Y-91897000D02*
X93218000Y-92964000D01*
X93218000Y-93236000D02*
X94470000Y-94488000D01*
X93218000Y-92964000D02*
X93218000Y-93236000D01*
%TO.N,Net-(C5-Pad1)*%
X46049000Y-95919000D02*
X46210000Y-95758000D01*
X46049000Y-97969000D02*
X46049000Y-95919000D01*
X46210000Y-93460000D02*
X45714000Y-92964000D01*
X46210000Y-95758000D02*
X46210000Y-93460000D01*
X44704000Y-92964000D02*
X43942000Y-93726000D01*
X45714000Y-92964000D02*
X44704000Y-92964000D01*
X45714000Y-92964000D02*
X43180000Y-90430000D01*
X43180000Y-90430000D02*
X43180000Y-85344000D01*
X43180000Y-85344000D02*
X50292000Y-85344000D01*
X50292000Y-85344000D02*
X50800000Y-85852000D01*
X50800000Y-85852000D02*
X50800000Y-87565000D01*
X43180000Y-90430000D02*
X43180000Y-92202000D01*
X43180000Y-92202000D02*
X42926000Y-92456000D01*
D39*
X42926000Y-92456000D02*
X42926000Y-92964000D01*
X42926000Y-92964000D02*
X42926000Y-95250000D01*
D37*
X40894000Y-77978000D02*
X59436000Y-77978000D01*
X37846000Y-86614000D02*
X37846000Y-81026000D01*
X37846000Y-81026000D02*
X40894000Y-77978000D01*
X38354000Y-87122000D02*
X37846000Y-86614000D01*
X38354000Y-93726000D02*
X38354000Y-87122000D01*
X39878000Y-95250000D02*
X38354000Y-93726000D01*
X42926000Y-95250000D02*
X39878000Y-95250000D01*
%TO.N,IRQResp*%
X75921000Y-87097000D02*
X81001000Y-87097000D01*
X71882000Y-83058000D02*
X75921000Y-87097000D01*
X41892000Y-93726000D02*
X40386000Y-93726000D01*
X39370000Y-81280000D02*
X41213010Y-79436990D01*
X40386000Y-93726000D02*
X39878000Y-93218000D01*
X81001000Y-87097000D02*
X82686000Y-87097000D01*
X39370000Y-86241602D02*
X39370000Y-81280000D01*
X39878000Y-93218000D02*
X39878000Y-86749602D01*
X55626000Y-83058000D02*
X55626000Y-84328000D01*
X41213010Y-79436990D02*
X52004990Y-79436990D01*
X52004990Y-79436990D02*
X55626000Y-83058000D01*
X55626000Y-84328000D02*
X55880000Y-84582000D01*
X65786000Y-84582000D02*
X67310000Y-83058000D01*
X55880000Y-84582000D02*
X65786000Y-84582000D01*
X39878000Y-86749602D02*
X39370000Y-86241602D01*
X67310000Y-83058000D02*
X71882000Y-83058000D01*
D38*
%TO.N,+24V*%
X70037000Y-36255000D02*
X69977000Y-36195000D01*
X73997000Y-36255000D02*
X70037000Y-36255000D01*
X67437000Y-31750000D02*
X67437000Y-36195000D01*
X67437000Y-36195000D02*
X69977000Y-36195000D01*
D37*
X94488000Y-65151000D02*
X95758000Y-63881000D01*
X91248000Y-65151000D02*
X94488000Y-65151000D01*
D38*
X44450000Y-23622000D02*
X45212000Y-22860000D01*
X44450000Y-36322000D02*
X44450000Y-23622000D01*
X67437000Y-36703000D02*
X63500000Y-40640000D01*
X63500000Y-40640000D02*
X46990000Y-40640000D01*
X44450000Y-38100000D02*
X44450000Y-36322000D01*
X46990000Y-40640000D02*
X44450000Y-38100000D01*
X45212000Y-22860000D02*
X37258000Y-22860000D01*
X23939500Y-22851000D02*
X23939500Y-20002500D01*
X23939500Y-20002500D02*
X25400000Y-18542000D01*
X25400000Y-18542000D02*
X36512500Y-18542000D01*
X37258000Y-19287500D02*
X37258000Y-22860000D01*
X36512500Y-18542000D02*
X37258000Y-19287500D01*
X67437000Y-31750000D02*
X67437000Y-30480000D01*
X67437000Y-34163000D02*
X67437000Y-36703000D01*
X67437000Y-30480000D02*
X67437000Y-34163000D01*
X67437000Y-31750000D02*
X67437000Y-34163000D01*
X95758000Y-65278000D02*
X95758000Y-63881000D01*
X56896000Y-28439000D02*
X56896000Y-18034000D01*
X56896000Y-18034000D02*
X56388000Y-17526000D01*
X56388000Y-17526000D02*
X45974000Y-17526000D01*
X45212000Y-18288000D02*
X45212000Y-22860000D01*
X45974000Y-17526000D02*
X45212000Y-18288000D01*
D37*
%TO.N,MCUReset*%
X86536000Y-82102000D02*
X86596000Y-82042000D01*
X86536000Y-85647000D02*
X86536000Y-82102000D01*
X98171000Y-93472000D02*
X98171000Y-80137000D01*
X98171000Y-80137000D02*
X86741000Y-80137000D01*
X86741000Y-81897000D02*
X86596000Y-82042000D01*
X86741000Y-80137000D02*
X86741000Y-81897000D01*
X97155000Y-94488000D02*
X97218500Y-94424500D01*
X97218500Y-94424500D02*
X98171000Y-93472000D01*
X96520000Y-94488000D02*
X97155000Y-94488000D01*
X41656000Y-106934000D02*
X40386000Y-106934000D01*
X99060000Y-107696000D02*
X98044000Y-108712000D01*
X98044000Y-108712000D02*
X45212000Y-108712000D01*
X45212000Y-108712000D02*
X44704000Y-109220000D01*
X44704000Y-109220000D02*
X44704000Y-109220000D01*
X99060000Y-105156000D02*
X99060000Y-107696000D01*
X99060000Y-97028000D02*
X96520000Y-94488000D01*
X99060000Y-105156000D02*
X99060000Y-98298000D01*
X91948000Y-103886000D02*
X91948000Y-102616000D01*
X91948000Y-102616000D02*
X88900000Y-99568000D01*
X88900000Y-99568000D02*
X88900000Y-98298000D01*
X88900000Y-98298000D02*
X88900000Y-98298000D01*
X99060000Y-98298000D02*
X99060000Y-97028000D01*
%TO.N,Net-(C15-Pad1)*%
X77851000Y-96847000D02*
X80391000Y-94307000D01*
X80391000Y-94307000D02*
X80391000Y-92837000D01*
X81331000Y-91897000D02*
X82686000Y-91897000D01*
X80391000Y-92837000D02*
X81331000Y-91897000D01*
D38*
X77416000Y-97282000D02*
X77851000Y-96847000D01*
X73551000Y-97282000D02*
X77416000Y-97282000D01*
D37*
%TO.N,Net-(C18-Pad1)*%
X82546000Y-92837000D02*
X82686000Y-92697000D01*
X82296000Y-92837000D02*
X82546000Y-92837000D01*
X82296000Y-97282000D02*
X82296000Y-92837000D01*
X77851000Y-101727000D02*
X82296000Y-97282000D01*
D38*
X73796000Y-101727000D02*
X77851000Y-101727000D01*
D37*
%TO.N,Net-(C19-Pad1)*%
X92486000Y-90297000D02*
X93091000Y-90902000D01*
X91186000Y-90297000D02*
X92486000Y-90297000D01*
X93091000Y-90902000D02*
X93091000Y-91567000D01*
X94216000Y-91567000D02*
X94361000Y-91712000D01*
X93091000Y-91567000D02*
X94216000Y-91567000D01*
%TO.N,Net-(C20-Pad1)*%
X91248000Y-63181000D02*
X90043000Y-61976000D01*
D38*
X92973000Y-61456000D02*
X91248000Y-63181000D01*
X92973000Y-60071000D02*
X92973000Y-61456000D01*
X91248000Y-63181000D02*
X91248000Y-63311000D01*
D37*
X91248000Y-63881000D02*
X91248000Y-63311000D01*
D38*
X91576000Y-58674000D02*
X92973000Y-60071000D01*
X89582000Y-58674000D02*
X91576000Y-58674000D01*
D37*
%TO.N,Net-(C20-Pad2)*%
X86298000Y-63671000D02*
X87993000Y-61976000D01*
X86298000Y-63881000D02*
X86298000Y-63671000D01*
D38*
%TO.N,Net-(C23-Pad1)*%
X86487000Y-43180000D02*
X90932000Y-43180000D01*
X97282000Y-36830000D02*
X96012000Y-36830000D01*
X92837000Y-33655000D02*
X92837000Y-32385000D01*
X96012000Y-36830000D02*
X92837000Y-33655000D01*
X94742000Y-45021500D02*
X94742000Y-42481500D01*
X91757500Y-42481500D02*
X91694000Y-42418000D01*
X94742000Y-42481500D02*
X91757500Y-42481500D01*
X91694000Y-42418000D02*
X97282000Y-36830000D01*
X90932000Y-43180000D02*
X91694000Y-42418000D01*
X103632000Y-19685000D02*
X100457000Y-16510000D01*
D40*
X103632000Y-46990000D02*
X103632000Y-19685000D01*
X91567000Y-52070000D02*
X98552000Y-52070000D01*
X86487000Y-46990000D02*
X91567000Y-52070000D01*
X86487000Y-43180000D02*
X86487000Y-46990000D01*
X98552000Y-52070000D02*
X103632000Y-46990000D01*
D38*
X100457000Y-18025000D02*
X100457000Y-16510000D01*
X100457000Y-16510000D02*
X99822000Y-15875000D01*
D40*
X92837000Y-15875000D02*
X86487000Y-22225000D01*
D38*
X99822000Y-15875000D02*
X92837000Y-15875000D01*
D37*
%TO.N,Net-(D2-Pad1)*%
X36561000Y-107959000D02*
X37586000Y-106934000D01*
X35560000Y-107959000D02*
X36561000Y-107959000D01*
D38*
%TO.N,Net-(D4-Pad1)*%
X75697000Y-36255000D02*
X75697000Y-40635000D01*
X75057000Y-41275000D02*
X75697000Y-40635000D01*
X75057000Y-43180000D02*
X75057000Y-41275000D01*
D40*
X75057000Y-43180000D02*
X79756000Y-43180000D01*
X85881000Y-37055000D02*
X87757000Y-37055000D01*
X79756000Y-43180000D02*
X85881000Y-37055000D01*
D37*
%TO.N,Net-(D5-Pad1)*%
X83615000Y-85647000D02*
X80772000Y-82804000D01*
X84136000Y-85647000D02*
X83615000Y-85647000D01*
%TO.N,IRQ*%
X52399000Y-97969000D02*
X52399000Y-95175000D01*
X52399000Y-95175000D02*
X52578000Y-94996000D01*
X52578000Y-94996000D02*
X53086000Y-94996000D01*
X53086000Y-94996000D02*
X53086000Y-94996000D01*
X77972000Y-82804000D02*
X74676000Y-82804000D01*
X74676000Y-82804000D02*
X73406000Y-81534000D01*
X62738000Y-81534000D02*
X61976000Y-82296000D01*
X73406000Y-81534000D02*
X62738000Y-81534000D01*
X61976000Y-82296000D02*
X61976000Y-77978000D01*
D38*
%TO.N,Net-(D6-Pad1)*%
X100457000Y-21965000D02*
X100457000Y-20075000D01*
X100457000Y-20075000D02*
X100212000Y-20075000D01*
X100457000Y-20075000D02*
X98942000Y-20075000D01*
X98942000Y-20075000D02*
X98552000Y-19685000D01*
X98552000Y-19685000D02*
X98552000Y-17780000D01*
X98162000Y-17390000D02*
X96647000Y-17390000D01*
X98552000Y-17780000D02*
X98162000Y-17390000D01*
%TO.N,Net-(J3-Pad1)*%
X56896000Y-33782000D02*
X56896000Y-30489000D01*
D37*
%TO.N,Net-(J4-Pad1)*%
X58420000Y-90424000D02*
X56388000Y-90424000D01*
D38*
%TO.N,Net-(J5-Pad1)*%
X23948500Y-24892000D02*
X23939500Y-24901000D01*
X27178000Y-24892000D02*
X23948500Y-24892000D01*
%TO.N,Net-(J5-Pad2)*%
X32258000Y-24316081D02*
X32258000Y-22860000D01*
X32258000Y-22860000D02*
X31496000Y-22098000D01*
X31242000Y-22352000D02*
X27178000Y-22352000D01*
X31496000Y-22098000D02*
X31242000Y-22352000D01*
X32512000Y-51562000D02*
X32512000Y-48133000D01*
D40*
X30061999Y-36078001D02*
X30061999Y-31787001D01*
D38*
X32512000Y-38528002D02*
X30061999Y-36078001D01*
D40*
X32258000Y-29591000D02*
X32258000Y-22860000D01*
X30061999Y-31787001D02*
X32258000Y-29591000D01*
X32512000Y-51562000D02*
X32512000Y-38528002D01*
X29561999Y-36318001D02*
X29561999Y-36078001D01*
X31095999Y-37852001D02*
X29561999Y-36318001D01*
X31835999Y-37852001D02*
X31095999Y-37852001D01*
X32512000Y-38528002D02*
X31835999Y-37852001D01*
D37*
%TO.N,Net-(J7-Pad1)*%
X84861001Y-85369001D02*
X84861001Y-81813001D01*
X84936000Y-85444000D02*
X84861001Y-85369001D01*
X84936000Y-85647000D02*
X84936000Y-85444000D01*
X83566000Y-80518000D02*
X83566000Y-77724000D01*
X84861001Y-81813001D02*
X83566000Y-80518000D01*
%TO.N,Net-(J7-Pad2)*%
X85736000Y-85647000D02*
X85736000Y-83958000D01*
X85570990Y-78259010D02*
X86106000Y-77724000D01*
X85570990Y-83792990D02*
X85570990Y-78259010D01*
X85736000Y-83958000D02*
X85570990Y-83792990D01*
%TO.N,Net-(J8-Pad1)*%
X88936000Y-94147000D02*
X88936000Y-95232002D01*
X86868000Y-103886000D02*
X86868000Y-97536000D01*
X88936000Y-95468000D02*
X88936000Y-95232002D01*
X86868000Y-97536000D02*
X88936000Y-95468000D01*
%TO.N,Net-(J8-Pad7)*%
X91440000Y-92951000D02*
X91186000Y-92697000D01*
X93980000Y-96520000D02*
X91440000Y-93980000D01*
X93980000Y-99314000D02*
X93980000Y-96520000D01*
X94488000Y-99822000D02*
X93980000Y-99314000D01*
X91440000Y-93980000D02*
X91440000Y-92951000D01*
X94488000Y-103886000D02*
X94488000Y-99822000D01*
%TO.N,Net-(J8-Pad9)*%
X97028000Y-103886000D02*
X97028000Y-99314000D01*
X97028000Y-99314000D02*
X96012000Y-98298000D01*
X96012000Y-98298000D02*
X96012000Y-98298000D01*
X89736000Y-94147000D02*
X90083000Y-94147000D01*
X90083000Y-94147000D02*
X92202000Y-96266000D01*
X92202000Y-96266000D02*
X92202000Y-98044000D01*
X92202000Y-98044000D02*
X92202000Y-98298000D01*
X92202000Y-98298000D02*
X92202000Y-98298000D01*
D38*
%TO.N,Net-(J10-Pad1)*%
X96647000Y-22225000D02*
X96647000Y-19440000D01*
D37*
%TO.N,Net-(Q1-Pad1)*%
X49700000Y-59629000D02*
X49530000Y-59799000D01*
X51324000Y-59629000D02*
X49700000Y-59629000D01*
X47516000Y-59799000D02*
X47498000Y-59817000D01*
X49530000Y-59799000D02*
X47516000Y-59799000D01*
D38*
%TO.N,Net-(Q1-Pad3)*%
X54102000Y-59801000D02*
X53324000Y-60579000D01*
X53782000Y-55687000D02*
X54102000Y-56007000D01*
X53308000Y-55687000D02*
X53782000Y-55687000D01*
X54102000Y-56007000D02*
X54102000Y-59801000D01*
X54356000Y-55753000D02*
X54102000Y-56007000D01*
X55608000Y-55753000D02*
X54356000Y-55753000D01*
X53782000Y-52131000D02*
X53782000Y-55687000D01*
X53340000Y-51689000D02*
X53782000Y-52131000D01*
X38100000Y-56134000D02*
X42545000Y-51689000D01*
X42545000Y-51689000D02*
X53340000Y-51689000D01*
X29845000Y-56134000D02*
X38100000Y-56134000D01*
D37*
%TO.N,Net-(Q2-Pad1)*%
X49548000Y-54737000D02*
X49530000Y-54719000D01*
X51308000Y-54737000D02*
X49548000Y-54737000D01*
X47516000Y-54719000D02*
X47498000Y-54737000D01*
X49530000Y-54719000D02*
X47516000Y-54719000D01*
D38*
%TO.N,Net-(Q3-Pad1)*%
X29972000Y-53957000D02*
X29845000Y-54084000D01*
X29972000Y-51562000D02*
X29972000Y-53957000D01*
D37*
%TO.N,Net-(R3-Pad1)*%
X32004000Y-103756000D02*
X33274000Y-103756000D01*
X32004000Y-105664000D02*
X32258000Y-105918000D01*
X32004000Y-103756000D02*
X32004000Y-105664000D01*
%TO.N,Net-(R4-Pad2)*%
X23020000Y-82169000D02*
X24257000Y-82169000D01*
X26652000Y-79774000D02*
X26652000Y-78740000D01*
X24257000Y-82169000D02*
X26652000Y-79774000D01*
X20447000Y-82169000D02*
X20066000Y-81788000D01*
X23020000Y-82169000D02*
X20447000Y-82169000D01*
X20066000Y-81788000D02*
X20066000Y-82795000D01*
X20066000Y-81026000D02*
X20066000Y-81788000D01*
%TO.N,Temperature*%
X91186000Y-87897000D02*
X92951000Y-87897000D01*
X92951000Y-87897000D02*
X94361000Y-86487000D01*
X94361000Y-86487000D02*
X94361000Y-86487000D01*
X23020000Y-80899000D02*
X23020000Y-80678000D01*
X23020000Y-80678000D02*
X21318000Y-78976000D01*
X21046000Y-78740000D02*
X20810000Y-78976000D01*
X22842000Y-78740000D02*
X21046000Y-78740000D01*
X20810000Y-78976000D02*
X20066000Y-78976000D01*
X21318000Y-78976000D02*
X20810000Y-78976000D01*
X20066000Y-78976000D02*
X20066000Y-78232000D01*
X20066000Y-78232000D02*
X21082000Y-77216000D01*
X21082000Y-77216000D02*
X21082000Y-77216000D01*
X54356000Y-75692000D02*
X44196000Y-75692000D01*
X44196000Y-75692000D02*
X44196000Y-75692000D01*
%TO.N,Net-(R11-Pad2)*%
X24892000Y-78740000D02*
X24892000Y-77470000D01*
X24892000Y-77470000D02*
X25146000Y-77216000D01*
X25146000Y-77216000D02*
X27432000Y-77216000D01*
X27432000Y-77216000D02*
X27686000Y-77470000D01*
D39*
X27686000Y-77470000D02*
X27686000Y-80010000D01*
D37*
X27686000Y-80010000D02*
X27686000Y-83820000D01*
X28575000Y-84709000D02*
X30320000Y-84709000D01*
X27686000Y-83820000D02*
X28575000Y-84709000D01*
X32258000Y-84473000D02*
X32113000Y-84473000D01*
X31877000Y-84709000D02*
X30320000Y-84709000D01*
X32113000Y-84473000D02*
X31877000Y-84709000D01*
%TO.N,Net-(R9-Pad1)*%
X32004000Y-88918000D02*
X31732000Y-88646000D01*
X32004000Y-90678000D02*
X32004000Y-88918000D01*
%TO.N,Net-(R10-Pad1)*%
X20592000Y-94234000D02*
X21082000Y-94234000D01*
X21082000Y-94234000D02*
X25400000Y-89916000D01*
X25400000Y-89916000D02*
X25400000Y-87376000D01*
X25400000Y-87376000D02*
X26416000Y-86360000D01*
X26416000Y-86360000D02*
X34036000Y-86360000D01*
X34036000Y-86360000D02*
X34036000Y-83820000D01*
X34036000Y-83820000D02*
X33782000Y-83566000D01*
D39*
X33655000Y-83439000D02*
X33782000Y-83566000D01*
X30320000Y-83439000D02*
X33655000Y-83439000D01*
D37*
X33782000Y-86614000D02*
X34036000Y-86360000D01*
X33782000Y-88646000D02*
X33782000Y-86614000D01*
%TO.N,Net-(R11-Pad1)*%
X32258000Y-82423000D02*
X32258000Y-82296000D01*
X32131000Y-82169000D02*
X30320000Y-82169000D01*
X32258000Y-82296000D02*
X32131000Y-82169000D01*
X45448000Y-69106000D02*
X45448000Y-59817000D01*
X32258000Y-82296000D02*
X45448000Y-69106000D01*
%TO.N,Net-(R12-Pad2)*%
X35560000Y-105909000D02*
X35823000Y-105909000D01*
X37084000Y-104648000D02*
X37084000Y-103756000D01*
X35823000Y-105909000D02*
X37084000Y-104648000D01*
%TO.N,Net-(R13-Pad2)*%
X49530000Y-87565000D02*
X49530000Y-86106000D01*
X49530000Y-86106000D02*
X44450000Y-86106000D01*
X44450000Y-86106000D02*
X44450000Y-87565000D01*
X49530000Y-87565000D02*
X49530000Y-89154000D01*
X49530000Y-89154000D02*
X49784000Y-89408000D01*
X49784000Y-89408000D02*
X51816000Y-89408000D01*
X51816000Y-89408000D02*
X52832000Y-90424000D01*
X54338000Y-90424000D02*
X52832000Y-90424000D01*
%TO.N,HeatOFF*%
X61279000Y-96520000D02*
X63500000Y-96520000D01*
X63500000Y-96520000D02*
X63500000Y-90932000D01*
X63500000Y-90932000D02*
X67310000Y-87122000D01*
X67310000Y-87122000D02*
X69596000Y-87122000D01*
X69596000Y-87122000D02*
X69596000Y-87122000D01*
X45448000Y-54737000D02*
X45448000Y-57386000D01*
X45448000Y-57386000D02*
X46482000Y-58420000D01*
D39*
X46482000Y-58420000D02*
X46482000Y-59182000D01*
X46482000Y-59182000D02*
X46482000Y-61468000D01*
D37*
X46482000Y-61468000D02*
X46482000Y-62484000D01*
X46482000Y-62484000D02*
X57658000Y-73660000D01*
X57658000Y-73660000D02*
X69596000Y-73660000D01*
X69596000Y-73660000D02*
X69596000Y-73660000D01*
D38*
%TO.N,Net-(R23-Pad2)*%
X97917000Y-47561500D02*
X94742000Y-47561500D01*
%TO.N,Net-(R23-Pad1)*%
X79097000Y-36255000D02*
X79097000Y-33425000D01*
X79097000Y-33425000D02*
X79502000Y-33020000D01*
X79502000Y-33020000D02*
X89662000Y-33020000D01*
D39*
X94742000Y-33020000D02*
X94742000Y-32258000D01*
X94742000Y-32258000D02*
X93853000Y-31369000D01*
X91313000Y-31369000D02*
X89662000Y-33020000D01*
X93853000Y-31369000D02*
X91313000Y-31369000D01*
D38*
X96012000Y-34290000D02*
X95377000Y-33655000D01*
X99187000Y-34290000D02*
X96012000Y-34290000D01*
X100457000Y-35560000D02*
X99187000Y-34290000D01*
X95377000Y-33655000D02*
X94742000Y-33020000D01*
X97917000Y-45511500D02*
X98062000Y-45511500D01*
X97917000Y-45511500D02*
X97917000Y-41910000D01*
X100457000Y-39370000D02*
X100457000Y-35560000D01*
X97917000Y-41910000D02*
X100457000Y-39370000D01*
D37*
%TO.N,Net-(U1-Pad9)*%
X60304000Y-100330000D02*
X61279000Y-100330000D01*
X37084000Y-98806000D02*
X37084000Y-97028000D01*
X37084000Y-97028000D02*
X36322000Y-96266000D01*
X26416000Y-100076000D02*
X22098000Y-100076000D01*
X36322000Y-96266000D02*
X27432000Y-96266000D01*
X22098000Y-100076000D02*
X21844000Y-100330000D01*
X26416000Y-97282000D02*
X26416000Y-100076000D01*
X59182000Y-101452000D02*
X60304000Y-100330000D01*
X21844000Y-100330000D02*
X21844000Y-104902000D01*
X21844000Y-104902000D02*
X26162000Y-109220000D01*
X59182000Y-107442000D02*
X59182000Y-101452000D01*
X27432000Y-96266000D02*
X26416000Y-97282000D01*
X26162000Y-109220000D02*
X41910000Y-109220000D01*
X41910000Y-109220000D02*
X43688000Y-107442000D01*
X43688000Y-107442000D02*
X59182000Y-107442000D01*
%TO.N,PL_ON*%
X38354000Y-98806000D02*
X38354000Y-95758000D01*
X38354000Y-95758000D02*
X36322000Y-93726000D01*
X36322000Y-93726000D02*
X36322000Y-87630000D01*
X36322000Y-87630000D02*
X35814000Y-87122000D01*
X35814000Y-87122000D02*
X35814000Y-80518000D01*
D38*
X80797000Y-36255000D02*
X81855000Y-36255000D01*
X81855000Y-36255000D02*
X83566000Y-34544000D01*
X83566000Y-34544000D02*
X89916000Y-34544000D01*
X89916000Y-34544000D02*
X90932000Y-35560000D01*
X90932000Y-35560000D02*
X90932000Y-38862000D01*
X90932000Y-38862000D02*
X89408000Y-40386000D01*
X89408000Y-40386000D02*
X85852000Y-40386000D01*
X85852000Y-40386000D02*
X83312000Y-42926000D01*
X83312000Y-42926000D02*
X83312000Y-45974000D01*
X83312000Y-45974000D02*
X83312000Y-53594000D01*
X83312000Y-53594000D02*
X79502000Y-57404000D01*
D37*
X79502000Y-57404000D02*
X78486000Y-58420000D01*
X78486000Y-58420000D02*
X78486000Y-58420000D01*
X74676000Y-68072000D02*
X74676000Y-68072000D01*
X35814000Y-80518000D02*
X40767000Y-75565000D01*
X40767000Y-75565000D02*
X40894000Y-75438000D01*
X72390000Y-75438000D02*
X72390000Y-70358000D01*
X72332001Y-75380001D02*
X72390000Y-75438000D01*
X57854001Y-75380001D02*
X72332001Y-75380001D01*
X72390000Y-70358000D02*
X74676000Y-68072000D01*
X55118000Y-72644000D02*
X57854001Y-75380001D01*
X43688000Y-72644000D02*
X55118000Y-72644000D01*
X40767000Y-75565000D02*
X43688000Y-72644000D01*
%TO.N,Net-(U1-Pad5)*%
X36129990Y-101284010D02*
X35814000Y-101600000D01*
X43942000Y-106426000D02*
X42418000Y-104902000D01*
X58166000Y-106426000D02*
X43942000Y-106426000D01*
X58166000Y-102362000D02*
X58166000Y-106426000D01*
X53848000Y-102362000D02*
X58166000Y-102362000D01*
X51129000Y-99643000D02*
X53848000Y-102362000D01*
X35814000Y-101600000D02*
X35814000Y-103756000D01*
X42418000Y-104902000D02*
X42418000Y-101284010D01*
X51129000Y-97969000D02*
X51129000Y-99643000D01*
X42418000Y-101284010D02*
X36129990Y-101284010D01*
X51129000Y-93139034D02*
X51129000Y-97969000D01*
X50800000Y-92810034D02*
X51129000Y-93139034D01*
X50800000Y-91694000D02*
X50800000Y-92810034D01*
X50038000Y-90932000D02*
X50800000Y-91694000D01*
X45720000Y-90932000D02*
X50038000Y-90932000D01*
X45720000Y-87565000D02*
X45720000Y-90932000D01*
%TO.N,MCUHeatOff*%
X80785000Y-87897000D02*
X82686000Y-87897000D01*
X73914000Y-87884000D02*
X80772000Y-87884000D01*
X70612000Y-84582000D02*
X73914000Y-87884000D01*
X67818000Y-84582000D02*
X70612000Y-84582000D01*
X80772000Y-87884000D02*
X80785000Y-87897000D01*
X61279000Y-91121000D02*
X67818000Y-84582000D01*
X61279000Y-93980000D02*
X61279000Y-91121000D01*
%TO.N,Net-(U2-Pad2)*%
X48260000Y-87565000D02*
X46990000Y-87565000D01*
X61279000Y-95250000D02*
X59436000Y-95250000D01*
X59436000Y-99060000D02*
X61279000Y-99060000D01*
X59436000Y-96266000D02*
X59436000Y-99060000D01*
X59436000Y-95250000D02*
X59436000Y-96266000D01*
X46990000Y-90170000D02*
X46990000Y-87565000D01*
X47498000Y-90170000D02*
X46990000Y-90170000D01*
X47559990Y-90231990D02*
X47498000Y-90170000D01*
X50861990Y-90231990D02*
X47559990Y-90231990D01*
X52070000Y-91440000D02*
X50861990Y-90231990D01*
X52578000Y-91440000D02*
X52070000Y-91440000D01*
X55626000Y-94488000D02*
X52578000Y-91440000D01*
X55626000Y-99060000D02*
X55626000Y-94488000D01*
X59436000Y-99060000D02*
X55626000Y-99060000D01*
%TO.N,MCU_PL_ON*%
X84136000Y-95232002D02*
X84201000Y-95297002D01*
X84136000Y-94147000D02*
X84136000Y-95232002D01*
X84201000Y-95297002D02*
X84201000Y-98552000D01*
X84201000Y-98552000D02*
X84201000Y-98552000D01*
X61279000Y-97790000D02*
X61832544Y-97790000D01*
X61832544Y-97790000D02*
X64516000Y-97790000D01*
X64516000Y-97790000D02*
X64516000Y-93869456D01*
X64516000Y-93869456D02*
X64516000Y-93218000D01*
X64516000Y-93218000D02*
X67564000Y-90170000D01*
X67564000Y-90170000D02*
X67564000Y-90170000D01*
%TD*%
D41*
%TO.N,GND*%
G36*
X89634928Y-63731000D02*
G01*
X89634928Y-64031000D01*
X89650071Y-64184745D01*
X89694916Y-64332582D01*
X89767742Y-64468829D01*
X89789000Y-64494732D01*
X89789000Y-64537268D01*
X89767742Y-64563171D01*
X89694916Y-64699418D01*
X89650071Y-64847255D01*
X89634928Y-65001000D01*
X89634928Y-65301000D01*
X89650071Y-65454745D01*
X89694916Y-65602582D01*
X89766730Y-65736936D01*
X89742463Y-65766506D01*
X89683498Y-65876820D01*
X89647188Y-65996518D01*
X89634928Y-66121000D01*
X89638000Y-66135250D01*
X89789000Y-66286250D01*
X89789000Y-66555750D01*
X89638000Y-66706750D01*
X89634928Y-66721000D01*
X89647188Y-66845482D01*
X89683498Y-66965180D01*
X89742463Y-67075494D01*
X89766730Y-67105064D01*
X89694916Y-67239418D01*
X89650071Y-67387255D01*
X89634928Y-67541000D01*
X89634928Y-67841000D01*
X89645171Y-67945000D01*
X87900829Y-67945000D01*
X87911072Y-67841000D01*
X87911072Y-67541000D01*
X87895929Y-67387255D01*
X87851084Y-67239418D01*
X87778258Y-67103171D01*
X87757000Y-67077268D01*
X87757000Y-67034732D01*
X87778258Y-67008829D01*
X87851084Y-66872582D01*
X87895929Y-66724745D01*
X87911072Y-66571000D01*
X87911072Y-66271000D01*
X87895929Y-66117255D01*
X87851084Y-65969418D01*
X87778258Y-65833171D01*
X87757000Y-65807268D01*
X87757000Y-65764732D01*
X87778258Y-65738829D01*
X87851084Y-65602582D01*
X87895929Y-65454745D01*
X87911072Y-65301000D01*
X87911072Y-65001000D01*
X87895929Y-64847255D01*
X87851084Y-64699418D01*
X87778258Y-64563171D01*
X87757000Y-64537268D01*
X87757000Y-64494732D01*
X87778258Y-64468829D01*
X87851084Y-64332582D01*
X87895929Y-64184745D01*
X87911072Y-64031000D01*
X87911072Y-63731000D01*
X87900829Y-63627000D01*
X89645171Y-63627000D01*
X89634928Y-63731000D01*
G37*
X89634928Y-63731000D02*
X89634928Y-64031000D01*
X89650071Y-64184745D01*
X89694916Y-64332582D01*
X89767742Y-64468829D01*
X89789000Y-64494732D01*
X89789000Y-64537268D01*
X89767742Y-64563171D01*
X89694916Y-64699418D01*
X89650071Y-64847255D01*
X89634928Y-65001000D01*
X89634928Y-65301000D01*
X89650071Y-65454745D01*
X89694916Y-65602582D01*
X89766730Y-65736936D01*
X89742463Y-65766506D01*
X89683498Y-65876820D01*
X89647188Y-65996518D01*
X89634928Y-66121000D01*
X89638000Y-66135250D01*
X89789000Y-66286250D01*
X89789000Y-66555750D01*
X89638000Y-66706750D01*
X89634928Y-66721000D01*
X89647188Y-66845482D01*
X89683498Y-66965180D01*
X89742463Y-67075494D01*
X89766730Y-67105064D01*
X89694916Y-67239418D01*
X89650071Y-67387255D01*
X89634928Y-67541000D01*
X89634928Y-67841000D01*
X89645171Y-67945000D01*
X87900829Y-67945000D01*
X87911072Y-67841000D01*
X87911072Y-67541000D01*
X87895929Y-67387255D01*
X87851084Y-67239418D01*
X87778258Y-67103171D01*
X87757000Y-67077268D01*
X87757000Y-67034732D01*
X87778258Y-67008829D01*
X87851084Y-66872582D01*
X87895929Y-66724745D01*
X87911072Y-66571000D01*
X87911072Y-66271000D01*
X87895929Y-66117255D01*
X87851084Y-65969418D01*
X87778258Y-65833171D01*
X87757000Y-65807268D01*
X87757000Y-65764732D01*
X87778258Y-65738829D01*
X87851084Y-65602582D01*
X87895929Y-65454745D01*
X87911072Y-65301000D01*
X87911072Y-65001000D01*
X87895929Y-64847255D01*
X87851084Y-64699418D01*
X87778258Y-64563171D01*
X87757000Y-64537268D01*
X87757000Y-64494732D01*
X87778258Y-64468829D01*
X87851084Y-64332582D01*
X87895929Y-64184745D01*
X87911072Y-64031000D01*
X87911072Y-63731000D01*
X87900829Y-63627000D01*
X89645171Y-63627000D01*
X89634928Y-63731000D01*
%TO.N,Net-(J5-Pad2)*%
G36*
X34417000Y-29083000D02*
G01*
X29337000Y-29083000D01*
X29337000Y-19939000D01*
X34417000Y-19939000D01*
X34417000Y-29083000D01*
G37*
X34417000Y-29083000D02*
X29337000Y-29083000D01*
X29337000Y-19939000D01*
X34417000Y-19939000D01*
X34417000Y-29083000D01*
G36*
X22479000Y-28702000D02*
G01*
X22481440Y-28726776D01*
X22488667Y-28750601D01*
X22500403Y-28772557D01*
X22516197Y-28791803D01*
X22535443Y-28807597D01*
X22557399Y-28819333D01*
X22581224Y-28826560D01*
X22606000Y-28829000D01*
X34417000Y-28829000D01*
X34417000Y-32258000D01*
X34419440Y-32282776D01*
X34426667Y-32306601D01*
X34438403Y-32328557D01*
X34454197Y-32347803D01*
X34473443Y-32363597D01*
X34495399Y-32375333D01*
X34519224Y-32382560D01*
X34544000Y-32385000D01*
X38735000Y-32385000D01*
X38735000Y-46355000D01*
X27940000Y-46355000D01*
X27915224Y-46357440D01*
X27891399Y-46364667D01*
X27869443Y-46376403D01*
X27850197Y-46392197D01*
X27834403Y-46411443D01*
X27822667Y-46433399D01*
X27815440Y-46457224D01*
X27813000Y-46482000D01*
X27813000Y-57912000D01*
X27815440Y-57936776D01*
X27822667Y-57960601D01*
X27834403Y-57982557D01*
X27850197Y-58001803D01*
X27869443Y-58017597D01*
X27891399Y-58029333D01*
X27915224Y-58036560D01*
X27940000Y-58039000D01*
X43815000Y-58039000D01*
X43815000Y-67517479D01*
X38295097Y-74041000D01*
X13385000Y-74041000D01*
X13385000Y-34667098D01*
X30127000Y-34667098D01*
X30127000Y-35136902D01*
X30218654Y-35597679D01*
X30398440Y-36031721D01*
X30659450Y-36422349D01*
X30991651Y-36754550D01*
X31382279Y-37015560D01*
X31816321Y-37195346D01*
X32277098Y-37287000D01*
X32746902Y-37287000D01*
X33207679Y-37195346D01*
X33641721Y-37015560D01*
X34032349Y-36754550D01*
X34364550Y-36422349D01*
X34625560Y-36031721D01*
X34805346Y-35597679D01*
X34897000Y-35136902D01*
X34897000Y-34667098D01*
X34805346Y-34206321D01*
X34625560Y-33772279D01*
X34364550Y-33381651D01*
X34032349Y-33049450D01*
X33641721Y-32788440D01*
X33207679Y-32608654D01*
X32746902Y-32517000D01*
X32277098Y-32517000D01*
X31816321Y-32608654D01*
X31382279Y-32788440D01*
X30991651Y-33049450D01*
X30659450Y-33381651D01*
X30398440Y-33772279D01*
X30218654Y-34206321D01*
X30127000Y-34667098D01*
X13385000Y-34667098D01*
X13385000Y-13589000D01*
X22479000Y-13589000D01*
X22479000Y-28702000D01*
G37*
X22479000Y-28702000D02*
X22481440Y-28726776D01*
X22488667Y-28750601D01*
X22500403Y-28772557D01*
X22516197Y-28791803D01*
X22535443Y-28807597D01*
X22557399Y-28819333D01*
X22581224Y-28826560D01*
X22606000Y-28829000D01*
X34417000Y-28829000D01*
X34417000Y-32258000D01*
X34419440Y-32282776D01*
X34426667Y-32306601D01*
X34438403Y-32328557D01*
X34454197Y-32347803D01*
X34473443Y-32363597D01*
X34495399Y-32375333D01*
X34519224Y-32382560D01*
X34544000Y-32385000D01*
X38735000Y-32385000D01*
X38735000Y-46355000D01*
X27940000Y-46355000D01*
X27915224Y-46357440D01*
X27891399Y-46364667D01*
X27869443Y-46376403D01*
X27850197Y-46392197D01*
X27834403Y-46411443D01*
X27822667Y-46433399D01*
X27815440Y-46457224D01*
X27813000Y-46482000D01*
X27813000Y-57912000D01*
X27815440Y-57936776D01*
X27822667Y-57960601D01*
X27834403Y-57982557D01*
X27850197Y-58001803D01*
X27869443Y-58017597D01*
X27891399Y-58029333D01*
X27915224Y-58036560D01*
X27940000Y-58039000D01*
X43815000Y-58039000D01*
X43815000Y-67517479D01*
X38295097Y-74041000D01*
X13385000Y-74041000D01*
X13385000Y-34667098D01*
X30127000Y-34667098D01*
X30127000Y-35136902D01*
X30218654Y-35597679D01*
X30398440Y-36031721D01*
X30659450Y-36422349D01*
X30991651Y-36754550D01*
X31382279Y-37015560D01*
X31816321Y-37195346D01*
X32277098Y-37287000D01*
X32746902Y-37287000D01*
X33207679Y-37195346D01*
X33641721Y-37015560D01*
X34032349Y-36754550D01*
X34364550Y-36422349D01*
X34625560Y-36031721D01*
X34805346Y-35597679D01*
X34897000Y-35136902D01*
X34897000Y-34667098D01*
X34805346Y-34206321D01*
X34625560Y-33772279D01*
X34364550Y-33381651D01*
X34032349Y-33049450D01*
X33641721Y-32788440D01*
X33207679Y-32608654D01*
X32746902Y-32517000D01*
X32277098Y-32517000D01*
X31816321Y-32608654D01*
X31382279Y-32788440D01*
X30991651Y-33049450D01*
X30659450Y-33381651D01*
X30398440Y-33772279D01*
X30218654Y-34206321D01*
X30127000Y-34667098D01*
X13385000Y-34667098D01*
X13385000Y-13589000D01*
X22479000Y-13589000D01*
X22479000Y-28702000D01*
%TO.N,+24V*%
G36*
X47117000Y-29083000D02*
G01*
X35433000Y-29083000D01*
X35433000Y-19939000D01*
X47117000Y-19939000D01*
X47117000Y-29083000D01*
G37*
X47117000Y-29083000D02*
X35433000Y-29083000D01*
X35433000Y-19939000D01*
X47117000Y-19939000D01*
X47117000Y-29083000D01*
%TO.N,GND*%
G36*
X54989273Y-38481000D02*
G01*
X48387000Y-38481000D01*
X48387000Y-19939000D01*
X54738705Y-19939000D01*
X54989273Y-38481000D01*
G37*
X54989273Y-38481000D02*
X48387000Y-38481000D01*
X48387000Y-19939000D01*
X54738705Y-19939000D01*
X54989273Y-38481000D01*
G36*
X39790529Y-52231925D02*
G01*
X39788197Y-52234197D01*
X39317394Y-52705000D01*
X34417000Y-52705000D01*
X34417000Y-47876012D01*
X44631708Y-47632805D01*
X39790529Y-52231925D01*
G37*
X39790529Y-52231925D02*
X39788197Y-52234197D01*
X39317394Y-52705000D01*
X34417000Y-52705000D01*
X34417000Y-47876012D01*
X44631708Y-47632805D01*
X39790529Y-52231925D01*
G36*
X63627000Y-49911000D02*
G01*
X42291000Y-49911000D01*
X42291000Y-43813514D01*
X63627000Y-43562503D01*
X63627000Y-49911000D01*
G37*
X63627000Y-49911000D02*
X42291000Y-49911000D01*
X42291000Y-43813514D01*
X63627000Y-43562503D01*
X63627000Y-49911000D01*
G36*
X42037000Y-47879000D02*
G01*
X39118995Y-47879000D01*
X42037000Y-44063147D01*
X42037000Y-47879000D01*
G37*
X42037000Y-47879000D02*
X39118995Y-47879000D01*
X42037000Y-44063147D01*
X42037000Y-47879000D01*
%TO.N,+24V*%
G36*
X45847000Y-42545000D02*
G01*
X40005000Y-42545000D01*
X40005000Y-29083000D01*
X45847000Y-29083000D01*
X45847000Y-42545000D01*
G37*
X45847000Y-42545000D02*
X40005000Y-42545000D01*
X40005000Y-29083000D01*
X45847000Y-29083000D01*
X45847000Y-42545000D01*
%TO.N,GND*%
G36*
X82677000Y-31369000D02*
G01*
X71755000Y-31369000D01*
X71755000Y-27940000D01*
X71752560Y-27915224D01*
X71745333Y-27891399D01*
X71733597Y-27869443D01*
X71717803Y-27850197D01*
X71698557Y-27834403D01*
X71676601Y-27822667D01*
X71652776Y-27815440D01*
X71628000Y-27813000D01*
X58547000Y-27813000D01*
X58547000Y-13385000D01*
X82677000Y-13385000D01*
X82677000Y-31369000D01*
G37*
X82677000Y-31369000D02*
X71755000Y-31369000D01*
X71755000Y-27940000D01*
X71752560Y-27915224D01*
X71745333Y-27891399D01*
X71733597Y-27869443D01*
X71717803Y-27850197D01*
X71698557Y-27834403D01*
X71676601Y-27822667D01*
X71652776Y-27815440D01*
X71628000Y-27813000D01*
X58547000Y-27813000D01*
X58547000Y-13385000D01*
X82677000Y-13385000D01*
X82677000Y-31369000D01*
%TO.N,+24V*%
G36*
X45593000Y-39370000D02*
G01*
X45595440Y-39394776D01*
X45602667Y-39418601D01*
X45614403Y-39440557D01*
X45630197Y-39459803D01*
X45649443Y-39475597D01*
X45671399Y-39487333D01*
X45695224Y-39494560D01*
X45721460Y-39496992D01*
X67691000Y-39244469D01*
X67691000Y-42545000D01*
X45339000Y-42545000D01*
X45339000Y-38989000D01*
X45593000Y-38989000D01*
X45593000Y-39370000D01*
G37*
X45593000Y-39370000D02*
X45595440Y-39394776D01*
X45602667Y-39418601D01*
X45614403Y-39440557D01*
X45630197Y-39459803D01*
X45649443Y-39475597D01*
X45671399Y-39487333D01*
X45695224Y-39494560D01*
X45721460Y-39496992D01*
X67691000Y-39244469D01*
X67691000Y-42545000D01*
X45339000Y-42545000D01*
X45339000Y-38989000D01*
X45593000Y-38989000D01*
X45593000Y-39370000D01*
G36*
X74041000Y-38538498D02*
G01*
X67780840Y-42545000D01*
X59817000Y-42545000D01*
X59817000Y-35941000D01*
X74041000Y-35941000D01*
X74041000Y-38538498D01*
G37*
X74041000Y-38538498D02*
X67780840Y-42545000D01*
X59817000Y-42545000D01*
X59817000Y-35941000D01*
X74041000Y-35941000D01*
X74041000Y-38538498D01*
G36*
X68453000Y-35941000D02*
G01*
X59817000Y-35941000D01*
X59817000Y-29337000D01*
X68453000Y-29337000D01*
X68453000Y-35941000D01*
G37*
X68453000Y-35941000D02*
X59817000Y-35941000D01*
X59817000Y-29337000D01*
X68453000Y-29337000D01*
X68453000Y-35941000D01*
%TO.N,Net-(D4-Pad1)*%
G36*
X86487000Y-38301394D02*
G01*
X85473713Y-39314681D01*
X85415553Y-39332324D01*
X85218377Y-39437716D01*
X85045551Y-39579551D01*
X85010009Y-39622859D01*
X82548865Y-42084004D01*
X82505551Y-42119551D01*
X82363716Y-42292377D01*
X82258325Y-42489553D01*
X82258324Y-42489554D01*
X82240682Y-42547712D01*
X82206197Y-42582197D01*
X82188304Y-42604690D01*
X80955610Y-44577000D01*
X69723000Y-44577000D01*
X69723000Y-43755968D01*
X74968452Y-40259000D01*
X80772000Y-40259000D01*
X80796776Y-40256560D01*
X80820601Y-40249333D01*
X80842557Y-40237597D01*
X80853303Y-40229564D01*
X82377303Y-38959564D01*
X82394775Y-38941828D01*
X82404161Y-38928560D01*
X84398967Y-35687000D01*
X86487000Y-35687000D01*
X86487000Y-38301394D01*
G37*
X86487000Y-38301394D02*
X85473713Y-39314681D01*
X85415553Y-39332324D01*
X85218377Y-39437716D01*
X85045551Y-39579551D01*
X85010009Y-39622859D01*
X82548865Y-42084004D01*
X82505551Y-42119551D01*
X82363716Y-42292377D01*
X82258325Y-42489553D01*
X82258324Y-42489554D01*
X82240682Y-42547712D01*
X82206197Y-42582197D01*
X82188304Y-42604690D01*
X80955610Y-44577000D01*
X69723000Y-44577000D01*
X69723000Y-43755968D01*
X74968452Y-40259000D01*
X80772000Y-40259000D01*
X80796776Y-40256560D01*
X80820601Y-40249333D01*
X80842557Y-40237597D01*
X80853303Y-40229564D01*
X82377303Y-38959564D01*
X82394775Y-38941828D01*
X82404161Y-38928560D01*
X84398967Y-35687000D01*
X86487000Y-35687000D01*
X86487000Y-38301394D01*
%TO.N,GND*%
G36*
X94361000Y-30607000D02*
G01*
X94045262Y-30607000D01*
X94006887Y-30595359D01*
X93891561Y-30584000D01*
X93891553Y-30584000D01*
X93853000Y-30580203D01*
X93814447Y-30584000D01*
X91351556Y-30584000D01*
X91313000Y-30580203D01*
X91274444Y-30584000D01*
X91274439Y-30584000D01*
X91234026Y-30587980D01*
X91159113Y-30595358D01*
X91120735Y-30607000D01*
X82677000Y-30607000D01*
X82677000Y-25019000D01*
X94361000Y-25019000D01*
X94361000Y-30607000D01*
G37*
X94361000Y-30607000D02*
X94045262Y-30607000D01*
X94006887Y-30595359D01*
X93891561Y-30584000D01*
X93891553Y-30584000D01*
X93853000Y-30580203D01*
X93814447Y-30584000D01*
X91351556Y-30584000D01*
X91313000Y-30580203D01*
X91274444Y-30584000D01*
X91274439Y-30584000D01*
X91234026Y-30587980D01*
X91159113Y-30595358D01*
X91120735Y-30607000D01*
X82677000Y-30607000D01*
X82677000Y-25019000D01*
X94361000Y-25019000D01*
X94361000Y-30607000D01*
G36*
X89535000Y-31623000D02*
G01*
X82169000Y-31623000D01*
X82169000Y-30353000D01*
X89535000Y-30353000D01*
X89535000Y-31623000D01*
G37*
X89535000Y-31623000D02*
X82169000Y-31623000D01*
X82169000Y-30353000D01*
X89535000Y-30353000D01*
X89535000Y-31623000D01*
G36*
X93853000Y-25019000D02*
G01*
X89281000Y-25019000D01*
X89281000Y-21896606D01*
X90984606Y-20193000D01*
X93853000Y-20193000D01*
X93853000Y-25019000D01*
G37*
X93853000Y-25019000D02*
X89281000Y-25019000D01*
X89281000Y-21896606D01*
X90984606Y-20193000D01*
X93853000Y-20193000D01*
X93853000Y-25019000D01*
G36*
X101727000Y-32639000D02*
G01*
X96590390Y-32639000D01*
X95357696Y-30666690D01*
X95342495Y-30646973D01*
X95323740Y-30630600D01*
X95302150Y-30618201D01*
X95278557Y-30610252D01*
X95250000Y-30607000D01*
X94045262Y-30607000D01*
X94006887Y-30595359D01*
X93891561Y-30584000D01*
X93891553Y-30584000D01*
X93853000Y-30580203D01*
X93853000Y-24257000D01*
X101727000Y-24257000D01*
X101727000Y-32639000D01*
G37*
X101727000Y-32639000D02*
X96590390Y-32639000D01*
X95357696Y-30666690D01*
X95342495Y-30646973D01*
X95323740Y-30630600D01*
X95302150Y-30618201D01*
X95278557Y-30610252D01*
X95250000Y-30607000D01*
X94045262Y-30607000D01*
X94006887Y-30595359D01*
X93891561Y-30584000D01*
X93891553Y-30584000D01*
X93853000Y-30580203D01*
X93853000Y-24257000D01*
X101727000Y-24257000D01*
X101727000Y-32639000D01*
%TO.N,Net-(C23-Pad1)*%
G36*
X88267919Y-24003000D02*
G01*
X83693000Y-24003000D01*
X83693000Y-13385000D01*
X88514849Y-13385000D01*
X88267919Y-24003000D01*
G37*
X88267919Y-24003000D02*
X83693000Y-24003000D01*
X83693000Y-13385000D01*
X88514849Y-13385000D01*
X88267919Y-24003000D01*
G36*
X93599000Y-19431000D02*
G01*
X88011000Y-19431000D01*
X88011000Y-13589000D01*
X93599000Y-13589000D01*
X93599000Y-19431000D01*
G37*
X93599000Y-19431000D02*
X88011000Y-19431000D01*
X88011000Y-13589000D01*
X93599000Y-13589000D01*
X93599000Y-19431000D01*
G36*
X105537000Y-16129000D02*
G01*
X83693000Y-16129000D01*
X83693000Y-13385000D01*
X105537000Y-13385000D01*
X105537000Y-16129000D01*
G37*
X105537000Y-16129000D02*
X83693000Y-16129000D01*
X83693000Y-13385000D01*
X105537000Y-13385000D01*
X105537000Y-16129000D01*
G36*
X105537000Y-21039203D02*
G01*
X100392978Y-16129000D01*
X105537000Y-16129000D01*
X105537000Y-21039203D01*
G37*
X105537000Y-21039203D02*
X100392978Y-16129000D01*
X105537000Y-16129000D01*
X105537000Y-21039203D01*
G36*
X105537000Y-52959000D02*
G01*
X99441000Y-52959000D01*
X99441000Y-42719376D01*
X102711973Y-38945176D01*
X102726355Y-38924855D01*
X102736497Y-38902118D01*
X102742008Y-38877839D01*
X102743000Y-38862000D01*
X102743000Y-18923000D01*
X105537000Y-18923000D01*
X105537000Y-52959000D01*
G37*
X105537000Y-52959000D02*
X99441000Y-52959000D01*
X99441000Y-42719376D01*
X102711973Y-38945176D01*
X102726355Y-38924855D01*
X102736497Y-38902118D01*
X102742008Y-38877839D01*
X102743000Y-38862000D01*
X102743000Y-18923000D01*
X105537000Y-18923000D01*
X105537000Y-52959000D01*
G36*
X105537000Y-52959000D02*
G01*
X84963000Y-52959000D01*
X84963000Y-50165000D01*
X105537000Y-50165000D01*
X105537000Y-52959000D01*
G37*
X105537000Y-52959000D02*
X84963000Y-52959000D01*
X84963000Y-50165000D01*
X105537000Y-50165000D01*
X105537000Y-52959000D01*
%TO.N,GND*%
G36*
X89535000Y-68834000D02*
G01*
X89537440Y-68858776D01*
X89544667Y-68882601D01*
X89556403Y-68904557D01*
X89572197Y-68923803D01*
X89591443Y-68939597D01*
X89613399Y-68951333D01*
X89637224Y-68958560D01*
X89662000Y-68961000D01*
X92964000Y-68961000D01*
X92988776Y-68958560D01*
X93012601Y-68951333D01*
X93034557Y-68939597D01*
X93053803Y-68923803D01*
X93069597Y-68904557D01*
X93081333Y-68882601D01*
X93088560Y-68858776D01*
X93091000Y-68834000D01*
X93091000Y-67437000D01*
X94232661Y-67437000D01*
X105995001Y-67687262D01*
X105995001Y-78613000D01*
X88011000Y-78613000D01*
X88011000Y-63627000D01*
X89535000Y-63627000D01*
X89535000Y-68834000D01*
G37*
X89535000Y-68834000D02*
X89537440Y-68858776D01*
X89544667Y-68882601D01*
X89556403Y-68904557D01*
X89572197Y-68923803D01*
X89591443Y-68939597D01*
X89613399Y-68951333D01*
X89637224Y-68958560D01*
X89662000Y-68961000D01*
X92964000Y-68961000D01*
X92988776Y-68958560D01*
X93012601Y-68951333D01*
X93034557Y-68939597D01*
X93053803Y-68923803D01*
X93069597Y-68904557D01*
X93081333Y-68882601D01*
X93088560Y-68858776D01*
X93091000Y-68834000D01*
X93091000Y-67437000D01*
X94232661Y-67437000D01*
X105995001Y-67687262D01*
X105995001Y-78613000D01*
X88011000Y-78613000D01*
X88011000Y-63627000D01*
X89535000Y-63627000D01*
X89535000Y-68834000D01*
G36*
X105995001Y-67437000D02*
G01*
X98171000Y-67437000D01*
X98171000Y-61722000D01*
X98168560Y-61697224D01*
X98161333Y-61673399D01*
X98149597Y-61651443D01*
X98133803Y-61632197D01*
X98114557Y-61616403D01*
X98092601Y-61604667D01*
X98068776Y-61597440D01*
X98044000Y-61595000D01*
X96139000Y-61595000D01*
X96139000Y-54229000D01*
X105995000Y-54229000D01*
X105995001Y-67437000D01*
G37*
X105995001Y-67437000D02*
X98171000Y-67437000D01*
X98171000Y-61722000D01*
X98168560Y-61697224D01*
X98161333Y-61673399D01*
X98149597Y-61651443D01*
X98133803Y-61632197D01*
X98114557Y-61616403D01*
X98092601Y-61604667D01*
X98068776Y-61597440D01*
X98044000Y-61595000D01*
X96139000Y-61595000D01*
X96139000Y-54229000D01*
X105995000Y-54229000D01*
X105995001Y-67437000D01*
%TO.N,Net-(C20-Pad1)*%
G36*
X94361000Y-61415394D02*
G01*
X91895394Y-63881000D01*
X90551000Y-63881000D01*
X90551000Y-63246000D01*
X90548560Y-63221224D01*
X90541333Y-63197399D01*
X90529597Y-63175443D01*
X90513803Y-63156197D01*
X89789000Y-62431394D01*
X89789000Y-60452000D01*
X89786560Y-60427224D01*
X89779333Y-60403399D01*
X89767597Y-60381443D01*
X89751803Y-60362197D01*
X89732557Y-60346403D01*
X89710601Y-60334667D01*
X89686776Y-60327440D01*
X89662000Y-60325000D01*
X87503000Y-60325000D01*
X87503000Y-54229000D01*
X94361000Y-54229000D01*
X94361000Y-61415394D01*
G37*
X94361000Y-61415394D02*
X91895394Y-63881000D01*
X90551000Y-63881000D01*
X90551000Y-63246000D01*
X90548560Y-63221224D01*
X90541333Y-63197399D01*
X90529597Y-63175443D01*
X90513803Y-63156197D01*
X89789000Y-62431394D01*
X89789000Y-60452000D01*
X89786560Y-60427224D01*
X89779333Y-60403399D01*
X89767597Y-60381443D01*
X89751803Y-60362197D01*
X89732557Y-60346403D01*
X89710601Y-60334667D01*
X89686776Y-60327440D01*
X89662000Y-60325000D01*
X87503000Y-60325000D01*
X87503000Y-54229000D01*
X94361000Y-54229000D01*
X94361000Y-61415394D01*
%TO.N,+5V*%
G36*
X86233000Y-62357000D02*
G01*
X84582000Y-62357000D01*
X84557224Y-62359440D01*
X84533399Y-62366667D01*
X84511443Y-62378403D01*
X84492197Y-62394197D01*
X84476403Y-62413443D01*
X84464667Y-62435399D01*
X84457440Y-62459224D01*
X84455000Y-62484000D01*
X84455000Y-68199000D01*
X82348606Y-68199000D01*
X79883000Y-65733394D01*
X79883000Y-59742606D01*
X81115803Y-58509803D01*
X81121229Y-58504026D01*
X84893311Y-54229000D01*
X86233000Y-54229000D01*
X86233000Y-62357000D01*
G37*
X86233000Y-62357000D02*
X84582000Y-62357000D01*
X84557224Y-62359440D01*
X84533399Y-62366667D01*
X84511443Y-62378403D01*
X84492197Y-62394197D01*
X84476403Y-62413443D01*
X84464667Y-62435399D01*
X84457440Y-62459224D01*
X84455000Y-62484000D01*
X84455000Y-68199000D01*
X82348606Y-68199000D01*
X79883000Y-65733394D01*
X79883000Y-59742606D01*
X81115803Y-58509803D01*
X81121229Y-58504026D01*
X84893311Y-54229000D01*
X86233000Y-54229000D01*
X86233000Y-62357000D01*
%TO.N,GND*%
G36*
X81187156Y-69682654D02*
G01*
X81205845Y-69699102D01*
X81227385Y-69711588D01*
X81250946Y-69719632D01*
X81280000Y-69723000D01*
X88270402Y-69723000D01*
X88513358Y-75311000D01*
X73787000Y-75311000D01*
X73787000Y-70944490D01*
X76256796Y-69709592D01*
X76277866Y-69696329D01*
X76295943Y-69679211D01*
X76310333Y-69658894D01*
X76317917Y-69643167D01*
X77767632Y-66018879D01*
X81187156Y-69682654D01*
G37*
X81187156Y-69682654D02*
X81205845Y-69699102D01*
X81227385Y-69711588D01*
X81250946Y-69719632D01*
X81280000Y-69723000D01*
X88270402Y-69723000D01*
X88513358Y-75311000D01*
X73787000Y-75311000D01*
X73787000Y-70944490D01*
X76256796Y-69709592D01*
X76277866Y-69696329D01*
X76295943Y-69679211D01*
X76310333Y-69658894D01*
X76317917Y-69643167D01*
X77767632Y-66018879D01*
X81187156Y-69682654D01*
G36*
X81661000Y-53033394D02*
G01*
X78941394Y-55753000D01*
X76454000Y-55753000D01*
X76429224Y-55755440D01*
X76405399Y-55762667D01*
X76383443Y-55774403D01*
X76364197Y-55790197D01*
X76348403Y-55809443D01*
X76335635Y-55833969D01*
X75446635Y-58119969D01*
X75439930Y-58143946D01*
X75438000Y-58166000D01*
X75438000Y-64078805D01*
X60380476Y-48772396D01*
X63549655Y-45847000D01*
X81661000Y-45847000D01*
X81661000Y-53033394D01*
G37*
X81661000Y-53033394D02*
X78941394Y-55753000D01*
X76454000Y-55753000D01*
X76429224Y-55755440D01*
X76405399Y-55762667D01*
X76383443Y-55774403D01*
X76364197Y-55790197D01*
X76348403Y-55809443D01*
X76335635Y-55833969D01*
X75446635Y-58119969D01*
X75439930Y-58143946D01*
X75438000Y-58166000D01*
X75438000Y-64078805D01*
X60380476Y-48772396D01*
X63549655Y-45847000D01*
X81661000Y-45847000D01*
X81661000Y-53033394D01*
G36*
X77671394Y-66167000D02*
G01*
X73406000Y-66167000D01*
X73381224Y-66169440D01*
X73357399Y-66176667D01*
X73335443Y-66188403D01*
X73310165Y-66210665D01*
X68268135Y-72009000D01*
X58724844Y-72009000D01*
X48069234Y-61849000D01*
X73353394Y-61849000D01*
X77671394Y-66167000D01*
G37*
X77671394Y-66167000D02*
X73406000Y-66167000D01*
X73381224Y-66169440D01*
X73357399Y-66176667D01*
X73335443Y-66188403D01*
X73310165Y-66210665D01*
X68268135Y-72009000D01*
X58724844Y-72009000D01*
X48069234Y-61849000D01*
X73353394Y-61849000D01*
X77671394Y-66167000D01*
G36*
X73784486Y-62105565D02*
G01*
X61341000Y-62354434D01*
X61341000Y-49657000D01*
X73535514Y-49657000D01*
X73784486Y-62105565D01*
G37*
X73784486Y-62105565D02*
X61341000Y-62354434D01*
X61341000Y-49657000D01*
X73535514Y-49657000D01*
X73784486Y-62105565D01*
G36*
X61849000Y-62103000D02*
G01*
X55245000Y-62103000D01*
X55245000Y-58039000D01*
X61849000Y-58039000D01*
X61849000Y-62103000D01*
G37*
X61849000Y-62103000D02*
X55245000Y-62103000D01*
X55245000Y-58039000D01*
X61849000Y-58039000D01*
X61849000Y-62103000D01*
G36*
X61849000Y-53721000D02*
G01*
X56007000Y-53721000D01*
X56007000Y-50165000D01*
X61849000Y-50165000D01*
X61849000Y-53721000D01*
G37*
X61849000Y-53721000D02*
X56007000Y-53721000D01*
X56007000Y-50165000D01*
X61849000Y-50165000D01*
X61849000Y-53721000D01*
%TO.N,+24V*%
G36*
X57150000Y-17907000D02*
G01*
X47117000Y-17907000D01*
X47092224Y-17909440D01*
X47068399Y-17916667D01*
X47046443Y-17928403D01*
X47027197Y-17944197D01*
X47011403Y-17963443D01*
X46999667Y-17985399D01*
X46992440Y-18009224D01*
X46990000Y-18034000D01*
X46990000Y-19812000D01*
X35306000Y-19812000D01*
X35306000Y-18923000D01*
X35303560Y-18898224D01*
X35296333Y-18874399D01*
X35284597Y-18852443D01*
X35268803Y-18833197D01*
X35249557Y-18817403D01*
X35227601Y-18805667D01*
X35203776Y-18798440D01*
X35179000Y-18796000D01*
X23622000Y-18796000D01*
X23622000Y-13385000D01*
X57150000Y-13385000D01*
X57150000Y-17907000D01*
G37*
X57150000Y-17907000D02*
X47117000Y-17907000D01*
X47092224Y-17909440D01*
X47068399Y-17916667D01*
X47046443Y-17928403D01*
X47027197Y-17944197D01*
X47011403Y-17963443D01*
X46999667Y-17985399D01*
X46992440Y-18009224D01*
X46990000Y-18034000D01*
X46990000Y-19812000D01*
X35306000Y-19812000D01*
X35306000Y-18923000D01*
X35303560Y-18898224D01*
X35296333Y-18874399D01*
X35284597Y-18852443D01*
X35268803Y-18833197D01*
X35249557Y-18817403D01*
X35227601Y-18805667D01*
X35203776Y-18798440D01*
X35179000Y-18796000D01*
X23622000Y-18796000D01*
X23622000Y-13385000D01*
X57150000Y-13385000D01*
X57150000Y-17907000D01*
%TD*%
M02*
