M48
; DRILL file {KiCad 5.1.6-1.fc32} date Fri Aug  7 18:48:58 2020
; FORMAT={-:-/ absolute / inch / decimal}
; #@! TF.CreationDate,2020-08-07T18:48:58+03:00
; #@! TF.GenerationSoftware,Kicad,Pcbnew,5.1.6-1.fc32
; #@! TF.FileFunction,Plated,1,2,PTH
FMAT,2
INCH
T1C0.0157
T2C0.0197
T3C0.0295
T4C0.0315
T5C0.0394
T6C0.0433
T7C0.0472
T8C0.0512
T9C0.0520
T10C0.0551
%
G90
G05
T1
X2.0453Y-1.7947
X2.34Y-2.195
X3.0421Y-3.5954
T2
X0.69Y-3.49
X0.83Y-3.04
X1.13Y-3.89
X1.25Y-3.05
X1.59Y-4.09
X1.6326Y-3.2526
X1.64Y-4.21
X1.687Y-3.857
X1.74Y-2.98
X1.76Y-4.3
X2.0453Y-1.7947
X2.09Y-3.74
X2.14Y-2.98
X2.1474Y-3.4474
X2.217Y-4.113
X2.26Y-3.82
X2.34Y-2.195
X2.4126Y-4.0874
X2.44Y-3.24
X2.66Y-3.55
X2.72Y-3.7
X2.74Y-2.9
X2.74Y-3.43
X2.815Y-4.18
X2.94Y-2.68
X3.0421Y-3.5954
X3.09Y-2.3
X3.315Y-3.88
X3.5Y-3.87
X3.61Y-3.23
X3.63Y-3.87
X3.715Y-3.405
X3.78Y-3.87
X3.9Y-3.87
T3
X0.79Y-3.55
X0.84Y-3.5
X0.89Y-3.55
T4
X1.06Y-3.57
X1.16Y-3.57
X1.26Y-3.57
X3.73Y-1.6725
X3.73Y-1.7725
X3.73Y-1.8725
X3.065Y-3.8129
X3.065Y-4.005
T5
X3.29Y-3.06
X3.39Y-3.06
X3.49Y-3.06
X2.34Y-3.07
X2.44Y-3.07
X2.3Y-3.46
X2.3Y-3.56
X2.24Y-1.33
X2.24Y-1.43
X3.42Y-4.09
X3.42Y-4.19
X3.52Y-4.09
X3.52Y-4.19
X3.62Y-4.09
X3.62Y-4.19
X3.72Y-4.09
X3.72Y-4.19
X3.82Y-4.09
X3.82Y-4.19
X3.27Y-2.615
X3.27Y-2.8119
X3.805Y-0.875
X3.805Y-0.975
X3.83Y-1.2531
X3.83Y-1.45
X1.07Y-0.88
X1.07Y-0.98
T6
X1.18Y-2.03
X1.28Y-2.03
X1.38Y-2.03
T7
X2.655Y-1.0031
X2.655Y-1.2
X1.75Y-1.43
X1.9469Y-1.43
X3.77Y-2.515
X3.77Y-2.7119
T8
X3.33Y-2.31
X3.5269Y-2.31
T9
X1.7831Y-0.9
X1.98Y-0.9
X3.4331Y-0.87
X3.63Y-0.87
X1.2731Y-0.9
X1.47Y-0.9
T10
X2.955Y-1.7
X3.405Y-1.7
T0
M30
